<svg viewBox="0 0 800 800" xmlns="http://www.w3.org/2000/svg"><path d="M783.9467794659811,228.82020226107304 L424.13087228629104,436.6991556690716 M424.13087228629104,436.6991556690716 L434.6263303771622,442.759928614095 M794.4421344305144,234.84622003238107 L434.6263303771622,442.759928614095 M783.9467794659811,228.82020226107304 L794.4421344305144,234.84622003238107 M783.9467794659811,228.82020226107304 L809.5932178893954,565.9626364328783 M397.30145069468983,805.3203417615039 L424.13087228629104,436.6991556690716 M561.9979254894188,743.1458795843564 L397.30145069468983,805.3203417615039 M561.9979254894188,743.1458795843564 L645.4512749168691,694.6743956046557 M809.5932178893954,565.9626364328783 L645.4512749168691,694.6743956046557 M575.1247564493672,400.32390518696616 L572.440963196633,402.563792299003 M572.440963196633,402.563792299003 L569.9654761330369,405.3786257732541 M569.9654761330369,405.3786257732541 L567.8313656673467,408.6170977601131 M567.8313656673467,408.6170977601131 L566.1533646605396,412.1051173259022 M566.1533646605396,412.1051173259022 L565.0216662392718,415.65518558017163 M565.0216662392718,415.65518558017163 L564.4970884715308,419.07649247345154 M564.4970884715308,419.07649247345154 L564.6077944807951,422.18510789286034 M564.6077944807951,422.18510789286034 L565.3477945319264,424.8139860845512 M565.3477945319264,424.8139860845512 L566.677263019867,426.8218923223226 M566.677263019867,426.8218923223226 L568.524711290115,428.10095665815834 M568.524711290115,428.10095665815834 L570.7908172579678,428.5825385888444 M570.7908172579678,428.5825385888444 L573.3537862300475,428.24081537059664 M601.2660145348373,392.7652563023887 L575.1247564493672,400.32390518696616 M607.1596406372341,389.3575400165591 L605.2038609313636,390.87061027823705 M605.2038609313636,390.87061027823705 L603.2208102073564,392.01722355663867 M603.2208102073564,392.01722355663867 L601.2660145348373,392.7652563023887 M633.3093917319384,366.68484770147717 L607.1596406372341,389.3575400165591 M635.0008301051378,392.5867443927678 L637.5644712641315,389.9640592570211 M637.5644712641315,389.9640592570211 L639.8332646509527,386.8607435608529 M639.8332646509527,386.8607435608529 L641.6853474018446,383.4435186266676 M641.6853474018446,383.4435186266676 L643.0212300198091,379.8959202647831 M643.0212300198091,379.8959202647831 L643.7691486595529,376.4085210355413 M643.7691486595529,376.4085210355413 L643.888895004608,373.16865426809 M643.888895004608,373.16865426809 L643.3740004961965,370.35036765358643 M643.3740004961965,370.35036765358643 L642.2520774166007,368.10514683972946 M642.2520774166007,368.10514683972946 L640.5833573394727,366.55365134512607 M640.5833573394727,366.55365134512607 L638.4574555246911,365.7793125562613 M638.4574555246911,365.7793125562613 L635.9885834621607,365.82381150830713 M635.9885834621607,365.82381150830713 L633.3093917319384,366.68484770147717 M607.1194241769656,416.7654024076078 L635.0008301051378,392.5867443927678 M601.226912135178,420.17376406092785 L603.1813384003894,419.42536466277033 M603.1813384003894,419.42536466277033 L605.1640142732933,418.27853423805266 M605.1640142732933,418.27853423805266 L607.1194241769656,416.7654024076078 M573.3537862300475,428.24081537059664 L601.226912135178,420.17376406092785 M434.6263303771622,442.759928614095 L407.77129237857486,811.3984052366404 M397.30145069468983,805.3203417615039 L407.77129237857486,811.3984052366404 M655.9186438520335,700.729796428522 L820.0629420273754,572.0007793091241 M820.0629420273754,572.0007793091241 L794.4421344305144,234.84622003238107 M407.77129237857486,811.3984052366404 L572.465318242618,749.2093626941512 M572.465318242618,749.2093626941512 L655.9186438520335,700.729796428522 M583.8435740090961,434.2904060192999 L581.2806885205068,434.63232946419413 M581.2806885205068,434.63232946419413 L579.0147132892696,434.15089190806447 M579.0147132892696,434.15089190806447 L577.1674359885051,432.8719083263384 M577.1674359885051,432.8719083263384 L575.8381695240482,430.86401486984363 M575.8381695240482,430.86401486984363 L575.0983916990931,428.23508079116533 M575.0983916990931,428.23508079116533 L574.9879161815047,425.12634381254026 M574.9879161815047,425.12634381254026 L575.5127203225984,421.70485621848263 M575.5127203225984,421.70485621848263 L576.6446288293002,418.15455783764855 M576.6446288293002,418.15455783764855 L578.3228123412221,414.66627109353146 M578.3228123412221,414.66627109353146 L580.4570679183535,411.4275092444458 M580.4570679183535,411.4275092444458 L582.932654895284,408.61237881230727 M582.932654895284,408.61237881230727 L585.61649748788,406.3722036130176 M585.61649748788,406.3722036130176 L611.7571996858751,398.81134343864215 M617.6508240984381,395.403057649677 L615.695017183506,396.9163328281824 M615.695017183506,396.9163328281824 L613.7119670280808,398.06313772996936 M613.7119670280808,398.06313772996936 L611.7571996858751,398.81134343864215 M617.6508240984381,395.403057649677 L643.8011160863957,372.7275240190789 M643.8011160863957,372.7275240190789 L646.4802569392407,371.8662576838235 M646.4802569392407,371.8662576838235 L648.9490276711922,371.8215778738522 M648.9490276711922,371.8215778738522 L651.0747831537478,372.5957947966658 M651.0747831537478,372.5957947966658 L652.7433197670437,374.14723395463494 M652.7433197670437,374.14723395463494 L653.8650321160408,376.3924669768609 M653.8650321160408,376.3924669768609 L654.3796999541012,379.21083368108725 M654.3796999541012,379.21083368108725 L654.2597231844263,382.45084410971975 M654.2597231844263,382.45084410971975 L653.5115827459458,385.9384428539057 M653.5115827459458,385.9384428539057 L652.1754988692958,389.4862858695483 M652.1754988692958,389.4862858695483 L650.3232462099579,392.90378745974385 M650.3232462099579,392.90378745974385 L648.0543233867847,396.0073969601757 M648.0543233867847,396.0073969601757 L645.4906002139544,398.6303772708233 M645.4906002139544,398.6303772708233 L617.6086177071497,422.8120649242726 M617.6086177071497,422.8120649242726 L615.6531806051878,424.3254016530682 M615.6531806051878,424.3254016530682 L613.6705053005433,425.47242370116675 M613.6705053005433,425.47242370116675 L611.7161073542363,426.2209960807165 M611.7161073542363,426.2209960807165 L583.8435740090961,434.2904060192999 M820.0629420273754,572.0007793091241 L809.5932178893954,565.9626364328783 M645.4512749168691,694.6743956046557 L655.9186438520335,700.729796428522 M561.9979254894188,743.1458795843564 L572.465318242618,749.2093626941512 M575.1247564493672,400.32390518696616 L585.61649748788,406.3722036130176 M573.3537862300475,428.24081537059664 L583.8435740090961,434.2904060192999 M601.226912135178,420.17376406092785 L611.7161073542363,426.2209960807165 M607.1194241769656,416.7654024076078 L617.6086177071497,422.8120649242726 M635.0008301051378,392.5867443927678 L645.4906002139544,398.6303772708233 M633.3093917319384,366.68484770147717 L643.8011160863957,372.7275240190789 M607.1596406372341,389.3575400165591 L617.6508240984381,395.403057649677 M601.2660145348373,392.7652563023887 L611.7571996858751,398.81134343864215" stroke="black"  stroke-width="4"  fill="red"/>
<path d="M365.5644164436482,-11.398405236640372 L5.748507522077659,195.0974556686295 M5.748507522077659,195.0974556686295 L16.174032799636734,201.11784477340314 M375.990039079578,-5.41242501078159 L16.174032799636734,201.11784477340314 M365.5644164436482,-11.398405236640372 L375.990039079578,-5.41242501078159 M365.5644164436482,-11.398405236640372 L392.2288253511857,325.25850704121694 M-20.062942027375243,563.0275404165702 L5.748507522077659,195.0974556686295 M144.72895440028958,501.4330272919664 L-20.062942027375243,563.0275404165702 M144.72895440028958,501.4330272919664 L228.18230530544875,453.2831846891369 M392.2288253511857,325.25850704121694 L228.18230530544875,453.2831846891369 M156.88833842343206,159.21819550750513 L154.20653584624455,161.44661221675563 M154.20653584624455,161.44661221675563 L151.7350462335491,164.2496163402904 M151.7350462335491,164.2496163402904 L149.6067249307775,167.47653604693983 M149.6067249307775,167.47653604693983 L147.93599344448992,170.95390166174732 M147.93599344448992,170.95390166174732 L146.81265401768385,174.49478722373107 M146.81265401768385,174.49478722373107 L146.29707541087876,177.90887644096918 M146.29707541087876,177.90887644096918 L146.41693696333155,181.0126272750128 M146.41693696333155,181.0126272750128 L147.1657570336257,183.63925531877615 M147.1657570336257,183.63925531877615 L148.50323623858054,185.6476464777395 M148.50323623858054,185.6476464777395 L150.357455644627,186.92990440382547 M150.357455644627,186.92990440382547 L152.62872964560856,187.41721646627713 M152.62872964560856,187.41721646627713 L155.1949860374789,187.0834515990951 M183.05138303945927,151.7474811631293 L156.88833842343206,159.21819550750513 M188.945009251282,148.36242847158206 L186.99033272966358,149.86734072680994 M186.99033272966358,149.86734072680994 L185.00728196883125,151.0063282794721 M185.00728196883125,151.0063282794721 L183.05138303945927,151.7474811631293 M215.07297476577264,125.80287191011666 L188.945009251282,148.36242847158206 M216.84203103205436,151.66647253645593 L219.4023848597164,149.0555437460917 M219.4023848597164,149.0555437460917 L221.66601029075403,145.96393540507268 M221.66601029075403,145.96393540507268 L223.51132196828544,142.55774013681616 M223.51132196828544,142.55774013681616 L224.8391939138523,139.01990155477506 M224.8391939138523,139.01990155477506 L225.57829255923585,135.54046817206296 M225.57829255923585,135.54046817206296 L225.6888833650154,132.3063455120756 M225.6888833650154,132.3063455120756 L225.16498967851916,129.49127268440384 M225.16498967851916,129.49127268440384 L224.0347075669776,127.2465623946373 M224.0347075669776,127.2465623946373 L222.3587179131542,125.6928464253595 M222.3587179131542,125.6928464253595 L220.22702686316018,124.91367501636569 M220.22702686316018,124.91367501636569 L217.7541572648009,124.95098844854402 M217.7541572648009,124.95098844854402 L215.07297476577264,125.80287191011666 M188.98384796619303,175.72449604220398 L216.84203103205436,151.66647253645593 M183.0913358150624,179.11019407973612 L185.04686489792292,178.36867528726287 M185.04686489792292,178.36867528726287 L187.02954080762376,177.2294705954978 M187.02954080762376,177.2294705954978 L188.98384796619303,175.72449604220398 M155.1949860374789,187.0834515990951 L183.0913358150624,179.11019407973612 M16.174032799636734,201.11784477340314 L-9.662707878713093,569.065194587516 M-20.062942027375243,563.0275404165702 L-9.662707878713093,569.065194587516 M238.58023627009914,459.29841546201294 L402.62917056068386,331.2566374130976 M402.62917056068386,331.2566374130976 L375.990039079578,-5.41242501078159 M-9.662707878713093,569.065194587516 L155.12686293096206,507.4562600338215 M155.12686293096206,507.4562600338215 L238.58023627009914,459.29841546201294 M165.6149989837923,193.09280223679696 L163.048823550062,193.42676486260243 M163.048823550062,193.42676486260243 L160.77767729735743,192.93959499242305 M160.77767729735743,192.93959499242305 L158.92362556997858,191.65741604126447 M158.92362556997858,191.65741604126447 L157.58634497196934,189.6490363832278 M157.58634497196934,189.6490363832278 L156.83774376917145,187.0223517398734 M156.83774376917145,187.0223517398734 L156.7181095880694,183.91847924014846 M156.7181095880694,183.91847924014846 L157.23391185397332,180.50420982757282 M157.23391185397332,180.50420982757282 L158.35745920400888,176.96309522920464 M158.35745920400888,176.96309522920464 L160.02837170151463,173.48546405234347 M160.02837170151463,173.48546405234347 L162.1568373704962,170.25825653888438 M162.1568373704962,170.25825653888438 L164.62842694005604,167.45495784144248 M164.62842694005604,167.45495784144248 L167.3102796870876,165.22625562926967 M167.3102796870876,165.22625562926967 L193.47279025140995,157.75335515912883 M199.36641805462395,154.36773863659027 L197.4117136035724,155.87285392637673 M197.4117136035724,155.87285392637673 L195.42866230728166,157.01203119389638 M195.42866230728166,157.01203119389638 L193.47279025140995,157.75335515912883 M199.36641805462395,154.36773863659027 L225.49493174253715,131.8053659214852 M225.49493174253715,131.8053659214852 L228.1760655199745,130.95325489494337 M228.1760655199745,130.95325489494337 L230.6488364964847,130.91576297941447 M230.6488364964847,130.91576297941447 L232.78038433026586,131.69481456686844 M232.78038433026586,131.69481456686844 L234.4561938760272,133.24847580419794 M234.4561938760272,133.24847580419794 L235.5862686721309,135.49319938109318 M235.5862686721309,135.49319938109318 L236.1099389793292,138.30835279346604 M236.1099389793292,138.30835279346604 L235.99912073903158,141.54261899931618 M235.99912073903158,141.54261899931618 L235.25980282347592,145.02225117757945 M235.25980282347592,145.02225117757945 L233.93173155048245,148.56033312854518 M233.93173155048245,148.56033312854518 L232.08625119475414,151.9668032714926 M232.08625119475414,151.9668032714926 L229.82249679059115,155.05870323458 M229.82249679059115,155.05870323458 L227.26206062042505,157.6699247339124 M227.26206062042505,157.6699247339124 L199.40329321638995,181.73095105302127 M199.40329321638995,181.73095105302127 L197.44895813956086,183.23612862287206 M197.44895813956086,183.23612862287206 L195.4662816947046,184.37552302984912 M195.4662816947046,184.37552302984912 L193.51077947476887,185.11721292260017 M193.51077947476887,185.11721292260017 L165.6149989837923,193.09280223679696 M402.62917056068386,331.2566374130976 L392.2288253511857,325.25850704121694 M228.18230530544875,453.2831846891369 L238.58023627009914,459.29841546201294 M144.72895440028958,501.4330272919664 L155.12686293096206,507.4562600338215 M156.88833842343206,159.21819550750513 L167.3102796870876,165.22625562926967 M155.1949860374789,187.0834515990951 L165.6149989837923,193.09280223679696 M183.0913358150624,179.11019407973612 L193.51077947476887,185.11721292260017 M188.98384796619303,175.72449604220398 L199.40329321638995,181.73095105302127 M216.84203103205436,151.66647253645593 L227.26206062042505,157.6699247339124 M215.07297476577264,125.80287191011666 L225.49493174253715,131.8053659214852 M188.945009251282,148.36242847158206 L199.36641805462395,154.36773863659027 M183.05138303945927,151.7474811631293 L193.47279025140995,157.75335515912883" stroke="black"  stroke-width="4"  fill="red"/></svg>