<svg viewBox="0 0 800 800" xmlns="http://www.w3.org/2000/svg"><path d="M752.219443974866,201.4545722240979 L427.34366416309996,388.6863756317402 M427.34366416309996,388.6863756317402 L436.81787035726455,394.14519097320766 M761.6935629550364,206.88205294510334 L436.81787035726455,394.14519097320766 M752.219443974866,201.4545722240979 L761.6935629550364,206.88205294510334 M752.219443974866,201.4545722240979 L775.4052422177031,506.228586810031 M403.15030922573214,721.8167963892661 L427.34366416309996,388.6863756317402 M551.8566187960396,665.9219537924673 L403.15030922573214,721.8167963892661 M551.8566187960396,665.9219537924673 L627.2059595380663,622.2638662931366 M775.4052422177031,506.228586810031 L627.2059595380663,622.2638662931366 M563.6798174601959,356.0855293198198 L561.2566946453719,358.1051219987162 M561.2566946453719,358.1051219987162 L559.0217102836139,360.64476496740576 M559.0217102836139,360.64476496740576 L557.0950065253448,363.5679699253442 M557.0950065253448,363.5679699253442 L555.5801658532462,366.7175388819485 M555.5801658532462,366.7175388819485 L554.5586114352186,369.9242211776071 M554.5586114352186,369.9242211776071 L554.085242202997,373.0156082272257 M554.085242202997,373.0156082272257 L554.1854719421731,375.82555426559696 M554.1854719421731,375.82555426559696 L554.8538778007762,378.20305628143626 M554.8538778007762,378.20305628143626 L556.0544872942585,380.02032302488624 M556.0544872942585,380.02032302488624 L557.7227406810223,381.1798149736618 M557.7227406810223,381.1798149736618 L559.7689497478766,381.61924636323874 M559.7689497478766,381.61924636323874 L562.0831383807956,381.31508850945033 M587.2832611175818,349.3015623695641 L563.6798174601959,356.0855293198198 M592.6045809093366,346.23230052149984 L590.8387520555927,347.5963059482416 M590.8387520555927,347.5963059482416 L589.048267411446,348.6290375988907 M589.048267411446,348.6290375988907 L587.2832611175818,349.3015623695641 M616.2143800335159,325.7875163207576 L592.6045809093366,346.23230052149984 M617.7438776629799,349.2021458736116 L620.0584745295282,346.8363197942822 M620.0584745295282,346.8363197942822 L622.1067993052163,344.0355465896705 M622.1067993052163,344.0355465896705 L623.7788311812037,340.9502595373874 M623.7788311812037,340.9502595373874 L624.9847524984718,337.74622807517466 M624.9847524984718,337.74622807517466 L625.6597811101376,334.59547988155055 M625.6597811101376,334.59547988155055 L625.7676271637677,331.66732563245466 M625.7676271637677,331.66732563245466 L625.302464813102,329.1190741102314 M625.302464813102,329.1190741102314 L624.2892394101857,327.0876483074146 M624.2892394101857,327.0876483074146 L622.7823468537567,325.68227303495297 M622.7823468537567,325.68227303495297 L620.8627118340473,324.9784670821339 M620.8627118340473,324.9784670821339 L618.6334642989211,325.01416935706567 M618.6334642989211,325.01416935706567 L616.2143800335159,325.7875163207576 M592.5706264923847,371.00495273925907 L617.7438776629799,349.2021458736116 M587.2503137002966,374.0748005378597 L589.0149860642828,373.40195030971654 M589.0149860642828,373.40195030971654 L590.8051318803293,372.36902150467006 M590.8051318803293,372.36902150467006 L592.5706264923847,371.00495273925907 M562.0831383807956,381.31508850945033 L587.2503137002966,374.0748005378597 M436.81787035726455,394.14519097320766 L412.6013705237579,727.2912942932112 M403.15030922573214,721.8167963892661 L412.6013705237579,727.2912942932112 M636.6547908331902,627.7179403759137 L784.8562041105142,511.66709242597506 M784.8562041105142,511.66709242597506 L761.6935629550364,206.88205294510334 M412.6013705237579,727.2912942932112 L561.3054702355512,671.3833148507983 M561.3054702355512,671.3833148507983 L636.6547908331902,627.7179403759137 M571.5522239294439,386.7638427323417 L569.2381106820192,387.06818080456435 M569.2381106820192,387.06818080456435 L567.1920196978831,386.6288791056015 M567.1920196978831,386.6288791056015 L565.5239207527914,385.4694593398485 M565.5239207527914,385.4694593398485 L564.3234937639243,383.6522033838506 M564.3234937639243,383.6522033838506 L563.6552886764448,381.2746501687094 M563.6552886764448,381.2746501687094 L563.5552671857465,378.46459369169634 M563.5552671857465,378.46459369169634 L564.0288409545806,375.37304289762346 M564.0288409545806,375.37304289762346 L565.050585205156,372.1661523537885 M565.050585205156,372.1661523537885 L566.5655907979751,369.0163418452096 M566.5655907979751,369.0163418452096 L568.492425701276,366.09287501898257 M568.492425701276,366.09287501898257 L570.7275003751031,363.5529639507781 M570.7275003751031,363.5529639507781 L573.1506678121766,361.53311135470085 M573.1506678121766,361.53311135470085 L596.75360965914,354.7471527457131 M602.0749280216812,351.67737744271744 L600.3090745521085,353.04156772067404 M600.3090745521085,353.04156772067404 L598.5185903888523,354.0744721359101 M598.5185903888523,354.0744721359101 L596.75360965914,354.7471527457131 M602.0749280216812,351.67737744271744 L625.6852162746259,331.23002955431855 M625.6852162746259,331.23002955431855 L628.1042546174037,330.45647528049903 M628.1042546174037,330.45647528049903 L630.3334106418063,330.4206103137178 M630.3334106418063,330.4206103137178 L632.2529134839897,331.12430692666555 M632.2529134839897,331.12430692666555 L633.7596403088519,332.5296320744141 M633.7596403088519,332.5296320744141 L634.7726753335658,334.5610696528878 M634.7726753335658,334.5610696528878 L635.2376328964306,337.1093942091853 M635.2376328964306,337.1093942091853 L635.1295786510377,340.03767882264015 M635.1295786510377,340.03767882264015 L634.4543496297606,343.188607707282 M634.4543496297606,343.188607707282 L633.2482464547161,346.3928604806021 M633.2482464547161,346.3928604806021 L631.576061034443,349.4783975846291 M631.576061034443,349.4783975846291 L629.5276192757524,352.27943615346084 M629.5276192757524,352.27943615346084 L627.2129482666908,354.64552866057693 M627.2129482666908,354.64552866057693 L602.0391756952354,376.45106913846314 M602.0391756952354,376.45106913846314 L600.2736564766062,377.81532273885404 M600.2736564766062,377.81532273885404 L598.4835111411771,378.8484243087142 M598.4835111411771,378.8484243087142 L596.7188643315483,379.52143039267 M596.7188643315483,379.52143039267 L571.5522239294439,386.7638427323417 M784.8562041105142,511.66709242597506 L775.4052422177031,506.228586810031 M627.2059595380663,622.2638662931366 L636.6547908331902,627.7179403759137 M551.8566187960396,665.9219537924673 L561.3054702355512,671.3833148507983 M563.6798174601959,356.0855293198198 L573.1506678121766,361.53311135470085 M562.0831383807956,381.31508850945033 L571.5522239294439,386.7638427323417 M587.2503137002966,374.0748005378597 L596.7188643315483,379.52143039267 M592.5706264923847,371.00495273925907 L602.0391756952354,376.45106913846314 M617.7438776629799,349.2021458736116 L627.2129482666908,354.64552866057693 M616.2143800335159,325.7875163207576 L625.6852162746259,331.23002955431855 M592.6045809093366,346.23230052149984 L602.0749280216812,351.67737744271744 M587.2832611175818,349.3015623695641 L596.75360965914,354.7471527457131" stroke="black"  stroke-width="4"  fill="red"/>
<path d="M374.5484890728894,-14.903469183717732 L49.67294943503708,171.0813700693335 M49.67294943503708,171.0813700693335 L59.083964412925695,176.5037761144671 M383.95959813556783,-9.512085234679319 L59.083964412925695,176.5037761144671 M374.5484890728894,-14.903469183717732 L383.95959813556783,-9.512085234679319 M374.5484890728894,-14.903469183717732 L398.6540022092516,289.42909509285454 M26.399344711375704,503.5849703007003 L49.67294943503708,171.0813700693335 M175.19175558835744,448.21265556369184 L26.399344711375704,503.5849703007003 M175.19175558835744,448.21265556369184 L250.5410418970602,404.8445579118673 M398.6540022092516,289.42909509285454 L250.5410418970602,404.8445579118673 M186.14086267232088,138.9271590431702 L183.7195401922129,140.93640297037422 M183.7195401922129,140.93640297037422 L181.48816913908473,143.46536619875047 M181.48816913908473,143.46536619875047 L179.5666973447502,146.378134590869 M179.5666973447502,146.378134590869 L178.0584257464995,149.5180715063794 M178.0584257464995,149.5180715063794 L177.0444244496669,152.71644416906855 M177.0444244496669,152.71644416906855 L176.57918623700684,155.8012908990867 M176.57918623700684,155.8012908990867 L176.68768791822248,158.60681750647535 M176.68768791822248,158.60681750647535 L177.36406219006273,160.98225842319926 M177.36406219006273,160.98225842319926 L178.5719083580666,162.79993300321632 M178.5719083580666,162.79993300321632 L180.24627823412294,163.96227935046983 M180.24627823412294,163.96227935046983 L182.29715505175594,164.40685795271796 M182.29715505175594,164.40685795271796 L184.61431214960612,164.10986310829034 M209.76397272051068,132.22239208514839 L186.14086267232088,138.9271590431702 M215.08528865477666,129.17356326675235 L213.32045783646572,130.53020955483845 M213.32045783646572,130.53020955483845 L211.52997449025017,131.55606600814485 M211.52997449025017,131.55606600814485 L209.76397272051068,132.22239208514839 M238.6753871400338,108.83085983365999 L215.08528865477666,129.17356326675235 M240.27501107097316,132.21067786016192 L242.58663611125027,129.85546313951255 M242.58663611125027,129.85546313951255 L244.63029016135675,127.06526399352595 M244.63029016135675,127.06526399352595 L246.2962031199087,123.98994591798674 M246.2962031199087,123.98994591798674 L247.49488601206835,120.79474300044876 M247.49488601206835,120.79474300044876 L248.16194523198044,117.65120902394057 M248.16194523198044,117.65120902394057 L248.26151919008475,114.72826712252919 M248.26151919008475,114.72826712252919 L247.78822649984426,112.18294605365003 M247.78822649984426,112.18294605365003 L246.76744945263232,110.15201119758785 M246.76744945263232,110.15201119758785 L245.2539900165768,108.74466061882822 M245.2539900165768,108.74466061882822 L243.3291258262129,108.03651892251486 M243.3291258262129,108.03651892251486 L241.09626822429226,108.06575751189598 M241.09626822429226,108.06575751189598 L238.6753871400338,108.83085983365999 M215.12276034373795,153.904637829575 L240.27501107097316,132.21067786016192 M209.80245140696795,156.9540525518081 L211.56811887045058,156.28740168894583 M211.56811887045058,156.28740168894583 L213.3582633892961,155.26134809693414 M213.3582633892961,155.26134809693414 L215.12276034373795,153.904637829575 M184.61431214960612,164.10986310829034 L209.80245140696795,156.9540525518081 M59.083964412925695,176.5037761144671 L35.78750899374734,509.0230353036722 M26.399344711375704,503.5849703007003 L35.78750899374734,509.0230353036722 M259.92712951799723,410.26241496033043 L408.0422738146665,294.83152591726565 M408.0422738146665,294.83152591726565 L383.95959813556783,-9.512085234679319 M35.78750899374734,509.0230353036722 L184.57782152817782,453.63772710204927 M184.57782152817782,453.63772710204927 L259.92712951799723,410.26241496033043 M194.0203493553764,169.5223377007212 L191.70326535917118,169.81951053824758 M191.70326535917118,169.81951053824758 L189.65250392164467,169.3750596603055 M189.65250392164467,169.3750596603055 L187.97828551101716,168.21278389454235 M187.97828551101716,168.21278389454235 L186.77061875767126,166.3951189513935 M186.77061875767126,166.3951189513935 L186.09444221923144,164.019626197662 M186.09444221923144,164.019626197662 L185.98614596431037,161.21398906116232 M185.98614596431037,161.21398906116232 L186.4515862586384,158.12897904835904 M186.4515862586384,158.12897904835904 L187.4657754322989,154.93039912648834 M187.4657754322989,154.93039912648834 L188.97421059998342,151.7902221221212 M188.97421059998342,151.7902221221212 L190.8958128651302,148.87719372024236 M190.8958128651302,148.87719372024236 L193.12727426950283,146.34796454630344 M193.12727426950283,146.34796454630344 L195.5486421223278,144.3384630354523 M195.5486421223278,144.3384630354523 L219.17127010728302,137.63172711544598 M224.49258757955187,134.58238996113153 L222.7277314940347,135.93921940104133 M222.7277314940347,135.93921940104133 L220.93724763032435,136.96524689652097 M220.93724763032435,136.96524689652097 L219.17127010728302,137.63172711544598 M224.49258757955187,134.58238996113153 L248.0831817759727,114.23714556189054 M248.0831817759727,114.23714556189054 L250.50401888717144,113.47183825458262 M250.50401888717144,113.47183825458262 L252.73678742806487,113.44243911391709 M252.73678742806487,113.44243911391709 L254.66152225902223,114.15047331195001 M254.66152225902223,114.15047331195001 L256.17481899849076,115.55777520974692 M256.17481899849076,115.55777520974692 L257.1954087562683,117.58872280991056 M257.1954087562683,117.58872280991056 L257.6684996352504,120.1341173540643 M257.6684996352504,120.1341173540643 L257.5687201898028,123.05718951015734 M257.5687201898028,123.05718951015734 L256.90146284732657,126.20090352304459 M256.90146284732657,126.20090352304459 L255.7025998442055,129.3963265872464 M255.7025998442055,129.3963265872464 L254.03653445423683,132.471893102774 M254.03653445423683,132.471893102774 L251.9927638402772,135.2623556404224 M251.9927638402772,135.2623556404224 L249.68106436044448,137.61783456138255 M249.68106436044448,137.61783456138255 L224.52828521655536,159.31450391946666 M224.52828521655536,159.31450391946666 L222.76376300453208,160.67139732284193 M222.76376300453208,160.67139732284193 L220.973617968485,161.6976219575754 M220.973617968485,161.6976219575754 L219.20797474265405,162.36442697925006 M219.20797474265405,162.36442697925006 L194.0203493553764,169.5223377007212 M408.0422738146665,294.83152591726565 L398.6540022092516,289.42909509285454 M250.5410418970602,404.8445579118673 L259.92712951799723,410.26241496033043 M175.19175558835744,448.21265556369184 L184.57782152817782,453.63772710204927 M186.14086267232088,138.9271590431702 L195.5486421223278,144.3384630354523 M184.61431214960612,164.10986310829034 L194.0203493553764,169.5223377007212 M209.80245140696795,156.9540525518081 L219.20797474265405,162.36442697925006 M215.12276034373795,153.904637829575 L224.52828521655536,159.31450391946666 M240.27501107097316,132.21067786016192 L249.68106436044448,137.61783456138255 M238.6753871400338,108.83085983365999 L248.0831817759727,114.23714556189054 M215.08528865477666,129.17356326675235 L224.49258757955187,134.58238996113153 M209.76397272051068,132.22239208514839 L219.17127010728302,137.63172711544598" stroke="black"  stroke-width="4"  fill="red"/>
<path d="M390.4851924672798,729.3785052739179 L375.34622393045674,786.1171908604363 M365.90892756009123,780.643951753842 L375.34622393045674,786.1171908604363 M381.04442201600847,723.9087239292207 L365.90892756009123,780.643951753842 M390.4851924672798,729.3785052739179 L381.04442201600847,723.9087239292207 M390.4851924672798,729.3785052739179 L554.8644107109317,667.5878297391844 M554.8644107109317,667.5878297391844 L718.8386918034257,539.2147708387884 M733.7822134548142,578.3793368588842 L718.8386918034257,539.2147708387884 M733.7822134548142,578.3793368588842 L773.7159159918679,555.235060307882 M743.588181686797,476.14597779243985 L773.7159159918679,555.235060307882 M742.2799673038112,477.45324083715343 L743.588181686797,476.14597779243985 M554.9115958527402,624.08178988211 L742.2799673038112,477.45324083715343 M367.002465064858,694.632274669684 L554.9115958527402,624.08178988211 M365.6866949275266,694.8417084993716 L367.002465064858,694.632274669684 M335.1296310239703,809.4254214784999 L365.6866949275266,694.8417084993716 M335.1296310239703,809.4254214784999 L375.34622393045674,786.1171908604363 M365.90892756009123,780.643951753842 L325.69233839161114,803.94828901542 M335.1296310239703,809.4254214784999 L325.69233839161114,803.94828901542 M545.4260762410481,662.1325534597613 L381.04442201600847,723.9087239292207 M709.3979875637908,533.7767097047604 L545.4260762410481,662.1325534597613 M724.3449892847395,572.9407366912948 L709.3979875637908,533.7767097047604 M764.2787116129768,549.8003124910041 L724.3449892847395,572.9407366912948 M734.1439487677683,470.71232504450256 L764.2787116129768,549.8003124910041 M732.8357737217787,472.0194391328914 L734.1439487677683,470.71232504450256 M732.8357737217787,472.0194391328914 L545.4701083614182,618.62832238888 M545.4701083614182,618.62832238888 L357.55819579349344,689.1622330378382 M356.24238579173533,689.371562582154 L357.55819579349344,689.1622330378382 M325.69233839161114,803.94828901542 L356.24238579173533,689.371562582154 M554.8644107109317,667.5878297391844 L545.4260762410481,662.1325534597613 M709.3979875637908,533.7767097047604 L718.8386918034257,539.2147708387884 M733.7822134548142,578.3793368588842 L724.3449892847395,572.9407366912948 M764.2787116129768,549.8003124910041 L773.7159159918679,555.235060307882 M743.588181686797,476.14597779243985 L734.1439487677683,470.71232504450256 M732.8357737217787,472.0194391328914 L742.2799673038112,477.45324083715343 M554.9115958527402,624.08178988211 L545.4701083614182,618.62832238888 M367.002465064858,694.632274669684 L357.55819579349344,689.1622330378382 M365.6866949275266,694.8417084993716 L356.24238579173533,689.371562582154" stroke="black"  stroke-width="4"  fill="red"/>
<path d="M399.92754030264337,734.8492005213654 L384.78509673530345,791.5913442334172 M375.34622393045674,786.1171908604363 L384.78509673530345,791.5913442334172 M390.4851924672798,729.3785052739179 L375.34622393045674,786.1171908604363 M399.92754030264337,734.8492005213654 L390.4851924672798,729.3785052739179 M399.92754030264337,734.8492005213654 L564.3043194610002,673.0440159390364 M564.3043194610002,673.0440159390364 L728.2809688351379,544.6537379369533 M743.2210090503504,583.818842626958 L728.2809688351379,544.6537379369533 M743.2210090503504,583.818842626958 L783.1546912362103,560.6707127631719 M753.0339882303181,481.5805359107888 L783.1546912362103,560.6707127631719 M751.7257345153855,482.8879479433233 L753.0339882303181,481.5805359107888 M564.3546586756797,629.5361672976135 L751.7257345153855,482.8879479433233 M376.4483132178982,700.1032307765674 L564.3546586756797,629.5361672976135 M375.13258297671103,700.3127689235719 L376.4483132178982,700.1032307765674 M344.56850065085035,814.9034691837178 L375.13258297671103,700.3127689235719 M344.56850065085035,814.9034691837178 L384.78509673530345,791.5913442334172 M375.34622393045674,786.1171908604363 L335.1296310239703,809.4254214784999 M344.56850065085035,814.9034691837178 L335.1296310239703,809.4254214784999 M554.8644107109317,667.5878297391844 L390.4851924672798,729.3785052739179 M718.8386918034257,539.2147708387884 L554.8644107109317,667.5878297391844 M733.7822134548142,578.3793368588842 L718.8386918034257,539.2147708387884 M773.7159159918679,555.235060307882 L733.7822134548142,578.3793368588842 M743.588181686797,476.14597779243985 L773.7159159918679,555.235060307882 M742.2799673038112,477.45324083715343 L743.588181686797,476.14597779243985 M742.2799673038112,477.45324083715343 L554.9115958527402,624.08178988211 M554.9115958527402,624.08178988211 L367.002465064858,694.632274669684 M365.6866949275266,694.8417084993716 L367.002465064858,694.632274669684 M335.1296310239703,809.4254214784999 L365.6866949275266,694.8417084993716 M564.3043194610002,673.0440159390364 L554.8644107109317,667.5878297391844 M718.8386918034257,539.2147708387884 L728.2809688351379,544.6537379369533 M743.2210090503504,583.818842626958 L733.7822134548142,578.3793368588842 M773.7159159918679,555.235060307882 L783.1546912362103,560.6707127631719 M753.0339882303181,481.5805359107888 L743.588181686797,476.14597779243985 M742.2799673038112,477.45324083715343 L751.7257345153855,482.8879479433233 M564.3546586756797,629.5361672976135 L554.9115958527402,624.08178988211 M376.4483132178982,700.1032307765674 L367.002465064858,694.632274669684 M375.13258297671103,700.3127689235719 L365.6866949275266,694.8417084993716" stroke="black"  stroke-width="4"  fill="red"/>
<path d="M381.04442201600847,723.9087239292207 L365.90892756009123,780.643951753842 M356.4732072293072,775.171626684609 L365.90892756009123,780.643951753842 M371.60522855359955,718.439856258286 L356.4732072293072,775.171626684609 M381.04442201600847,723.9087239292207 L371.60522855359955,718.439856258286 M381.04442201600847,723.9087239292207 L545.4260762410481,662.1325534597613 M545.4260762410481,662.1325534597613 L709.3979875637908,533.7767097047604 M724.3449892847395,572.9407366912948 L709.3979875637908,533.7767097047604 M724.3449892847395,572.9407366912948 L764.2787116129768,549.8003124910041 M734.1439487677683,470.71232504450256 L764.2787116129768,549.8003124910041 M732.8357737217787,472.0194391328914 L734.1439487677683,470.71232504450256 M545.4701083614182,618.62832238888 L732.8357737217787,472.0194391328914 M357.55819579349344,689.1622330378382 L545.4701083614182,618.62832238888 M356.24238579173533,689.371562582154 L357.55819579349344,689.1622330378382 M325.69233839161114,803.94828901542 L356.24238579173533,689.371562582154 M325.69233839161114,803.94828901542 L365.90892756009123,780.643951753842 M356.4732072293072,775.171626684609 L316.2566223585923,798.4720715651263 M325.69233839161114,803.94828901542 L316.2566223585923,798.4720715651263 M535.9893156575718,656.6781868731673 L371.60522855359955,718.439856258286 M699.9588557232978,528.3395543085292 L535.9893156575718,656.6781868731673 M714.9093361477292,567.5030418980541 L699.9588557232978,528.3395543085292 M754.8430777074188,544.3664690867226 L714.9093361477292,567.5030418980541 M724.7012890800272,465.27957744075036 L754.8430777074188,544.3664690867226 M723.3931533760801,466.5865426043013 L724.7012890800272,465.27957744075036 M723.3931533760801,466.5865426043013 L536.0301958075404,613.1757645902469 M536.0301958075404,613.1757645902469 L348.11550500797046,683.6931056517665 M346.79965517348904,683.9023309426439 L348.11550500797046,683.6931056517665 M316.2566223585923,798.4720715651263 L346.79965517348904,683.9023309426439 M545.4260762410481,662.1325534597613 L535.9893156575718,656.6781868731673 M699.9588557232978,528.3395543085292 L709.3979875637908,533.7767097047604 M724.3449892847395,572.9407366912948 L714.9093361477292,567.5030418980541 M754.8430777074188,544.3664690867226 L764.2787116129768,549.8003124910041 M734.1439487677683,470.71232504450256 L724.7012890800272,465.27957744075036 M723.3931533760801,466.5865426043013 L732.8357737217787,472.0194391328914 M545.4701083614182,618.62832238888 L536.0301958075404,613.1757645902469 M357.55819579349344,689.1622330378382 L348.11550500797046,683.6931056517665 M356.24238579173533,689.371562582154 L346.79965517348904,683.9023309426439" stroke="black"  stroke-width="4"  fill="red"/>
<path d="M89.16076955102398,554.7975517727086 L74.13250239284935,611.4257691372277 M64.74544413620862,605.9816660456411 L74.13250239284935,611.4257691372277 M79.77026742735995,549.3568948264908 L64.74544413620862,605.9816660456411 M89.16076955102398,554.7975517727086 L79.77026742735995,549.3568948264908 M89.16076955102398,554.7975517727086 L253.6164075549602,493.4690706419983 M253.6164075549602,493.4690706419983 L417.51412249339637,365.64494092999723 M432.5683314540521,404.792078613577 L417.51412249339637,365.64494092999723 M432.5683314540521,404.792078613577 L472.50239105922066,381.7706018392826 M442.1511060504503,302.71692236735885 L472.50239105922066,381.7706018392826 M440.8441529336422,304.0194343799853 L442.1511060504503,302.71692236735885 M253.5632153759479,450.0209124432371 L440.8441529336422,304.0194343799853 M65.56681942251032,520.0432743342778 L253.5632153759479,450.0209124432371 M64.24978927806649,520.2493868134776 L65.56681942251032,520.0432743342778 M33.916305356183955,634.609894547563 L64.24978927806649,520.2493868134776 M33.916305356183955,634.609894547563 L74.13250239284935,611.4257691372277 M64.74544413620862,605.9816660456411 L24.529268611345174,629.1619291521711 M33.916305356183955,634.609894547563 L24.529268611345174,629.1619291521711 M244.22824285051928,488.0427920562082 L79.77026742735995,549.3568948264908 M408.1235408422808,360.23575155104646 L244.22824285051928,488.0427920562082 M423.1811864234641,399.3823386713564 L408.1235408422808,360.23575155104646 M463.11524804592506,376.36468362982396 L423.1811864234641,399.3823386713564 M432.7570222157527,297.31212243491416 L463.11524804592506,376.36468362982396 M431.45010859536313,298.6144864940834 L432.7570222157527,297.31212243491416 M431.45010859536313,298.6144864940834 L244.17193108856884,444.5964426626038 M244.17193108856884,444.5964426626038 L56.17286608398382,514.6023752691528 M54.85579708259826,514.8083844791008 L56.17286608398382,514.6023752691528 M24.529268611345174,629.1619291521711 L54.85579708259826,514.8083844791008 M253.6164075549602,493.4690706419983 L244.22824285051928,488.0427920562082 M408.1235408422808,360.23575155104646 L417.51412249339637,365.64494092999723 M432.5683314540521,404.792078613577 L423.1811864234641,399.3823386713564 M463.11524804592506,376.36468362982396 L472.50239105922066,381.7706018392826 M442.1511060504503,302.71692236735885 L432.7570222157527,297.31212243491416 M431.45010859536313,298.6144864940834 L440.8441529336422,304.0194343799853 M253.5632153759479,450.0209124432371 L244.17193108856884,444.5964426626038 M65.56681942251032,520.0432743342778 L56.17286608398382,514.6023752691528 M64.24978927806649,520.2493868134776 L54.85579708259826,514.8083844791008" stroke="black"  stroke-width="4"  fill="red"/>
<path d="M98.5528364766335,560.2391153318489 L83.5211245123271,616.8707792041703 M74.13250239284935,611.4257691372277 L83.5211245123271,616.8707792041703 M89.16076955102398,554.7975517727086 L74.13250239284935,611.4257691372277 M98.5528364766335,560.2391153318489 L89.16076955102398,554.7975517727086 M98.5528364766335,560.2391153318489 L263.0061340035574,498.8962519025004 M263.0061340035574,498.8962519025004 L426.9062644273086,371.0550290674538 M441.95703541791215,410.2027169571284 L426.9062644273086,371.0550290674538 M441.95703541791215,410.2027169571284 L481.8910924546301,387.1774174981819 M451.54675099180383,308.12262046819296 L481.8910924546301,387.1774174981819 M450.2397583834954,309.42528046546965 L451.54675099180383,308.12262046819296 M262.95606244637906,455.44628489800715 L450.2397583834954,309.42528046546965 M74.96233904137262,525.4850805758501 L262.95606244637906,455.44628489800715 M73.6453477851361,525.6912963558764 L74.96233904137262,525.4850805758501 M43.30490651498451,640.0587678836994 L73.6453477851361,525.6912963558764 M43.30490651498451,640.0587678836994 L83.5211245123271,616.8707792041703 M74.13250239284935,611.4257691372277 L33.916305356183955,634.609894547563 M43.30490651498451,640.0587678836994 L33.916305356183955,634.609894547563 M253.6164075549602,493.4690706419983 L89.16076955102398,554.7975517727086 M417.51412249339637,365.64494092999723 L253.6164075549602,493.4690706419983 M432.5683314540521,404.792078613577 L417.51412249339637,365.64494092999723 M472.50239105922066,381.7706018392826 L432.5683314540521,404.792078613577 M442.1511060504503,302.71692236735885 L472.50239105922066,381.7706018392826 M440.8441529336422,304.0194343799853 L442.1511060504503,302.71692236735885 M440.8441529336422,304.0194343799853 L253.5632153759479,450.0209124432371 M253.5632153759479,450.0209124432371 L65.56681942251032,520.0432743342778 M64.24978927806649,520.2493868134776 L65.56681942251032,520.0432743342778 M33.916305356183955,634.609894547563 L64.24978927806649,520.2493868134776 M263.0061340035574,498.8962519025004 L253.6164075549602,493.4690706419983 M417.51412249339637,365.64494092999723 L426.9062644273086,371.0550290674538 M441.95703541791215,410.2027169571284 L432.5683314540521,404.792078613577 M472.50239105922066,381.7706018392826 L481.8910924546301,387.1774174981819 M451.54675099180383,308.12262046819296 L442.1511060504503,302.71692236735885 M440.8441529336422,304.0194343799853 L450.2397583834954,309.42528046546965 M262.95606244637906,455.44628489800715 L253.5632153759479,450.0209124432371 M74.96233904137262,525.4850805758501 L65.56681942251032,520.0432743342778 M73.6453477851361,525.6912963558764 L64.24978927806649,520.2493868134776" stroke="black"  stroke-width="4"  fill="red"/>
<path d="M79.77026742735995,549.3568948264908 L64.74544413620862,605.9816660456411 M55.35994935169839,600.5384697028173 L64.74544413620862,605.9816660456411 M70.3813297146092,543.9171442666398 L55.35994935169839,600.5384697028173 M79.77026742735995,549.3568948264908 L70.3813297146092,543.9171442666398 M79.77026742735995,549.3568948264908 L244.22824285051928,488.0427920562082 M244.22824285051928,488.0427920562082 L408.1235408422808,360.23575155104646 M423.1811864234641,399.3823386713564 L408.1235408422808,360.23575155104646 M423.1811864234641,399.3823386713564 L463.11524804592506,376.36468362982396 M432.7570222157527,297.31212243491416 L463.11524804592506,376.36468362982396 M431.45010859536313,298.6144864940834 L432.7570222157527,297.31212243491416 M244.17193108856884,444.5964426626038 L431.45010859536313,298.6144864940834 M56.17286608398382,514.6023752691528 L244.17193108856884,444.5964426626038 M54.85579708259826,514.8083844791008 L56.17286608398382,514.6023752691528 M24.529268611345174,629.1619291521711 L54.85579708259826,514.8083844791008 M24.529268611345174,629.1619291521711 L64.74544413620862,605.9816660456411 M55.35994935169839,600.5384697028173 L15.143795889485887,623.7148714706083 M24.529268611345174,629.1619291521711 L15.143795889485887,623.7148714706083 M234.84163950063183,482.6174159199433 L70.3813297146092,543.9171442666398 M398.73451908518797,354.8274607066587 L234.84163950063183,482.6174159199433 M413.7955999379044,393.9734969067249 L398.73451908518797,354.8274607066587 M453.72966302677395,370.9596626463801 L413.7955999379044,393.9734969067249 M423.3644990986716,291.9082204470288 L453.72966302677395,370.9596626463801 M422.0576249796146,293.2104365839244 L423.3644990986716,291.9082204470288 M422.0576249796146,293.2104365839244 L234.78220919425016,439.17287533084584 M234.78220919425016,439.17287533084584 L46.780478634165775,509.16238315364785 M45.46337080708997,509.3682891259077 L46.780478634165775,509.16238315364785 M15.143795889485887,623.7148714706083 L45.46337080708997,509.3682891259077 M244.22824285051928,488.0427920562082 L234.84163950063183,482.6174159199433 M398.73451908518797,354.8274607066587 L408.1235408422808,360.23575155104646 M423.1811864234641,399.3823386713564 L413.7955999379044,393.9734969067249 M453.72966302677395,370.9596626463801 L463.11524804592506,376.36468362982396 M432.7570222157527,297.31212243491416 L423.3644990986716,291.9082204470288 M422.0576249796146,293.2104365839244 L431.45010859536313,298.6144864940834 M244.17193108856884,444.5964426626038 L234.78220919425016,439.17287533084584 M56.17286608398382,514.6023752691528 L46.780478634165775,509.16238315364785 M54.85579708259826,514.8083844791008 L45.46337080708997,509.3682891259077" stroke="black"  stroke-width="4"  fill="red"/></svg>