<svg viewBox="0 0 800 800" xmlns="http://www.w3.org/2000/svg"><path d="M755.8320867066866,203.2026345335318 L416.52828504013803,398.78240050603694 M416.52828504013803,398.78240050603694 L426.35714254991,404.4463028107614 M765.6608515472226,208.83380603684796 L426.35714254991,404.4463028107614 M755.8320867066866,203.2026345335318 L765.6608515472226,208.83380603684796 M755.8320867066866,203.2026345335318 L778.2089794068065,497.4642750283346 M393.16349199119105,720.4219285830816 L416.52828504013803,398.78240050603694 M585.9488612739017,647.9828631239388 L393.16349199119105,720.4219285830816 M778.2089794068065,497.4642750283346 L585.9488612739017,647.9828631239388 M559.1139009696485,356.7250698330198 L556.6000570914618,358.8203525285804 M556.6000570914618,358.8203525285804 L554.2813785229312,361.45515557407015 M554.2813785229312,361.45515557407015 L552.282506418491,364.48787646912825 M552.282506418491,364.48787646912825 L550.7109031416362,367.75542790360134 M550.7109031416362,367.75542790360134 L549.6510428680906,371.08221910590225 M549.6510428680906,371.08221910590225 L549.1598831107542,374.2893837852818 M549.1598831107542,374.2893837852818 L549.2637927794628,377.20455373838865 M549.2637927794628,377.20455373838865 L549.9571498955884,379.6710713518579 M549.9571498955884,379.6710713518579 L551.2026391341292,381.55636076969785 M551.2026391341292,381.55636076969785 L552.933287452629,382.7592314417625 M552.933287452629,382.7592314417625 L555.0560521750515,383.21506738229465 M555.0560521750515,383.21506738229465 L557.4568426032506,382.89946156278234 M583.6007273726025,349.6864675291947 L559.1139009696485,356.7250698330198 M589.1212415618245,346.5021353517698 L587.2893032853701,347.91726400430014 M587.2893032853701,347.91726400430014 L585.4317949471349,348.9887140102341 M585.4317949471349,348.9887140102341 L583.6007273726025,349.6864675291947 M613.6150039776198,325.2911476841644 L589.1212415618245,346.5021353517698 M615.2011453369958,349.58256621575686 L617.6024109830603,347.12808718825556 M617.6024109830603,347.12808718825556 L619.7274518916847,344.22237986990496 M619.7274518916847,344.22237986990496 L621.462126634055,341.02151368858 M621.462126634055,341.02151368858 L622.7132525223208,337.697468032532 M622.7132525223208,337.697468032532 L623.4136190207125,334.42871426228294 M623.4136190207125,334.42871426228294 L623.5255741017411,331.39090427790995 M623.5255741017411,331.39090427790995 L623.0430699702822,328.74723788006065 M623.0430699702822,328.74723788006065 L621.9919819613337,326.63976490749536 M621.9919819613337,326.63976490749536 L620.4287386553319,325.1817990450519 M620.4287386553319,325.1817990450519 L618.4372909458207,324.45168507574454 M618.4372909458207,324.45168507574454 L616.124626821967,324.48878006124676 M616.124626821967,324.48878006124676 L613.6150039776198,325.2911476841644 M589.0853944491082,372.20247065795184 L615.2011453369958,349.58256621575686 M583.5659249546584,375.3874107202469 L585.3966461025802,374.68931955508 M585.3966461025802,374.68931955508 L587.2538029293337,373.61766501451746 M587.2538029293337,373.61766501451746 L589.0853944491082,372.20247065795184 M557.4568426032506,382.89946156278234 L583.5659249546584,375.3874107202469 M426.35714254991,404.4463028107614 L402.97000086281616,726.1009738626303 M393.16349199119105,720.4219285830816 L402.97000086281616,726.1009738626303 M595.7524972693682,653.6448814011862 L788.0153836328686,503.1060924313232 M788.0153836328686,503.1060924313232 L765.6608515472226,208.83380603684796 M402.97000086281616,726.1009738626303 L595.7524972693682,653.6448814011862 M567.2809356770715,388.5524962034611 L564.8802234762218,388.8682890069704 M564.8802234762218,388.8682890069704 L562.7575812803182,388.41258762894176 M562.7575812803182,388.41258762894176 L561.0270932107078,387.20979185591796 M561.0270932107078,387.20979185591796 L559.7817933354743,385.32451363938577 M559.7817933354743,385.32451363938577 L559.0886445324804,382.8579429156368 M559.0886445324804,382.8579429156368 L558.9849509322751,379.94265839062103 M558.9849509322751,379.94265839062103 L559.4763229040957,376.7353238332982 M559.4763229040957,376.7353238332982 L560.5363801332837,373.40831657881586 M560.5363801332837,373.40831657881586 L562.108154516148,370.1405145375593 M562.108154516148,370.1405145375593 L564.107162680669,367.10752195544865 M564.107162680669,367.10752195544865 L566.4259349415845,364.47244075584615 M566.4259349415845,364.47244075584615 L568.9398251058146,362.37688839322834 M568.9398251058146,362.37688839322834 L593.4261307415886,355.3362196785627 M598.9466434221845,352.15135478130867 L597.114679614144,353.5666752194428 M597.114679614144,353.5666752194428 L595.2571717835194,354.6383044721142 M595.2571717835194,354.6383044721142 L593.4261307415886,355.3362196785627 M598.9466434221845,352.15135478130867 L623.4409132188509,330.9377072609245 M623.4409132188509,330.9377072609245 L625.95048840452,330.13512454732484 M625.95048840452,330.13512454732484 L628.2630575707294,330.0978607612245 M628.2630575707294,330.0978607612245 L630.2543681302936,330.82786128165094 M630.2543681302936,330.82786128165094 L631.8174394743833,332.28577513045116 M631.8174394743833,332.28577513045116 L632.8683299517147,334.39326031101496 M632.8683299517147,334.39326031101496 L633.3506216035428,337.0370024729749 M633.3506216035428,337.0370024729749 L633.2384505138771,340.07494770260246 M633.2384505138771,340.07494770260246 L632.5378760839551,343.3438889334054 M632.5378760839551,343.3438889334054 L631.2865615151634,346.6681641950837 M631.2865615151634,346.6681641950837 L629.5517274711551,349.8692898024319 M629.5517274711551,349.8692898024319 L627.4265651968349,352.77527243562577 M627.4265651968349,352.77527243562577 L625.0252226354696,355.2300278835759 M625.0252226354696,355.2300278835759 L598.9089308903572,377.8527684770472 M598.9089308903572,377.8527684770472 L597.0773138485947,379.2681546023704 M597.0773138485947,379.2681546023704 L595.2201575291633,380.33998838990243 M595.2201575291633,380.33998838990243 L593.3894629036758,381.03824125986324 M593.3894629036758,381.03824125986324 L567.2809356770715,388.5524962034611 M788.0153836328686,503.1060924313232 L778.2089794068065,497.4642750283346 M585.9488612739017,647.9828631239388 L595.7524972693682,653.6448814011862 M559.1139009696485,356.7250698330198 L568.9398251058146,362.37688839322834 M557.4568426032506,382.89946156278234 L567.2809356770715,388.5524962034611 M583.5659249546584,375.3874107202469 L593.3894629036758,381.03824125986324 M589.0853944491082,372.20247065795184 L598.9089308903572,377.8527684770472 M615.2011453369958,349.58256621575686 L625.0252226354696,355.2300278835759 M613.6150039776198,325.2911476841644 L623.4409132188509,330.9377072609245 M589.1212415618245,346.5021353517698 L598.9466434221845,352.15135478130867 M583.6007273726025,349.6864675291947 L593.4261307415886,355.3362196785627" stroke="black"  stroke-width="4"  fill="red"/>
<path d="M373.78707694437946,-15.681529129124556 L34.483366362973356,178.62811571225478 M34.483366362973356,178.62811571225478 L44.248299265850164,184.25518131159788 M383.5521018510899,-10.086875998646178 L44.248299265850164,184.25518131159788 M373.78707694437946,-15.681529129124556 L383.5521018510899,-10.086875998646178 M373.78707694437946,-15.681529129124556 L397.02999935227484,278.1645038023347 M11.984616367131252,499.67751050172836 L34.483366362973356,178.62811571225478 M204.87919787267566,427.89886570910426 L11.984616367131252,499.67751050172836 M397.02999935227484,278.1645038023347 L204.87919787267566,427.89886570910426 M177.18107233114884,137.03936701888694 L174.66904885602966,139.12418001324 M174.66904885602966,139.12418001324 L172.35402510780065,141.74817871436977 M172.35402510780065,141.74817871436977 L170.36044568984516,144.77034148401498 M170.36044568984516,144.77034148401498 L168.79548815259176,148.0281489005835 M168.79548815259176,148.0281489005835 L167.74326948870106,151.34653409655255 M167.74326948870106,151.34653409655255 L167.26033630382332,154.54708286954104 M167.26033630382332,154.54708286954104 L167.3726153966736,157.45778265461428 M167.3726153966736,157.45778265461428 L168.07403509957956,159.92221600757753 M168.07403509957956,159.92221600757753 L169.32684681683523,161.807918919038 M169.32684681683523,161.807918919038 L171.06368445364484,163.0136781557357 M171.06368445364484,163.0136781557357 L173.19117286856576,163.47472214396598 M173.19117286856576,163.47472214396598 L175.5949678133221,163.1663635637015 M201.68780785410746,130.08089441533912 L177.18107233114884,137.03936701888694 M207.2083206375441,126.91723450596345 L205.37739132365766,128.32491797735122 M205.37739132365766,128.32491797735122 L203.51988345842398,129.3894122882864 M203.51988345842398,129.3894122882864 L201.68780785410746,130.08089441533912 M231.68216144018248,105.80952041046385 L207.2083206375441,126.91723450596345 M233.3392558238388,130.06572835847453 L235.73751572443336,127.62198456932015 M235.73751572443336,127.62198456932015 L237.85783185242724,124.72697454595806 M237.85783185242724,124.72697454595806 L239.5863163879171,121.53619331719744 M239.5863163879171,121.53619331719744 L240.83011915661845,118.22107869305057 M240.83011915661845,118.22107869305057 L241.52242270993844,114.9596226372862 M241.52242270993844,114.9596226372862 L241.62600831063713,111.92708502270705 M241.62600831063713,111.92708502270705 L241.13527785574917,109.28638240044069 M241.13527785574917,109.28638240044069 L240.07654877789224,107.17940520470671 M240.07654877789224,107.17940520470671 L238.5066605353963,105.71944011004814 M238.5066605353963,105.71944011004814 L236.50992116132304,104.9849389971356 M236.50992116132304,104.9849389971356 L234.19360340260965,105.01549417910348 M234.19360340260965,105.01549417910348 L231.68216144018248,105.80952041046385 M207.2447409336867,152.57551404172136 L233.3392558238388,130.06572835847453 M201.7252728442424,155.73978178953578 L203.55700164061318,155.04796269543502 M203.55700164061318,155.04796269543502 L205.41415799462735,153.98326386547345 M205.41415799462735,153.98326386547345 L207.2447409336867,152.57551404172136 M175.5949678133221,163.1663635637015 L201.7252728442424,155.73978178953578 M44.248299265850164,184.25518131159788 L21.727477673692874,505.3196968533283 M11.984616367131252,499.67751050172836 L21.727477673692874,505.3196968533283 M214.61932738222384,433.524206279819 L406.77296463293493,283.76982353115585 M406.77296463293493,283.76982353115585 L383.5521018510899,-10.086875998646178 M21.727477673692874,505.3196968533283 L214.61932738222384,433.524206279819 M185.35527434608252,168.78269379578862 L182.9515553177095,169.09123710844275 M182.9515553177095,169.09123710844275 L180.82418669464707,168.63032569315232 M180.82418669464707,168.63032569315232 L179.08750629522453,167.4246397349749 M179.08750629522453,167.4246397349749 L177.83488081474434,165.53894686053863 M177.83488081474434,165.53894686053863 L177.13366635131993,163.0744597519165 M177.13366635131993,163.0744597519165 L177.02160047144287,160.16364530323116 M177.02160047144287,160.16364530323116 L177.50474338688596,156.96292711924127 M177.50474338688596,156.96292711924127 L178.55715702765397,153.64432687158103 M178.55715702765397,153.64432687158103 L180.12228430375558,150.3862703284468 M180.12228430375558,150.3862703284468 L182.11599909972014,147.3638377520624 M182.11599909972014,147.3638377520624 L184.4311165801035,144.73956307606932 M184.4311165801035,144.73956307606932 L186.94318710074162,142.65448277564235 M186.94318710074162,142.65448277564235 L211.4494218383855,135.69396672573998 M216.96993611577867,132.529779275843 L215.13898061112977,133.9376528134473 M215.13898061112977,133.9376528134473 L213.28147224322163,135.0023246284182 M213.28147224322163,135.0023246284182 L211.4494218383855,135.69396672573998 M216.96993611577867,132.529779275843 L241.4442909608351,111.41942831630047 M241.4442909608351,111.41942831630047 L243.9556872373258,110.62518934625837 M243.9556872373258,110.62518934625837 L246.27191251716226,110.59446752954324 M246.27191251716226,110.59446752954324 L248.2685175928132,111.32885705696287 M248.2685175928132,111.32885705696287 L249.83823694431942,112.78877159886736 M249.83823694431942,112.78877159886736 L250.89677161587676,114.89576198260488 M250.89677161587676,114.89576198260488 L251.38729260286772,117.53654081554373 M251.38729260286772,117.53654081554373 L251.28349372989445,120.56921356457616 M251.28349372989445,120.56921356457616 L250.59098455907,123.8308564187069 M250.59098455907,123.8308564187069 L249.3469948772233,127.14619947047174 M249.3469948772233,127.14619947047174 L247.6183521660135,130.33723849464025 M247.6183521660135,130.33723849464025 L245.49791509630492,133.23252183714828 M245.49791509630492,133.23252183714828 L243.0995779797222,135.67653979309955 M243.0995779797222,135.67653979309955 L217.0045151321926,158.1891371191627 M217.0045151321926,158.1891371191627 L215.1739060123432,159.59707699271735 M215.1739060123432,159.59707699271735 L213.31674915593948,160.66195332727295 M213.31674915593948,160.66195332727295 L211.48504554963833,161.35393240915863 M211.48504554963833,161.35393240915863 L185.35527434608252,168.78269379578862 M406.77296463293493,283.76982353115585 L397.02999935227484,278.1645038023347 M204.87919787267566,427.89886570910426 L214.61932738222384,433.524206279819 M177.18107233114884,137.03936701888694 L186.94318710074162,142.65448277564235 M175.5949678133221,163.1663635637015 L185.35527434608252,168.78269379578862 M201.7252728442424,155.73978178953578 L211.48504554963833,161.35393240915863 M207.2447409336867,152.57551404172136 L217.0045151321926,158.1891371191627 M233.3392558238388,130.06572835847453 L243.0995779797222,135.67653979309955 M231.68216144018248,105.80952041046385 L241.4442909608351,111.41942831630047 M207.2083206375441,126.91723450596345 L216.96993611577867,132.529779275843 M201.68780785410746,130.08089441533912 L211.4494218383855,135.69396672573998" stroke="black"  stroke-width="4"  fill="red"/>
<path d="M378.5284267660694,718.1248272299595 L360.4642080476167,785.8309838243963 M350.67582096813595,780.1553911307155 L360.4642080476167,785.8309838243963 M368.7358951922808,712.4533603892746 L350.67582096813595,780.1553911307155 M378.5284267660694,718.1248272299595 L368.7358951922808,712.4533603892746 M378.5284267660694,718.1248272299595 L533.6488806356274,659.8504748898495 M533.6488806356274,659.8504748898495 L688.4217947098771,538.71189166824 M706.2724832192769,585.4563522692381 L688.4217947098771,538.71189166824 M706.2724832192769,585.4563522692381 L747.7102617016717,561.4457076663798 M716.4284374296788,479.3960549991342 L747.7102617016717,561.4457076663798 M715.8892987837007,479.93472638959133 L716.4284374296788,479.3960549991342 M715.907446367444,472.15274311198147 L715.8892987837007,479.93472638959133 M533.6934779136234,614.7112798158194 L715.907446367444,472.15274311198147 M350.98456941357307,683.2670304558444 L533.6934779136234,614.7112798158194 M350.9873932788257,691.0611264303182 L350.98456941357307,683.2670304558444 M350.4453308136655,691.1473112389278 L350.9873932788257,691.0611264303182 M318.7514690008012,810.000951166887 L350.4453308136655,691.1473112389278 M318.7514690008012,810.000951166887 L360.4642080476167,785.8309838243963 M350.67582096813595,780.1553911307155 L308.9630857966627,804.3213220730554 M318.7514690008012,810.000951166887 L308.9630857966627,804.3213220730554 M523.8586460718836,654.1926883922492 L368.7358951922808,712.4533603892746 M678.6293198752894,533.0703500695806 L523.8586460718836,654.1926883922492 M696.4841593764356,579.8141670199705 L678.6293198752894,533.0703500695806 M737.9219568556596,555.8075189742574 L696.4841593764356,579.8141670199705 M706.6328453219751,473.7590023680629 L737.9219568556596,555.8075189742574 M706.0937228977743,474.297612379787 L706.6328453219751,473.7590023680629 M706.1113062862771,466.5159535506342 L706.0937228977743,474.297612379787 M706.1113062862771,466.5159535506342 L523.8999732405571,609.0553707005871 M523.8999732405571,609.0553707005871 L341.1883625086997,677.5950147846936 M341.1917505807172,685.388786316166 L341.1883625086997,677.5950147846936 M340.6496716964694,685.4749281874363 L341.1917505807172,685.388786316166 M308.9630857966627,804.3213220730554 L340.6496716964694,685.4749281874363 M533.6488806356274,659.8504748898495 L523.8586460718836,654.1926883922492 M678.6293198752894,533.0703500695806 L688.4217947098771,538.71189166824 M706.2724832192769,585.4563522692381 L696.4841593764356,579.8141670199705 M737.9219568556596,555.8075189742574 L747.7102617016717,561.4457076663798 M716.4284374296788,479.3960549991342 L706.6328453219751,473.7590023680629 M706.0937228977743,474.297612379787 L715.8892987837007,479.93472638959133 M706.1113062862771,466.5159535506342 L715.907446367444,472.15274311198147 M533.6934779136234,614.7112798158194 L523.8999732405571,609.0553707005871 M350.98456941357307,683.2670304558444 L341.1883625086997,677.5950147846936 M350.9873932788257,691.0611264303182 L341.1917505807172,685.388786316166 M350.4453308136655,691.1473112389278 L340.6496716964694,685.4749281874363" stroke="black"  stroke-width="4"  fill="red"/>
<path d="M388.3225941901299,723.7972414937392 L370.2542298447398,791.5075243751071 M360.4642080476167,785.8309838243963 L370.2542298447398,791.5075243751071 M378.5284267660694,718.1248272299595 L360.4642080476167,785.8309838243963 M388.3225941901299,723.7972414937392 L378.5284267660694,718.1248272299595 M388.3225941901299,723.7972414937392 L543.4407481217143,665.5092050549308 M543.4407481217143,665.5092050549308 L698.2159010632895,544.3543732010301 M716.0624369504237,591.0994770186596 L698.2159010632895,544.3543732010301 M716.0624369504237,591.0994770186596 L757.5001958553999,567.0848348605701 M726.2256617063247,485.03404689167417 L757.5001958553999,567.0848348605701 M725.6865068406469,485.57277967384283 L726.2256617063247,485.03404689167417 M725.705218807416,477.7904719476754 L725.6865068406469,485.57277967384283 M543.4886165995345,620.3681326001929 L725.705218807416,477.7904719476754 M360.7824137816833,688.9399942201942 L543.4886165995345,620.3681326001929 M360.78467325150393,696.7344146372611 L360.7824137816833,688.9399942201942 M360.24262721849226,696.8206423963604 L360.78467325150393,696.7344146372611 M328.54148750319797,815.6815291291246 L360.24262721849226,696.8206423963604 M328.54148750319797,815.6815291291246 L370.2542298447398,791.5075243751071 M360.4642080476167,785.8309838243963 L318.7514690008012,810.000951166887 M328.54148750319797,815.6815291291246 L318.7514690008012,810.000951166887 M533.6488806356276,659.8504748898495 L378.5284267660694,718.1248272299595 M688.4217947098771,538.71189166824 L533.6488806356276,659.8504748898495 M706.2724832192769,585.4563522692381 L688.4217947098771,538.71189166824 M747.7102617016717,561.4457076663798 L706.2724832192769,585.4563522692381 M716.4284374296788,479.3960549991342 L747.7102617016717,561.4457076663798 M715.8892987837007,479.93472638959133 L716.4284374296788,479.3960549991342 M715.907446367444,472.15274311198147 L715.8892987837007,479.93472638959133 M715.907446367444,472.15274311198147 L533.6934779136236,614.7112798158191 M533.6934779136236,614.7112798158191 L350.98456941357307,683.2670304558444 M350.9873932788257,691.0611264303182 L350.98456941357307,683.2670304558444 M350.4453308136655,691.1473112389278 L350.9873932788257,691.0611264303182 M318.7514690008012,810.000951166887 L350.4453308136655,691.1473112389278 M543.4407481217143,665.5092050549308 L533.6488806356276,659.8504748898495 M688.4217947098771,538.71189166824 L698.2159010632895,544.3543732010301 M716.0624369504237,591.0994770186596 L706.2724832192769,585.4563522692381 M747.7102617016717,561.4457076663798 L757.5001958553999,567.0848348605701 M726.2256617063247,485.03404689167417 L716.4284374296788,479.3960549991342 M715.8892987837007,479.93472638959133 L725.6865068406469,485.57277967384283 M715.907446367444,472.15274311198147 L725.705218807416,477.7904719476754 M543.4886165995345,620.3681326001929 L533.6934779136236,614.7112798158191 M360.7824137816833,688.9399942201942 L350.98456941357307,683.2670304558444 M360.78467325150393,696.7344146372611 L350.9873932788257,691.0611264303182 M360.24262721849226,696.8206423963604 L350.4453308136655,691.1473112389278" stroke="black"  stroke-width="4"  fill="red"/>
<path d="M368.7358951922808,712.4533603892746 L350.67582096813595,780.1553911307155 M340.88906819688907,774.4807460566781 L350.67582096813595,780.1553911307155 M358.9449990589615,706.7828407343429 L340.88906819688907,774.4807460566781 M368.7358951922808,712.4533603892746 L358.9449990589615,706.7828407343429 M368.7358951922808,712.4533603892746 L523.8586460718836,654.1926883922495 M523.8586460718836,654.1926883922495 L678.6293198752894,533.0703500695806 M696.4841593764356,579.8141670199705 L678.6293198752894,533.0703500695806 M696.4841593764356,579.8141670199705 L737.9219568556596,555.8075189742574 M706.6328453219751,473.7590023680629 L737.9219568556596,555.8075189742574 M706.0937228977743,474.297612379787 L706.6328453219751,473.7590023680629 M706.1113062862771,466.5159535506342 L706.0937228977743,474.297612379787 M523.8999732405568,609.0553707005872 L706.1113062862771,466.5159535506342 M341.1883625086997,677.5950147846936 L523.8999732405568,609.0553707005872 M341.1917505807172,685.388786316166 L341.1883625086997,677.5950147846936 M340.6496716964694,685.4749281874363 L341.1917505807172,685.388786316166 M308.9630857966627,804.3213220730554 L340.6496716964694,685.4749281874363 M308.9630857966627,804.3213220730554 L350.67582096813595,780.1553911307155 M340.88906819688907,774.4807460566781 L299.17633748108307,798.6426416099048 M308.9630857966627,804.3213220730554 L299.17633748108307,798.6426416099048 M514.0700440220514,648.5358453260958 L358.9449990589615,706.7828407343429 M668.8384761518889,527.4297481702076 L514.0700440220514,648.5358453260958 M686.6974650149041,574.1729210362562 L668.8384761518889,527.4297481702076 M728.1352809106565,550.1702685499345 L686.6974650149041,574.1729210362562 M696.8388849753808,468.1228887637655 L728.1352809106565,550.1702685499345 M696.2997787750337,468.66143740973087 L696.8388849753808,468.1228887637655 M696.3167981560105,460.8801030289212 L696.2997787750337,468.66143740973087 M696.3167981560105,460.8801030289212 L514.1081021714947,603.4004050183833 M514.1081021714947,603.4004050183833 L331.39379265660654,671.9239469690865 M331.39774474679257,679.7173940571629 L331.39379265660654,671.9239469690865 M330.8556494565122,679.8034930042397 L331.39774474679257,679.7173940571629 M299.17633748108307,798.6426416099048 L330.8556494565122,679.8034930042397 M523.8586460718836,654.1926883922495 L514.0700440220514,648.5358453260958 M668.8384761518889,527.4297481702076 L678.6293198752894,533.0703500695806 M696.4841593764356,579.8141670199705 L686.6974650149041,574.1729210362562 M728.1352809106565,550.1702685499345 L737.9219568556596,555.8075189742574 M706.6328453219751,473.7590023680629 L696.8388849753808,468.1228887637655 M696.2997787750337,468.66143740973087 L706.0937228977743,474.297612379787 M696.3167981560105,460.8801030289212 L706.1113062862771,466.5159535506342 M523.8999732405568,609.0553707005872 L514.1081021714947,603.4004050183833 M341.1883625086997,677.5950147846936 L331.39379265660654,671.9239469690865 M341.1917505807172,685.388786316166 L331.39774474679257,679.7173940571629 M340.6496716964694,685.4749281874363 L330.8556494565122,679.8034930042397" stroke="black"  stroke-width="4"  fill="red"/>
<path d="M91.95890264597017,552.1545118573501 L74.01578674064103,619.7398235663077 M64.27516981013184,614.0919294001043 L74.01578674064103,619.7398235663077 M82.21417427037966,546.5107308353342 L64.27516981013184,614.0919294001043 M91.95890264597017,552.1545118573501 L82.21417427037966,546.5107308353342 M91.95890264597017,552.1545118573501 L247.14552449591758,494.279894396566 M247.14552449591758,494.279894396566 L401.8521440472289,373.61628178049506 M419.82392009811247,420.34168264189805 L401.8521440472289,373.61628178049506 M419.82392009811247,420.34168264189805 L461.2620157639777,396.44785701380033 M429.76761609787474,314.43184259152883 L461.2620157639777,396.44785701380033 M429.2289541469802,314.96871891588074 L429.76761609787474,314.43184259152883 M429.2306297441749,307.19625269500955 L429.2289541469802,314.96871891588074 M247.09465001737215,449.1957695642918 L429.2306297441749,307.19625269500955 M64.30790311721921,517.2808932115067 L247.09465001737215,449.1957695642918 M64.32719894301204,525.0654720792556 L64.30790311721921,517.2808932115067 M63.784660254296114,525.150402837359 L64.32719894301204,525.0654720792556 M32.30340143017253,643.7918087052235 L63.784660254296114,525.150402837359 M32.30340143017253,643.7918087052235 L74.01578674064103,619.7398235663077 M64.27516981013184,614.0919294001043 L22.56280527755291,638.1399076562031 M32.30340143017253,643.7918087052235 L22.56280527755291,638.1399076562031 M237.4030078510357,488.6496841327394 L82.21417427037966,546.5107308353342 M392.1073463135703,368.00220743120184 L237.4030078510357,488.6496841327394 M410.0832258119374,414.7269520198338 L392.1073463135703,368.00220743120184 M451.5213235719994,390.8370938189217 L410.0832258119374,414.7269520198338 M420.0197200747265,308.8222375446341 L451.5213235719994,390.8370938189217 M419.4810744058006,309.3590528692075 L420.0197200747265,308.8222375446341 M419.4821912849551,301.58691108789964 L419.4810744058006,309.3590528692075 M419.4821912849551,301.58691108789964 L237.34889506996927,443.5674366965466 M237.34889506996927,443.5674366965466 L54.559546434307435,511.6365828768672 M54.57940096405332,519.4208372957332 L54.559546434307435,511.6365828768672 M54.03684623677634,519.5057255001286 L54.57940096405332,519.4208372957332 M22.56280527755291,638.1399076562031 L54.03684623677634,519.5057255001286 M247.14552449591758,494.279894396566 L237.4030078510357,488.6496841327394 M392.1073463135703,368.00220743120184 L401.8521440472289,373.61628178049506 M419.82392009811247,420.34168264189805 L410.0832258119374,414.7269520198338 M451.5213235719994,390.8370938189217 L461.2620157639777,396.44785701380033 M429.76761609787474,314.43184259152883 L420.0197200747265,308.8222375446341 M419.4810744058006,309.3590528692075 L429.2289541469802,314.96871891588074 M419.4821912849551,301.58691108789964 L429.2306297441749,307.19625269500955 M247.09465001737215,449.1957695642918 L237.34889506996927,443.5674366965466 M64.30790311721921,517.2808932115067 L54.559546434307435,511.6365828768672 M64.32719894301204,525.0654720792556 L54.57940096405332,519.4208372957332 M63.784660254296114,525.150402837359 L54.03684623677634,519.5057255001286" stroke="black"  stroke-width="4"  fill="red"/>
<path d="M101.70525490762174,557.7992333732394 L83.7580264360688,625.388658659003 M74.01578674064103,619.7398235663077 L83.7580264360688,625.388658659003 M91.95890264597017,552.1545118573501 L74.01578674064103,619.7398235663077 M101.70525490762174,557.7992333732394 L91.95890264597017,552.1545118573501 M101.70525490762174,557.7992333732394 L256.8896621388327,499.91104143680263 M256.8896621388327,499.91104143680263 L411.598561398551,379.2312892075419 M429.56623239013675,425.957345914831 L411.598561398551,379.2312892075419 M429.56623239013675,425.957345914831 L471.00432538963537,402.0595518711502 M439.5171323831122,320.042380047876 L471.00432538963537,402.0595518711502 M438.978454152277,320.57931738487 L439.5171323831122,320.042380047876 M438.9806886532465,312.8065267239441 L438.978454152277,320.57931738487 M256.84202704138477,454.8250392078075 L438.9806886532465,312.8065267239441 M74.0578852800856,522.9261447010103 L256.84202704138477,454.8250392078075 M74.07662221532598,530.7110480176343 L74.0578852800856,522.9261447010103 M73.5340995780615,530.7960213424569 L74.07662221532598,530.7110480176343 M42.04562091985099,649.4446516822613 L73.5340995780615,530.7960213424569 M42.04562091985099,649.4446516822613 L83.7580264360688,625.388658659003 M74.01578674064103,619.7398235663077 L32.30340143017253,643.7918087052235 M42.04562091985099,649.4446516822613 L32.30340143017253,643.7918087052235 M247.14552449591784,494.27989439656585 L91.95890264597017,552.1545118573501 M401.8521440472289,373.61628178049506 L247.14552449591784,494.27989439656585 M419.82392009811247,420.34168264189805 L401.8521440472289,373.61628178049506 M461.2620157639777,396.44785701380033 L419.82392009811247,420.34168264189805 M429.76761609787474,314.43184259152883 L461.2620157639777,396.44785701380033 M429.2289541469802,314.96871891588074 L429.76761609787474,314.43184259152883 M429.2306297441749,307.19625269500955 L429.2289541469802,314.96871891588074 M429.2306297441749,307.19625269500955 L247.09465001737243,449.1957695642917 M247.09465001737243,449.1957695642917 L64.30790311721921,517.2808932115067 M64.32719894301204,525.0654720792556 L64.30790311721921,517.2808932115067 M63.784660254296114,525.150402837359 L64.32719894301204,525.0654720792556 M32.30340143017253,643.7918087052235 L63.784660254296114,525.150402837359 M256.8896621388327,499.91104143680263 L247.14552449591784,494.27989439656585 M401.8521440472289,373.61628178049506 L411.598561398551,379.2312892075419 M429.56623239013675,425.957345914831 L419.82392009811247,420.34168264189805 M461.2620157639777,396.44785701380033 L471.00432538963537,402.0595518711502 M439.5171323831122,320.042380047876 L429.76761609787474,314.43184259152883 M429.2289541469802,314.96871891588074 L438.978454152277,320.57931738487 M429.2306297441749,307.19625269500955 L438.9806886532465,312.8065267239441 M256.84202704138477,454.8250392078075 L247.09465001737243,449.1957695642917 M74.0578852800856,522.9261447010103 L64.30790311721921,517.2808932115067 M74.07662221532598,530.7110480176343 L64.32719894301204,525.0654720792556 M73.5340995780615,530.7960213424569 L63.784660254296114,525.150402837359" stroke="black"  stroke-width="4"  fill="red"/>
<path d="M82.21417427037966,546.5107308353342 L64.27516981013184,614.0919294001043 M54.53617523911896,608.4449759253171 L64.27516981013184,614.0919294001043 M72.47106937503884,540.8678900721607 L54.53617523911896,608.4449759253171 M82.21417427037966,546.5107308353342 L72.47106937503884,540.8678900721607 M82.21417427037966,546.5107308353342 L237.40300785103554,488.6496841327396 M237.40300785103554,488.6496841327396 L392.1073463135703,368.00220743120184 M410.0832258119374,414.7269520198338 L392.1073463135703,368.00220743120184 M410.0832258119374,414.7269520198338 L451.5213235719994,390.8370938189217 M420.0197200747265,308.8222375446341 L451.5213235719994,390.8370938189217 M419.4810744058006,309.3590528692075 L420.0197200747265,308.8222375446341 M419.4821912849551,301.58691108789964 L419.4810744058006,309.3590528692075 M237.3488950699691,443.5674366965467 L419.4821912849551,301.58691108789964 M54.559546434307435,511.6365828768672 L237.3488950699691,443.5674366965467 M54.57940096405332,519.4208372957332 L54.559546434307435,511.6365828768672 M54.03684623677634,519.5057255001286 L54.57940096405332,519.4208372957332 M22.56280527755291,638.1399076562031 L54.03684623677634,519.5057255001286 M22.56280527755291,638.1399076562031 L64.27516981013184,614.0919294001043 M54.53617523911896,608.4449759253171 L12.823832056282981,632.488948299791 M22.56280527755291,638.1399076562031 L12.823832056282981,632.488948299791 M227.6621117997266,483.02041041158407 L72.47106937503884,540.8678900721607 M382.36416779389697,362.3890659270994 L227.6621117997266,483.02041041158407 M400.3441491285667,409.11315381631516 L382.36416779389697,362.3890659270994 M441.78224841094044,385.22726205451926 L400.3441491285667,409.11315381631516 M410.27344390979636,303.21356467477676 L441.78224841094044,385.22726205451926 M409.73481452486556,303.7503190124315 L410.27344390979636,303.21356467477676 M409.73537287164487,295.97850167018214 L409.73481452486556,303.7503190124315 M409.73537287164487,295.97850167018214 L227.60476179431163,437.94004037075524 M227.60476179431163,437.94004037075524 L44.81281482489345,505.99321346175236 M44.83322787206288,513.7771434317416 L44.81281482489345,505.99321346175236 M44.290657119109255,513.8619890954351 L44.83322787206288,513.7771434317416 M12.823832056282981,632.488948299791 L44.290657119109255,513.8619890954351 M237.40300785103554,488.6496841327396 L227.6621117997266,483.02041041158407 M382.36416779389697,362.3890659270994 L392.1073463135703,368.00220743120184 M410.0832258119374,414.7269520198338 L400.3441491285667,409.11315381631516 M441.78224841094044,385.22726205451926 L451.5213235719994,390.8370938189217 M420.0197200747265,308.8222375446341 L410.27344390979636,303.21356467477676 M409.73481452486556,303.7503190124315 L419.4810744058006,309.3590528692075 M409.73537287164487,295.97850167018214 L419.4821912849551,301.58691108789964 M237.3488950699691,443.5674366965467 L227.60476179431163,437.94004037075524 M54.559546434307435,511.6365828768672 L44.81281482489345,505.99321346175236 M54.57940096405332,519.4208372957332 L44.83322787206288,513.7771434317416 M54.03684623677634,519.5057255001286 L44.290657119109255,513.8619890954351" stroke="black"  stroke-width="4"  fill="red"/>
<path d="M30.94437009981698,498.01873490349595 L214.1807631664545,429.82415182692006 M214.1807631664545,429.82415182692006 L214.6100478963007,426.74074801792784 M214.6100478963007,426.74074801792784 L213.33487748093359,419.1992502551184 M214.59838458750818,418.2146756633186 L213.33487748093359,419.1992502551184 M32.61687821262808,485.92136336667653 L214.59838458750818,418.2146756633186 M30.94437009981698,498.01873490349595 L32.61687821262808,485.92136336667653 M214.1807631664545,429.82415182692006 L585.5211366602459,644.2781384039511 M585.5211366602459,644.2781384039511 L402.38594799477573,713.0840346093014 M402.38594799477573,713.0840346093014 L30.94437009981698,498.01873490349595 M585.5211366602459,644.2781384039511 L585.9581997080772,641.1886619957572 M214.6100478963007,426.74074801792784 L585.9581997080772,641.1886619957572 M585.9581997080772,641.1886619957572 L584.7057243225827,633.6386875552798 M213.33487748093359,419.1992502551184 L584.7057243225827,633.6386875552798 M585.9699371126446,632.6490839622443 L214.59838458750818,418.2146756633186 M584.7057243225827,633.6386875552798 L585.9699371126446,632.6490839622443 M404.08896279849273,700.9628124731553 L32.61687821262808,485.92136336667653 M585.9699371126446,632.6490839622443 L404.08896279849273,700.9628124731553 M402.38594799477573,713.0840346093014 L404.08896279849273,700.9628124731553" stroke="black"  stroke-width="4"  fill="red"/>
<path d="M397.609430658198,287.0509318731297 L395.9169843139029,276.9240368708538 M215.04708312321563,429.3254233570892 L213.33487748093359,419.1992502551184 M397.609430658198,287.0509318731297 L215.04708312321563,429.3254233570892 M395.9169843139029,276.9240368708538 L213.33487748093359,419.1992502551184 M586.3874566032578,643.7762417313147 L584.7057243225827,633.6386875552798 M215.04708312321563,429.3254233570892 L586.3874566032578,643.7762417313147 M213.33487748093359,419.1992502551184 L584.7057243225827,633.6386875552798 M769.0510084043319,500.77567285441563 L767.3890686486043,490.63733900927383 M586.3874566032578,643.7762417313147 L769.0510084043319,500.77567285441563 M584.7057243225827,633.6386875552798 L767.3890686486043,490.63733900927383 M769.0510084043319,500.77567285441563 L397.609430658198,287.0509318731297 M767.3890686486043,490.63733900927383 L395.9169843139029,276.9240368708538" stroke="black"  stroke-width="4"  fill="red"/>
<path d="M157.34286899381814,148.12665802351552 L147.6831385710539,151.6924008659213 M114.79117868259908,454.9413718821196 L105.14387555007801,458.53063679994153 M157.34286899381814,148.12665802351552 L114.79117868259908,454.9413718821196 M147.6831385710539,151.6924008659213 L105.14387555007801,458.53063679994153 M486.2192427492825,669.7079651314712 L476.57726074143,673.3294138128715 M114.79117868259908,454.9413718821196 L486.2192427492825,669.7079651314712 M105.14387555007801,458.53063679994153 L476.57726074143,673.3294138128715 M529.5450173614211,362.2868738054197 L519.8906528043601,365.88472219382516 M486.2192427492825,669.7079651314712 L529.5450173614211,362.2868738054197 M476.57726074143,673.3294138128715 L519.8906528043601,365.88472219382516 M529.5450173614211,362.2868738054197 L157.34286899381814,148.12665802351552 M519.8906528043601,365.88472219382516 L147.6831385710539,151.6924008659213" stroke="black"  stroke-width="4"  fill="red"/>
<path d="M266.39764422793576,83.45684366290124 L266.38650873323934,72.13240974422769 M57.25355233302088,203.29479875961928 L57.224932914051806,191.96019839494414 M266.39764422793576,83.45684366290124 L57.25355233302088,203.29479875961928 M266.38650873323934,72.13240974422769 L57.224932914051806,191.96019839494414 M429.46110525675107,417.8170263236119 L429.46357399138566,406.46431583806213 M57.25355233302088,203.29479875961928 L429.46110525675107,417.8170263236119 M57.224932914051806,191.96019839494414 L429.46357399138566,406.46431583806213 M638.6057864239319,297.21566683879115 L638.6257392303808,285.87312357437526 M429.46110525675107,417.8170263236119 L638.6057864239319,297.21566683879115 M429.46357399138566,406.46431583806213 L638.6257392303808,285.87312357437526 M638.6057864239319,297.21566683879115 L266.39764422793576,83.45684366290124 M638.6257392303808,285.87312357437526 L266.38650873323934,72.13240974422769" stroke="black"  stroke-width="4"  fill="red"/>
<path d="M370.69103263886524,23.697534738442585 L370.6885926026555,12.378183793386825 M266.39764422793576,83.45684366290124 L266.38650873323934,72.13240974422769 M370.69103263886524,23.697534738442585 L266.39764422793576,83.45684366290124 M370.6885926026555,12.378183793386825 L266.38650873323934,72.13240974422769 M638.6057864239319,297.21566683879115 L638.6257392303808,285.87312357437526 M266.39764422793576,83.45684366290124 L638.6057864239319,297.21566683879115 M266.38650873323934,72.13240974422769 L638.6257392303808,285.87312357437526 M742.8985841055389,237.0761829433197 L742.927232222446,225.73872316585073 M638.6057864239319,297.21566683879115 L742.8985841055389,237.0761829433197 M638.6257392303808,285.87312357437526 L742.927232222446,225.73872316585073 M742.8985841055389,237.0761829433197 L370.69103263886524,23.697534738442585 M742.927232222446,225.73872316585073 L370.6885926026555,12.378183793386825" stroke="black"  stroke-width="4"  fill="red"/>
<path d="M361.6692748028827,138.01142703861063 L371.3935880569339,131.4454203694621 M353.6915878723197,37.4128391839663 L363.42469322633804,30.848919202050865 M361.6692748028827,138.01142703861063 L353.6915878723197,37.4128391839663 M371.3935880569339,131.4454203694621 L363.42469322633804,30.848919202050865 M725.8883622085543,250.85979207152607 L735.6241005030968,244.2588250095388 M353.6915878723197,37.4128391839663 L725.8883622085543,250.85979207152607 M363.42469322633804,30.848919202050865 L735.6241005030968,244.2588250095388 M733.5772005302545,351.59732913717926 L743.3041385324082,344.9942894935105 M725.8883622085543,250.85979207152607 L733.5772005302545,351.59732913717926 M735.6241005030968,244.2588250095388 L743.3041385324082,344.9942894935105 M733.5772005302545,351.59732913717926 L361.6692748028827,138.01142703861063 M743.3041385324082,344.9942894935105 L371.3935880569339,131.4454203694621" stroke="black"  stroke-width="4"  fill="red"/>
<path d="M372.64618678147644,142.6944050411838 L371.7932161152837,131.9263870121518 M138.88121193512006,300.55814090971796 L138.00557992026853,289.78478169562226 M372.64618678147644,142.6944050411838 L138.88121193512006,300.55814090971796 M371.7932161152837,131.9263870121518 L138.00557992026853,289.78478169562226 M510.69451662264674,515.012700324489 L509.8497854504832,504.2245351729033 M138.88121193512006,300.55814090971796 L510.69451662264674,515.012700324489 M138.00557992026853,289.78478169562226 L509.8497854504832,504.2245351729033 M744.5238609932412,356.25779254046984 L743.7018125572893,345.4749318691314 M510.69451662264674,515.012700324489 L744.5238609932412,356.25779254046984 M509.8497854504832,504.2245351729033 L743.7018125572893,345.4749318691314 M744.5238609932412,356.25779254046984 L372.64618678147644,142.6944050411838 M743.7018125572893,345.4749318691314 L371.7932161152837,131.9263870121518" stroke="black"  stroke-width="4"  fill="red"/></svg>