<svg viewBox="0 0 800 800" xmlns="http://www.w3.org/2000/svg"><path d="M798.2132049716635,284.73336105131676 L482.38403336898006,467.4034693575275 M482.38403336898006,467.4034693575275 L491.6067545626318,472.7292796848153 M807.4358059722186,290.0286138288392 L491.6067545626318,472.7292796848153 M798.2132049716635,284.73336105131676 L807.4358059722186,290.0286138288392 M798.2132049716635,284.73336105131676 L820.574337949959,580.7324297703631 M458.6843654134501,791.0633866988073 L482.38403336898006,467.4034693575275 M603.2329762569908,736.4041163499228 L458.6843654134501,791.0633866988073 M603.2329762569908,736.4041163499228 L676.4843304637119,693.810747821801 M820.574337949959,580.7324297703631 L676.4843304637119,693.810747821801 M614.8977154803543,435.4018891445185 L612.5417167900237,437.3696459390405 M612.5417167900237,437.3696459390405 L610.3682634253714,439.84211603857364 M610.3682634253714,439.84211603857364 L608.4941899266217,442.68639488647085 M608.4941899266217,442.68639488647085 L607.0202492095889,445.7495822021081 M607.0202492095889,445.7495822021081 L606.0256661120656,448.86701596803505 M606.0256661120656,448.86701596803505 L605.5638900659502,451.87113946283716 M605.5638900659502,451.87113946283716 L605.6597126398349,454.6004504255136 M605.6597126398349,454.6004504255136 L606.3079488560568,456.9082855611072 M606.3079488560568,456.9082855611072 L607.4737115579212,458.6706580051476 M607.4737115579212,458.6706580051476 L609.0943148668334,459.79288857541746 M609.0943148668334,459.79288857541746 L611.0826322094993,460.2147533031497 M611.0826322094993,460.2147533031497 L613.3317989517155,459.9136316782825 M637.8400478341691,428.7543043959014 L614.8977154803543,435.4018891445185 M643.0131905760609,425.75983279982745 L641.2963381596862,427.08913620114924 M641.2963381596862,427.08913620114924 L639.555711204128,428.0967027342014 M639.555711204128,428.0967027342014 L637.8400478341691,428.7543043959014 M665.9694018108846,405.8421489606041 L643.0131905760609,425.75983279982745 M667.4426217707967,428.58323971685024 L669.6933478854909,426.2794389930478 M669.6933478854909,426.2794389930478 L671.6855480159646,423.55377100200747 M671.6855480159646,423.55377100200747 L673.3122158615796,420.5526684293586 M673.3122158615796,420.5526684293586 L674.4859707105487,417.4373175313625 M674.4859707105487,417.4373175313625 L675.1437582579506,414.3750710388459 M675.1437582579506,414.3750710388459 L675.2502157175824,411.5304242512221 M675.2502157175824,411.5304242512221 L674.7995927740035,409.0561933932037 M674.7995927740035,409.0561933932037 L673.8160548393561,407.0853708100821 M673.8160548393561,407.0853708100821 L672.3524040606167,405.7238697386146 M672.3524040606167,405.7238697386146 L670.4872427909644,405.0449047313816 M670.4872427909644,405.0449047313816 L668.3207745016716,405.085023182978 M668.3207745016716,405.085023182978 L665.9694018108846,405.8421489606041 M642.9662349257005,449.82389370667056 L667.4426217707967,428.58323971685024 M637.7940700485889,452.8189317761371 L639.5094092369104,452.1610081758328 M639.5094092369104,452.1610081758328 L641.2497071675584,451.1532510419059 M641.2497071675584,451.1532510419059 L642.9662349257005,449.82389370667056 M613.3317989517155,459.9136316782825 L637.7940700485889,452.8189317761371 M491.6067545626318,472.7292796848153 L467.8845537047658,796.4043775281043 M458.6843654134501,791.0633866988073 L467.8845537047658,796.4043775281043 M685.6823232069878,699.131811135853 L829.7743892299897,586.0383216320308 M829.7743892299897,586.0383216320308 L807.4358059722186,290.0286138288392 M467.8845537047658,796.4043775281043 L612.4309967521433,741.7322857643032 M612.4309967521433,741.7322857643032 L685.6823232069878,699.131811135853 M622.5495196557795,465.229605475678 L620.3004265648341,465.53090321443636 M620.3004265648341,465.53090321443636 L618.312224418317,465.1091655342266 M618.312224418317,465.1091655342266 L616.6917716646542,463.98700610907724 M616.6917716646542,463.98700610907724 L615.5261867942431,462.2246450732875 M615.5261867942431,462.2246450732875 L614.8781461337896,459.91676098846017 M614.8781461337896,459.91676098846017 L614.7825263354226,457.18734334314837 M614.7825263354226,457.18734334314837 L615.244501482101,454.1830611637378 M615.244501482101,454.1830611637378 L616.2392693017849,451.06542524325437 M616.2392693017849,451.06542524325437 L617.713370433483,448.00200317307093 M617.713370433483,448.00200317307093 L619.5875714138541,445.15746959487626 M619.5875714138541,445.15746959487626 L621.7611124708212,442.68473848821026 M621.7611124708212,442.68473848821026 L624.1171543462833,440.71672844308563 M624.1171543462833,440.71672844308563 L647.0589955388757,434.06719901407564 M652.2321363118604,431.0722266980595 L650.5152601194017,432.40171024337235 M650.5152601194017,432.40171024337235 L648.7746338263258,433.40944525600617 M648.7746338263258,433.40944525600617 L647.0589955388757,434.06719901407564 M652.2321363118604,431.0722266980595 L675.1888212372653,411.1520451747721 M675.1888212372653,411.1520451747721 L677.5401489514417,410.3947170088833 M677.5401489514417,410.3947170088833 L679.7065278970707,410.35443945808953 M679.7065278970707,410.35443945808953 L681.5715602626582,411.0332971949949 M681.5715602626582,411.0332971949949 L683.0350495096428,412.39474857956714 M683.0350495096428,412.39474857956714 L684.0184019703875,414.3655817188957 M684.0184019703875,414.3655817188957 L684.4688254673424,416.83988280226936 M684.4688254673424,416.83988280226936 L684.3621653103274,419.68465570531777 M684.3621653103274,419.68465570531777 L683.7041827052096,422.7470774282131 M683.7041827052096,422.7470774282131 L682.5302509159267,425.8626432607961 M682.5302509159267,425.8626432607961 L680.9034337513738,428.86398893143917 M680.9034337513738,428.86398893143917 L678.9111199398009,431.5899151316575 M678.9111199398009,431.5899151316575 L676.660321886248,433.8939753097089 M676.660321886248,433.8939753097089 L652.1834300987388,455.13729253006085 M652.1834300987388,455.13729253006085 L650.4668785739082,456.46682999299884 M650.4668785739082,456.46682999299884 L648.726581305366,457.47475560645023 M648.726581305366,457.47475560645023 L647.0112671894153,458.13283131930103 M647.0112671894153,458.13283131930103 L622.5495196557795,465.229605475678 M829.7743892299897,586.0383216320308 L820.574337949959,580.7324297703631 M676.4843304637119,693.810747821801 L685.6823232069878,699.131811135853 M603.2329762569908,736.4041163499228 L612.4309967521433,741.7322857643032 M614.8977154803543,435.4018891445185 L624.1171543462833,440.71672844308563 M613.3317989517155,459.9136316782825 L622.5495196557795,465.229605475678 M637.7940700485889,452.8189317761371 L647.0112671894153,458.13283131930103 M642.9662349257005,449.82389370667056 L652.1834300987388,455.13729253006085 M667.4426217707967,428.58323971685024 L676.660321886248,433.8939753097089 M665.9694018108846,405.8421489606041 L675.1888212372653,411.1520451747721 M643.0131905760609,425.75983279982745 L652.2321363118604,431.0722266980595 M637.8400478341691,428.7543043959014 L647.0589955388757,434.06719901407564" stroke="black"  stroke-width="4"  fill="red"/>
<path d="M308.5630790848383,3.595622471895581 L-7.266100646179666,184.64703709208763 M-7.266100646179666,184.64703709208763 L1.8747751144446738,189.9255844431556 M317.7040692904279,8.84401755832937 L1.8747751144446738,189.9255844431556 M308.5630790848383,3.595622471895581 L317.7040692904279,8.84401755832937 M308.5630790848383,3.595622471895581 L332.11559044876896,299.0264681142034 M-29.774389229989595,507.49813276774336 L-7.266100646179666,184.64703709208763 M114.88590074147646,453.51760259021967 L-29.774389229989595,507.49813276774336 M114.88590074147646,453.51760259021967 L188.13725807878134,411.3006650331754 M332.11559044876896,299.0264681142034 L188.13725807878134,411.3006650331754 M125.41839225352709,153.22593670819052 L123.06472329756298,155.18026919707566 M123.06472329756298,155.18026919707566 L120.89594829292389,157.63889490731495 M120.89594829292389,157.63889490731495 L119.02865008350528,160.4696536415301 M119.02865008350528,160.4696536415301 L117.56321719457213,163.5203722040017 M117.56321719457213,163.5203722040017 L116.57841699619564,166.6270590999937 M116.57841699619564,166.6270590999937 L116.12717307596631,169.62273547218433 M116.12717307596631,169.62273547218433 L116.23371080787399,172.34635323793918 M116.23371080787399,172.34635323793918 L116.89226951345688,174.65155496569025 M116.89226951345688,174.65155496569025 L118.0674075508689,176.4144949694197 M118.0674075508689,176.4144949694197 L119.69593546478876,177.5404631678712 M119.69593546478876,177.5404631678712 L121.6903012342512,177.9690341422829 M121.6903012342512,177.9690341422829 L123.94331543940984,177.67722653839124 M148.38622283495897,146.68126569588196 L125.41839225352709,153.22593670819052 M153.5593658045428,143.71331829595977 L151.8438044627188,145.03307403017976 M151.8438044627188,145.03307403017976 L150.10317743054122,146.03171584269612 M150.10317743054122,146.03171584269612 L148.38622283495897,146.68126569588196 M176.49008080806487,123.92804208427458 L153.5593658045428,143.71331829595977 M178.05414061034418,146.6243136201707 L180.30101945227625,144.3342718473584 M180.30101945227625,144.3342718473584 L182.28717132314796,141.62230546365527 M182.28717132314796,141.62230546365527 L183.90591469940705,138.6341113619742 M183.90591469940705,138.6341113619742 L185.07029431016295,135.53018272626866 M185.07029431016295,135.53018272626866 L185.71775942246185,132.47725897384947 M185.71775942246185,132.47725897384947 L185.81350173263354,129.63933472641463 M185.81350173263354,129.63933472641463 L185.35234662561442,127.16886506432132 M185.35234662561442,127.16886506432132 L184.35902570993406,125.19863993326078 M184.35902570993406,125.19863993326078 L182.88686698083959,123.83454011127463 M182.88686698083959,123.83454011127463 L181.01493026527874,123.14991925188394 M181.01493026527874,123.14991925188394 L178.8437834330191,123.18162815765214 M178.8437834330191,123.18162815765214 L176.49008080806487,123.92804208427458 M153.60493208527768,167.72378386729292 L178.05414061034418,146.6243136201707 M148.43276698064597,170.69229771548243 L150.14939688054204,170.04242679393275 M150.14939688054204,170.04242679393275 L151.88969488775152,169.0435943889688 M151.88969488775152,169.0435943889688 L153.60493208527768,167.72378386729292 M123.94331543940984,177.67722653839124 L148.43276698064597,170.69229771548243 M1.8747751144446738,189.9255844431556 L-20.655665682940707,512.7918308201688 M-29.774389229989595,507.49813276774336 L-20.655665682940707,512.7918308201688 M197.25398452833952,416.57471557974196 L341.2344445353084,304.2855315925263 M341.2344445353084,304.2855315925263 L317.7040692904279,8.84401755832937 M-20.655665682940707,512.7918308201688 L124.00260081169142,458.79866523840593 M124.00260081169142,458.79866523840593 L197.25398452833952,416.57471557974196 M133.07937560325496,182.94610568993875 L130.82643209381962,183.23808651927465 M130.82643209381962,183.23808651927465 L128.8321780231007,182.80964003835035 M128.8321780231007,182.80964003835035 L127.20379681302256,181.6837409027519 M127.20379681302256,181.6837409027519 L126.02883260851894,179.92081080881118 M126.02883260851894,179.92081080881118 L125.37046552787524,177.61555929782426 M125.37046552787524,177.61555929782426 L125.26412691961576,174.89183472482398 M125.26412691961576,174.89183472482398 L125.71556676378566,171.89600025955656 M125.71556676378566,171.89600025955656 L126.70054915379245,168.78911248488936 M126.70054915379245,168.78911248488936 L128.1661407090155,165.73816105946653 M128.1661407090155,165.73816105946653 L130.0335655278808,162.90715000049954 M130.0335655278808,162.90715000049954 L132.20242827578704,160.44826607320806 M132.20242827578704,160.44826607320806 L134.55614138825928,158.4936833582823 M134.55614138825928,158.4936833582823 L157.52350636401036,151.9470971162562 M162.69665120488182,148.97865563476947 L160.9810652438823,150.2985893100738 M160.9810652438823,150.2985893100738 L159.24043758206886,151.2973973685315 M159.24043758206886,151.2973973685315 L157.52350636401036,151.9470971162562 M162.69665120488182,148.97865563476947 L185.62784841939617,129.19091118712902 M185.62784841939617,129.19091118712902 L187.9815085907692,128.4442978883664 M187.9815085907692,128.4442978883664 L190.1525692495311,128.41243266248165 M190.1525692495311,128.41243266248165 L192.02438070785573,129.0969486443381 M192.02438070785573,129.0969486443381 L193.49638183262152,130.46100065747578 M193.49638183262152,130.46100065747578 L194.48952127133154,132.43123760727508 M194.48952127133154,132.43123760727508 L194.95048078340827,134.90177807402875 M194.95048078340827,134.90177807402875 L194.8545392753155,137.7398283019345 M194.8545392753155,137.7398283019345 L194.20688206460073,140.79292644280156 M194.20688206460073,140.79292644280156 L193.04232777377382,143.89706850940075 M193.04232777377382,143.89706850940075 L191.42343651839218,146.88550362432062 M191.42343651839218,146.88550362432062 L189.43717150855173,149.59772566328098 M189.43717150855173,149.59772566328098 L187.19022034309825,151.88802400434787 M187.19022034309825,151.88802400434787 L162.7404977941701,172.9901260871716 M162.7404977941701,172.9901260871716 L161.02523598733347,174.31011453419939 M161.02523598733347,174.31011453419939 L159.28493735084436,175.30911318546768 M159.28493735084436,175.30911318546768 L157.56833081930944,175.95913401800578 M157.56833081930944,175.95913401800578 L133.07937560325496,182.94610568993875 M341.2344445353084,304.2855315925263 L332.11559044876896,299.0264681142034 M188.13725807878134,411.3006650331754 L197.25398452833952,416.57471557974196 M114.88590074147646,453.51760259021967 L124.00260081169142,458.79866523840593 M125.41839225352709,153.22593670819052 L134.55614138825928,158.4936833582823 M123.94331543940984,177.67722653839124 L133.07937560325496,182.94610568993875 M148.43276698064597,170.69229771548243 L157.56833081930944,175.95913401800578 M153.60493208527768,167.72378386729292 L162.7404977941701,172.9901260871716 M178.05414061034418,146.6243136201707 L187.19022034309825,151.88802400434787 M176.49008080806487,123.92804208427458 L185.62784841939617,129.19091118712902 M153.5593658045428,143.71331829595977 L162.69665120488182,148.97865563476947 M148.38622283495897,146.68126569588196 L157.52350636401036,151.9470971162562" stroke="black"  stroke-width="4"  fill="red"/></svg>