<svg viewBox="0 0 800 800" xmlns="http://www.w3.org/2000/svg"><path d="M756.4059637378098,205.42137562871852 L418.49477367885345,400.2147429910697 M418.49477367885345,400.2147429910697 L428.28411196212824,405.85587224838605 M766.195207350876,211.0299043266044 L428.28411196212824,405.85587224838605 M756.4059637378098,205.42137562871852 L766.195207350876,211.0299043266044 M756.4059637378098,205.42137562871852 L778.6798840452838,498.4806126630367 M778.6798840452838,498.4806126630367 L587.2074586276093,648.3915028167578 M395.21474652960495,720.5417428242145 L418.49477367885345,400.2147429910697 M587.2074586276093,648.3915028167578 L395.21474652960495,720.5417428242145 M560.4937313622889,358.3240067989652 L557.9901817175426,360.4108243362839 M557.9901817175426,360.4108243362839 L555.6809727840634,363.0349521581312 M555.6809727840634,363.0349521581312 L553.6902366747414,366.05536148121234 M553.6902366747414,366.05536148121234 L552.1249983532387,369.30962705980687 M552.1249983532387,369.30962705980687 L551.0693898765535,372.62287207032904 M551.0693898765535,372.62287207032904 L550.5801402666547,375.8169585368318 M550.5801402666547,375.8169585368318 L550.6835158890343,378.72022114012594 M550.6835158890343,378.72022114012594 L551.373923619091,381.17664215371536 M551.373923619091,381.17664215371536 L552.6142068545963,383.0541884183943 M552.6142068545963,383.0541884183943 L554.3376724838442,384.25208499436496 M554.3376724838442,384.25208499436496 L556.451663981078,384.70598310049803 M556.451663981078,384.70598310049803 L558.8425621720769,384.391579485056 M584.8798000140376,351.3132633400588 L560.4937313622889,358.3240067989652 M558.8425621720769,384.391579485056 L584.8442116273602,376.90926205084793 M590.3776562422993,348.14173500546093 L588.5532238665323,349.5511511998964 M588.5532238665323,349.5511511998964 L586.7033393383194,350.6182930251945 M586.7033393383194,350.6182930251945 L584.8798000140376,351.3132633400588 M584.8442116273602,376.90926205084793 L586.6674059518913,376.21395546692213 M586.6674059518913,376.21395546692213 L588.5169404114328,375.14660994632715 M588.5169404114328,375.14660994632715 L590.3410274488933,373.7371283259051 M614.7711443615389,327.0164767913094 L590.3776562422993,348.14173500546093 M590.3410274488933,373.7371283259051 L616.3498637680461,351.20864801168364 M616.3498637680461,351.20864801168364 L618.7413124730216,348.7641049879515 M618.7413124730216,348.7641049879515 L620.8576922500259,345.87018614810074 M620.8576922500259,345.87018614810074 L622.5853268841627,342.68232774290516 M622.5853268841627,342.68232774290516 L623.8314118659313,339.37181026206156 M623.8314118659313,339.37181026206156 L624.529007461277,336.11637872320364 M624.529007461277,336.11637872320364 L624.6406106100319,333.09096913259685 M624.6406106100319,333.09096913259685 L624.1601925595829,330.4581151064752 M624.1601925595829,330.4581151064752 L623.113516762179,328.3592855137779 M623.113516762179,328.3592855137779 L621.5567749163334,326.9073293104234 M621.5567749163334,326.9073293104234 L619.5735687638389,326.1802683505992 M619.5735687638389,326.1802683505992 L617.2704435206791,326.2172951383059 M617.2704435206791,326.2172951383059 L614.7711443615389,327.0164767913094 M522.4031198197717,425.18183980757203 L513.7655591403546,486.45737540457304 M512.7909190842435,428.77008483313915 L522.4031198197717,425.18183980757203 M512.7909190842435,428.77008483313915 L504.15582575634585,490.05032430526944 M513.7655591403546,486.45737540457304 L504.15582575634585,490.05032430526944 M733.2139312162938,530.2341869797485 L696.8496157994149,558.7041772739849 M731.555291311851,520.1374587506976 L733.2139312162938,530.2341869797485 M696.8496157994149,558.7041772739849 L695.1870361194052,548.6076036400962 M731.555291311851,520.1374587506976 L695.1870361194052,548.6076036400962 M660.4665944665487,587.1888109143113 L624.0648589613646,615.6880965147559 M658.8000649948431,577.092397396586 L660.4665944665487,587.1888109143113 M624.0648589613646,615.6880965147559 L622.3943851304716,605.591838986664 M658.8000649948431,577.092397396586 L622.3943851304716,605.591838986664 M505.13392815473094,547.6908048700861 L496.50823315333065,608.8821644267939 M495.5266672146709,551.288432412364 L505.13392815473094,547.6908048700861 M495.5266672146709,551.288432412364 L486.90343731637694,612.4844884038741 M496.50823315333065,608.8821644267939 L486.90343731637694,612.4844884038741 M513.9092163475748,672.0843081316066 L550.3588166848416,658.3880827819276 M515.6111858029187,660.0230510664862 L513.9092163475748,672.0843081316066 M550.3588166848416,658.3880827819276 L552.0626261058386,646.3303327913984 M515.6111858029187,660.0230510664862 L552.0626261058386,646.3303327913984 M440.9295558228457,699.5069914408971 L477.4328038569943,685.7906088068589 M442.62782342624513,687.4387216546183 L440.9295558228457,699.5069914408971 M477.4328038569943,685.7906088068589 L479.1329208774684,673.7258479002915 M442.62782342624513,687.4387216546183 L479.1329208774684,673.7258479002915 M428.28411196212824,405.85587224838605 L404.98182433451666,726.1979531870545 M395.21474652960495,720.5417428242145 L404.98182433451666,726.1979531870545 M596.9716735291919,654.0307537295107 L788.4468549440888,504.0997432965583 M788.4468549440888,504.0997432965583 L766.195207350876,211.0299043266044 M404.98182433451666,726.1979531870545 L596.9716735291919,654.0307537295107 M568.6271537951495,390.0218839797804 L566.2363335402077,390.3364738407592 M566.2363335402077,390.3364738407592 L564.1224641018335,389.88270977045966 M564.1224641018335,389.88270977045966 L562.3991581025507,388.68488780699556 M562.3991581025507,388.68488780699556 L561.1590634934082,386.8073527126608 M561.1590634934082,386.8073527126608 L560.4688632610757,384.3508788151101 M560.4688632610757,384.3508788151101 L560.3657028571461,381.4475021113616 M560.3657028571461,381.4475021113616 L560.8551638425039,378.25324645817545 M560.8551638425039,378.25324645817545 L561.910968491923,374.9397862693784 M561.910968491923,374.9397862693784 L563.4763772347433,371.68527109355375 M563.4763772347433,371.68527109355375 L565.467248854469,368.66459117434016 M565.467248854469,368.66459117434016 L567.7765510952503,366.0401863119902 M567.7765510952503,366.0401863119902 L570.280146826261,363.95310018404496 M570.280146826261,363.95310018404496 L594.665696590707,356.9402984999633 M600.1635512778167,353.76823956535145 L598.3390934837604,355.1778467803589 M598.3390934837604,355.1778467803589 L596.4892094741022,356.2451671391302 M596.4892094741022,356.2451671391302 L594.665696590707,356.9402984999633 M600.1635512778167,353.76823956535145 L624.5575446094322,332.6403321196157 M624.5575446094322,332.6403321196157 L627.0567962800762,331.8409362284624 M627.0567962800762,331.8409362284624 L629.3598269233917,331.80374130508824 M629.3598269233917,331.80374130508824 L631.3428964521147,332.5306892576657 M631.3428964521147,332.5306892576657 L632.8994670022836,333.9825936420341 M632.8994670022836,333.9825936420341 L633.9459460385586,336.0814353799841 M633.9459460385586,336.0814353799841 L634.4261524426847,338.7143648534767 M634.4261524426847,338.7143648534767 L634.3143341366367,341.7399091356393 M634.3143341366367,341.7399091356393 L633.6165314333973,344.99552737413933 M633.6165314333973,344.99552737413933 L632.3702585227707,348.3062735333643 M632.3702585227707,348.3062735333643 L630.6424652263468,351.49439032076975 M630.6424652263468,351.49439032076975 L628.5259645763373,354.3885833711407 M628.5259645763373,354.3885833711407 L626.1344392756447,356.8334017097869 M626.1344392756447,356.8334017097869 L600.1250644108247,379.3647068500522 M600.1250644108247,379.3647068500522 L598.3009519646288,380.7743794742634 M598.3009519646288,380.7743794742634 L596.4514180233471,381.8419035285587 M596.4514180233471,381.8419035285587 L594.6282501295672,382.53737117568545 M594.6282501295672,382.53737117568545 L568.6271537951495,390.0218839797804 M788.4468549440888,504.0997432965583 L778.6798840452838,498.4806126630367 M587.2074586276093,648.3915028167578 L596.9716735291919,654.0307537295107 M560.4937313622889,358.3240067989652 L570.280146826261,363.95310018404496 M558.8425621720769,384.391579485056 L568.6271537951495,390.0218839797804 M584.8798000140376,351.3132633400588 L594.665696590707,356.9402984999633 M584.8442116273602,376.90926205084793 L594.6282501295672,382.53737117568545 M590.3776562422993,348.14173500546093 L600.1635512778167,353.76823956535145 M590.3410274488933,373.7371283259051 L600.1250644108247,379.3647068500522 M614.7711443615389,327.0164767913094 L624.5575446094322,332.6403321196157 M616.3498637680461,351.20864801168364 L626.1344392756447,356.8334017097869 M527.2944973259911,427.9990472052094 L522.4031198197717,425.18183980757203 M518.6548940601248,489.2761768932725 L527.2944973259911,427.9990472052094 M513.7655591403546,486.45737540457304 L518.6548940601248,489.2761768932725 M517.6823685796045,431.5877154361773 L512.7909190842435,428.77008483313915 M527.2944973259911,427.9990472052094 L517.6823685796045,431.5877154361773 M509.0452325457745,492.8695492050808 L517.6823685796045,431.5877154361773 M504.15582575634585,490.05032430526944 L509.0452325457745,492.8695492050808 M518.6548940601248,489.2761768932725 L509.0452325457745,492.8695492050808 M738.097027628942,533.0459426380054 L733.2139312162938,530.2341869797485 M701.7324511422173,561.5178428713043 L738.097027628942,533.0459426380054 M696.8496157994149,558.7041772739849 L701.7324511422173,561.5178428713043 M736.4387902579113,522.9490650642509 L731.555291311851,520.1374587506976 M738.097027628942,533.0459426380054 L736.4387902579113,522.9490650642509 M701.7324511422173,561.5178428713043 L700.0702739095998,551.4211200453126 M695.1870361194052,548.6076036400962 L700.0702739095998,551.4211200453126 M700.0702739095998,551.4211200453126 L736.4387902579113,522.9490650642509 M665.3491678253215,590.004388043804 L660.4665944665487,587.1888109143113 M628.9471694205829,618.5055867709539 L665.3491678253215,590.004388043804 M624.0648589613646,615.6880965147559 L628.9471694205829,618.5055867709539 M663.6830407146806,579.907825487179 L658.8000649948431,577.092397396586 M665.3491678253215,590.004388043804 L663.6830407146806,579.907825487179 M628.9471694205829,618.5055867709539 L627.2770978641414,608.4091803570077 M622.3943851304716,605.591838986664 L627.2770978641414,608.4091803570077 M627.2770978641414,608.4091803570077 L663.6830407146806,579.907825487179 M510.0212221399636,550.5111975942295 L505.13392815473094,547.6908048700861 M501.39348785397857,611.7041455349198 L510.0212221399636,550.5111975942295 M496.50823315333065,608.8821644267939 L501.39348785397857,611.7041455349198 M500.4140329507936,554.1092487520073 L495.5266672146709,551.288432412364 M510.0212221399636,550.5111975942295 L500.4140329507936,554.1092487520073 M491.7887636485617,615.3068933319148 L500.4140329507936,554.1092487520073 M486.90343731637694,612.4844884038741 L491.7887636485617,615.3068933319148 M501.39348785397857,611.7041455349198 L491.7887636485617,615.3068933319148 M518.7918099007887,674.9069716521078 L513.9092163475748,672.0843081316066 M555.2411373008614,661.2091370910343 L518.7918099007887,674.9069716521078 M550.3588166848416,658.3880827819276 L555.2411373008614,661.2091370910343 M520.4941812565064,662.845402107773 L515.6111858029187,660.0230510664862 M518.7918099007887,674.9069716521078 L520.4941812565064,662.845402107773 M555.2411373008614,661.2091370910343 L556.945348532976,649.1510747736527 M552.0626261058386,646.3303327913984 L556.945348532976,649.1510747736527 M556.945348532976,649.1510747736527 L520.4941812565064,662.845402107773 M445.81269249015,702.3328782001508 L440.9295558228457,699.5069914408971 M482.31566942804284,688.614883143437 L445.81269249015,702.3328782001508 M477.4328038569943,685.7906088068589 L482.31566942804284,688.614883143437 M447.511362172051,690.264295630285 L442.62782342624513,687.4387216546183 M445.81269249015,702.3328782001508 L447.511362172051,690.264295630285 M482.31566942804284,688.614883143437 L484.0161884380278,676.5498096056554 M479.1329208774684,673.7258479002915 L484.0161884380278,676.5498096056554 M484.0161884380278,676.5498096056554 L447.511362172051,690.264295630285" stroke="black"  stroke-width="4"  fill="red"/>
<path d="M375.8972007391115,-12.582629729446126 L37.986009445420905,180.94567081590748 M37.986009445420905,180.94567081590748 L47.711677491215596,186.55010994881746 M385.6229580759295,-7.010474076948981 L47.711677491215596,186.55010994881746 M375.8972007391115,-12.582629729446126 L385.6229580759295,-7.010474076948981 M375.8972007391115,-12.582629729446126 L399.0337462693028,280.06271577586733 M399.0337462693028,280.06271577586733 L207.67015522211648,429.19250871163155 M15.56860888675692,500.6849483111396 L37.986009445420905,180.94567081590748 M207.67015522211648,429.19250871163155 L15.56860888675692,500.6849483111396 M180.09665450617294,139.5216601259205 L177.59491741509814,141.5980497560834 M177.59491741509814,141.5980497560834 L175.28934828207508,144.21141649154126 M175.28934828207508,144.21141649154126 L173.30388347668708,147.22131008548865 M173.30388347668708,147.22131008548865 L171.74526430015578,150.465870900415 M171.74526430015578,150.465870900415 L170.69726705577318,153.770743906249 M170.69726705577318,153.770743906249 L170.21621149169604,156.9582413867557 M170.21621149169604,156.9582413867557 L170.3279236103111,159.8570522140537 M170.3279236103111,159.8570522140537 L171.02636236715693,162.31139784264488 M171.02636236715693,162.31139784264488 L172.2739395852526,164.18935648357152 M172.2739395852526,164.18935648357152 L174.0035706301097,165.39013057581616 M174.0035706301097,165.39013057581616 L176.1222677944995,165.84921634545088 M176.1222677944995,165.84921634545088 L178.51615932157182,165.5420313463162 M204.50256051597142,132.59072893416567 L180.09665450617294,139.5216601259205 M178.51615932157182,165.5420313463162 L204.53895495833189,158.14484439245126 M210.00041683915995,129.4397906035851 L208.17698895680127,130.8417913171927 M208.17698895680127,130.8417913171927 L206.32710439664228,131.90200512725886 M206.32710439664228,131.90200512725886 L204.50256051597142,132.59072893416567 M204.53895495833189,158.14484439245126 L206.36315345910515,157.4557849927492 M206.36315345910515,157.4557849927492 L208.21268795056844,156.39536750276187 M208.21268795056844,156.39536750276187 L210.03577087472001,154.9933007172846 M234.37406842384104,108.417393553843 L210.00041683915995,129.4397906035851 M210.03577087472001,154.9933007172846 L236.02346188758378,132.57449941707648 M236.02346188758378,132.57449941707648 L238.41191733292146,130.1406486943884 M238.41191733292146,130.1406486943884 L240.5235915095571,127.25738423951765 M240.5235915095571,127.25738423951765 L242.2450607819659,124.07957020827331 M242.2450607819659,124.07957020827331 L243.48385181962664,120.7779476912728 M243.48385181962664,120.7779476912728 L244.17341640956832,117.52978424545046 M244.17341640956832,117.52978424545046 L244.27668306546198,114.50962544104272 M244.27668306546198,114.50962544104272 L243.78807095440743,111.87972280429534 M243.78807095440743,111.87972280429534 L242.73378389237604,109.78138646574087 M242.73378389237604,109.78138646574087 L241.17042285309196,108.32743850802706 M241.17042285309196,108.32743850802706 L239.18194533425296,107.59600748247595 M239.18194533425296,107.59600748247595 L236.8751802172706,107.62652022884106 M236.8751802172706,107.62652022884106 L234.37406842384104,108.417393553843 M132.51473207476272,209.7188970122842 L124.03801445035845,270.8749427819746 M133.6532139222461,267.3148412653379 L124.03801445035845,270.8749427819746 M142.13240804697523,206.1634833325287 L133.6532139222461,267.3148412653379 M132.51473207476272,209.7188970122842 L142.13240804697523,206.1634833325287 M351.8928392472688,301.5521044720663 L315.54520774547007,329.87393591226476 M351.8928392472688,301.5521044720663 L353.58265331422893,311.6371527439409 M317.23895481880504,339.958841379903 L315.54520774547007,329.87393591226476 M353.58265331422893,311.6371527439409 L317.23895481880504,339.958841379903 M279.1789315376932,358.2102926636042 L242.79401791849872,386.56117364170666 M279.1789315376932,358.2102926636042 L280.87662160953835,368.29504985269864 M244.49564553421678,396.6457866664379 L242.79401791849872,386.56117364170666 M280.87662160953835,368.29504985269864 L244.49564553421678,396.6457866664379 M115.5671037862623,331.98907918393235 L107.10199419153798,393.0613850401414 M116.71223788377768,389.49194032028714 L107.10199419153798,393.0613850401414 M125.17982172068503,328.4243149611561 L116.71223788377768,389.49194032028714 M115.5671037862623,331.98907918393235 L125.17982172068503,328.4243149611561 M134.31924135019136,452.64053025091494 L170.7896020405937,439.06914558165647 M135.99005023736748,440.60361530380675 L134.31924135019136,452.64053025091494 M170.7896020405937,439.06914558165647 L172.46225772811962,427.0357258296961 M135.99005023736748,440.60361530380675 L172.46225772811962,427.0357258296961 M61.2982758772892,479.81315928180135 L97.82214036829015,466.2218659892516 M62.96536927350144,467.7692553453667 L61.2982758772892,479.81315928180135 M97.82214036829015,466.2218659892516 L99.49108999537515,454.1814590521097 M62.96536927350144,467.7692553453667 L99.49108999537515,454.1814590521097 M47.711677491215596,186.55010994881746 L25.272292410092007,506.30444642497736 M15.56860888675692,500.6849483111396 L25.272292410092007,506.30444642497736 M217.37111637513883,434.79522788446496 L408.73753070193305,285.6454939914914 M25.272292410092007,506.30444642497736 L217.37111637513883,434.79522788446496 M408.73753070193305,285.6454939914914 L385.6229580759295,-7.010474076948981 M363.82509436823386,140.48388475180764 L355.8839097643933,40.29634981236802 M373.50953266523766,133.94434309690894 L363.82509436823386,140.48388475180764 M355.8839097643933,40.29634981236802 L365.577104186707,33.758886098246194 M373.50953266523766,133.94434309690894 L365.577104186707,33.758886098246194 M374.7565625302364,145.14735035448248 L141.95013421767135,302.37480946112777 M373.90749518130383,134.42333160232988 L374.7565625302364,145.14735035448248 M373.90749518130383,134.42333160232988 L141.0784982400429,291.6454719195441 M141.95013421767135,302.37480946112777 L141.0784982400429,291.6454719195441 M372.8137281836988,26.636444281618083 L60.66261305224202,205.5115227360718 M372.8117029968463,15.363312780804904 L372.8137281836988,26.636444281618083 M60.66261305224202,205.5115227360718 L60.634515917515955,194.22320437943995 M60.634515917515955,194.22320437943995 L372.8117029968463,15.363312780804904 M188.23721823701098,171.1357774947007 L185.84340234400014,171.44314649659492 M185.84340234400014,171.44314649659492 L183.7248245144493,170.9841927810078 M183.7248245144493,170.9841927810078 L181.995350099792,169.7834916870558 M181.995350099792,169.7834916870558 L180.7479583937317,167.90554305668627 M180.7479583937317,167.90554305668627 L180.04972407297558,165.4511439011992 M180.04972407297558,165.4511439011992 L179.93822432846235,162.55221888200367 M179.93822432846235,162.55221888200367 L180.4194887938251,159.36455267981748 M180.4194887938251,159.36455267981748 L181.4676802399636,156.0594654921672 M181.4676802399636,156.0594654921672 L183.0264684760591,152.8146565543197 M183.0264684760591,152.8146565543197 L185.01206811251876,149.80449423708512 M185.01206811251876,149.80449423708512 L187.31773059253646,147.19085263174878 M187.31773059253646,147.19085263174878 L189.8195145264616,145.1141967626238 M214.259481967807,163.73641956337025 L188.23721823701098,171.1357774947007 M189.8195145264616,145.1141967626238 L214.22492155338455,138.1812302199897 M219.7562993332305,160.58435044546093 L217.93319034406,161.9866065225538 M217.93319034406,161.9866065225538 L216.08365536503692,163.0472008107269 M216.08365536503692,163.0472008107269 L214.259481967807,163.73641956337025 M219.72277932643007,135.02976644830773 L217.89932536912565,136.43195646988266 M217.89932536912565,136.43195646988266 L216.0494403211305,137.4923470775829 M216.0494403211305,137.4923470775829 L214.22492155338455,138.1812302199897 M245.74453596498705,138.1627487309019 L219.7562993332305,160.58435044546093 M219.72277932643007,135.02976644830773 L244.09694275977083,114.00474306495073 M244.09694275977083,114.00474306495073 L246.59800902980322,113.21365784455958 M246.59800902980322,113.21365784455958 L248.9046820160774,113.1829791198926 M248.9046820160774,113.1829791198926 L250.89302575156768,113.91429899431114 M250.89302575156768,113.91429899431114 L252.45621855412173,115.36819658825493 M252.45621855412173,115.36819658825493 L253.51031196813489,117.46654604829916 M253.51031196813489,117.46654604829916 L253.9987154328195,120.09652457731994 M253.9987154328195,120.09652457731994 L253.89523634527302,123.11681796301895 M253.89523634527302,123.11681796301895 L253.2054669523755,126.36516744900041 M253.2054669523755,126.36516744900041 L251.9664897462722,129.6670174710971 M251.9664897462722,129.6670174710971 L250.24486293302522,132.84508826043157 M250.24486293302522,132.84508826043157 L248.1330683056326,135.72862493804092 M248.1330683056326,135.72862493804092 L245.74453596498705,138.1627487309019 M160.34108713911914,150.56508104316956 L117.95395117443519,456.12850623119095 M150.72107066976398,154.11660795489186 L160.34108713911914,150.56508104316956 M117.95395117443519,456.12850623119095 L108.34631041543668,459.70345970386217 M150.72107066976398,154.11660795489186 L108.34631041543668,459.70345970386217 M34.45143063653387,499.03296710429174 L216.93449320809836,431.1102978492332 M36.11747194254713,486.9849332812388 L34.45143063653387,499.03296710429174 M216.93449320809836,431.1102978492332 L217.36211742011787,428.0394694268579 M36.11747194254713,486.9849332812388 L217.3508067082327,419.5482126863107 M217.79725773803276,430.61357493241127 L217.36211742011787,428.0394694268579 M397.9265736614732,278.8280483133037 L217.3508067082327,419.5482126863107 M399.61167684090515,288.91353091680963 L217.79725773803276,430.61357493241127 M397.9265736614732,278.8280483133037 L399.61167684090515,288.91353091680963 M408.73753070193305,285.6454939914914 L399.0337462693028,280.06271577586733 M207.67015522211648,429.19250871163155 L217.37111637513883,434.79522788446496 M180.09665450617294,139.5216601259205 L189.8195145264616,145.1141967626238 M178.51615932157182,165.5420313463162 L188.23721823701098,171.1357774947007 M204.50256051597142,132.59072893416567 L214.22492155338455,138.1812302199897 M204.53895495833189,158.14484439245126 L214.259481967807,163.73641956337025 M210.00041683915995,129.4397906035851 L219.72277932643007,135.02976644830773 M210.03577087472001,154.9933007172846 L219.7562993332305,160.58435044546093 M234.37406842384104,108.417393553843 L244.09694275977083,114.00474306495073 M236.02346188758378,132.57449941707648 L245.74453596498705,138.1627487309019 M107.10199419153798,393.0613850401414 L111.95562433295271,395.8654780932025 M120.42274925603687,334.791587696733 L115.5671037862623,331.98907918393235 M128.89567687068518,273.675863924366 L120.42274925603687,334.791587696733 M124.03801445035845,270.8749427819746 L128.89567687068518,273.675863924366 M137.3744130710353,212.5182279486634 L132.51473207476272,209.7188970122842 M145.85896383494705,151.31863663601908 L137.3744130710353,212.5182279486634 M150.72107066976398,154.11660795489186 L145.85896383494705,151.31863663601908 M103.4942898799971,456.8975512459642 L108.34631041543668,459.70345970386217 M111.95562433295271,395.8654780932025 L103.4942898799971,456.8975512459642 M133.6532139222461,267.3148412653379 L138.51080800016882,270.115343510128 M138.51080800016882,270.115343510128 L128.89567687068518,273.675863924366 M116.71223788377768,389.49194032028714 L121.56579991231189,392.2956140672924 M130.03539896252568,331.22640437214375 L125.17982172068503,328.4243149611561 M138.51080800016882,270.115343510128 L130.03539896252568,331.22640437214375 M146.9920205856708,208.9623955768315 L142.13240804697523,206.1634833325287 M155.47904892319434,147.7675282669995 L146.9920205856708,208.9623955768315 M160.34108713911914,150.56508104316956 L155.47904892319434,147.7675282669995 M113.10199868191717,453.32301734051117 L117.95395117443519,456.12850623119095 M121.56579991231189,392.2956140672924 L113.10199868191717,453.32301734051117 M146.9920205856708,208.9623955768315 L137.3744130710353,212.5182279486634 M242.79401791849872,386.56117364170666 L247.64510476317437,389.3602667696702 M284.0302877585387,361.00748957084113 L279.1789315376932,358.2102926636042 M320.3968324293365,332.66923817410014 L284.0302877585387,361.00748957084113 M315.54520774547007,329.87393591226476 L320.3968324293365,332.66923817410014 M356.74473148231016,304.3455136631807 L351.8928392472688,301.5521044720663 M393.07401159667234,276.0362986598741 L356.74473148231016,304.3455136631807 M397.9265736614732,278.8280483133037 L393.07401159667234,276.0362986598741 M217.3508067082327,419.5482126863107 L212.4995772067515,416.74705432994404 M247.64510476317437,389.3602667696702 L212.4995772067515,416.74705432994404 M358.4341486587331,314.43071206228296 L353.58265331422893,311.6371527439409 M358.4341486587331,314.43071206228296 L356.74473148231016,304.3455136631807 M317.23895481880504,339.958841379903 L322.09018269965577,342.75429361918987 M322.09018269965577,342.75429361918987 L320.3968324293365,332.66923817410014 M244.49564553421678,396.6457866664379 L249.34633575181698,399.4450294712701 M285.72758111519727,371.0923965870163 L280.87662160953835,368.29504985269864 M322.09018269965577,342.75429361918987 L285.72758111519727,371.0923965870163 M394.75951182564796,286.12163099710517 L358.4341486587331,314.43071206228296 M399.61167684090515,288.91353091680963 L394.75951182564796,286.12163099710517 M212.94643420001762,427.81220144380455 L217.79725773803276,430.61357493241127 M249.34633575181698,399.4450294712701 L212.94643420001762,427.81220144380455 M285.72758111519727,371.0923965870163 L284.0302877585387,361.00748957084113 M249.34633575181698,399.4450294712701 L247.64510476317437,389.3602667696702 M121.56579991231189,392.2956140672924 L111.95562433295271,395.8654780932025 M130.03539896252568,331.22640437214375 L120.42274925603687,334.791587696733 M170.7896020405937,439.06914558165647 L175.64028245337707,441.87191786082275 M139.170181354202,455.44489462002133 L134.31924135019136,452.64053025091494 M102.67333904036138,469.02782403004 L139.170181354202,455.44489462002133 M97.82214036829015,466.2218659892516 L102.67333904036138,469.02782403004 M66.1497322920469,482.6207125778937 L61.2982758772892,479.81315928180135 M29.599313033105602,496.2235828331421 L66.1497322920469,482.6207125778937 M34.45143063653387,499.03296710429174 L29.599313033105602,496.2235828331421 M212.08366978186692,428.3088830390173 L216.93449320809836,431.1102978492332 M175.64028245337707,441.87191786082275 L212.08366978186692,428.3088830390173 M140.84138740188632,443.40766798582456 L135.99005023736748,440.60361530380675 M139.170181354202,455.44489462002133 L140.84138740188632,443.40766798582456 M175.64028245337707,441.87191786082275 L177.31333521536573,429.83818657401184 M172.46225772811962,427.0357258296961 L177.31333521536573,429.83818657401184 M104.3426859138765,456.98710525392806 L140.84138740188632,443.40766798582456 M99.49108999537515,454.1814590521097 L104.3426859138765,456.98710525392806 M67.81722302046472,470.57649665023695 L62.96536927350144,467.7692553453667 M31.264956860816312,484.1758611644207 L67.81722302046472,470.57649665023695 M36.11747194254713,486.9849332812388 L31.264956860816312,484.1758611644207 M177.31333521536573,429.83818657401184 L212.4995772067515,416.74705432994404 M66.1497322920469,482.6207125778937 L67.81722302046472,470.57649665023695 M102.67333904036138,469.02782403004 L104.3426859138765,456.98710525392806 M363.82509436823386,140.48388475180764 L358.9668610702803,137.69381207583746 M351.02191605415914,37.50809958032676 L355.8839097643933,40.29634981236802 M358.9668610702803,137.69381207583746 L351.02191605415914,37.50809958032676 M358.9668610702803,137.69381207583746 L368.6512639298347,131.15475352215867 M373.50953266523766,133.94434309690894 L368.6512639298347,131.15475352215867 M360.7150749292634,30.97111914972777 L365.577104186707,33.758886098246194 M351.02191605415914,37.50809958032676 L360.7150749292634,30.97111914972777 M368.6512639298347,131.15475352215867 L360.7150749292634,30.97111914972777 M374.7565625302364,145.14735035448248 L369.89872175568996,142.35757026364138 M137.09316194686892,299.5734039296607 L141.95013421767135,302.37480946112777 M369.89872175568996,142.35757026364138 L137.09316194686892,299.5734039296607 M369.89872175568996,142.35757026364138 L369.04925184013047,131.63374618808024 M373.90749518130383,134.42333160232988 L369.04925184013047,131.63374618808024 M136.22112368905027,288.8442605902552 L141.0784982400429,291.6454719195441 M369.04925184013047,131.63374618808024 L136.22112368905027,288.8442605902552 M137.09316194686892,299.5734039296607 L136.22112368905027,288.8442605902552 M372.8137281836988,26.636444281618083 L367.9515919301791,23.849085301189405 M367.9515919301791,23.849085301189405 L55.800517477607855,202.70924866853488 M55.800517477607855,202.70924866853488 L60.66261305224202,205.5115227360718 M367.9515919301791,23.849085301189405 L367.9491619083328,12.576191082676871 M372.8117029968463,15.363312780804904 L367.9491619083328,12.576191082676871 M55.77201551806979,191.42116761686395 L60.634515917515955,194.22320437943995 M55.800517477607855,202.70924866853488 L55.77201551806979,191.42116761686395 M55.77201551806979,191.42116761686395 L367.9491619083328,12.576191082676871 M155.47904892319434,147.7675282669995 L145.85896383494705,151.31863663601908 M113.10199868191717,453.32301734051117 L103.4942898799971,456.8975512459642 M29.599313033105602,496.2235828331421 L31.264956860816312,484.1758611644207 M212.51119264715044,425.23813409409576 L217.36211742011787,428.0394694268579 M212.08366978186692,428.3088830390173 L212.51119264715044,425.23813409409576 M212.94643420001762,427.81220144380455 L212.51119264715044,425.23813409409576 M394.75951182564796,286.12163099710517 L393.07401159667234,276.0362986598741" stroke="black"  stroke-width="4"  fill="red"/>
<path d="M375.75681993076114,715.4263187223551 L357.7667401336383,782.8545966276808 M348.0185264195791,777.2022976245148 L357.7667401336383,782.8545966276808 M366.0044787321714,709.7781286389152 L348.0185264195791,777.2022976245148 M375.75681993076114,715.4263187223551 L366.0044787321714,709.7781286389152 M375.75681993076114,715.4263187223551 L530.2406305385576,657.3911351883269 M530.2406305385576,657.3911351883269 L684.3783277191577,536.749727296105 M702.155753675014,583.3023399162346 L684.3783277191577,536.749727296105 M702.155753675014,583.3023399162346 L743.423463789279,559.3902394751269 M712.2700259559635,477.67733387893094 L743.423463789279,559.3902394751269 M711.7331000355,478.2137944615773 L712.2700259559635,477.67733387893094 M711.7511731381765,470.4637498941326 L711.7331000355,478.2137944615773 M530.2850447810105,612.4371997861732 L711.7511731381765,470.4637498941326 M348.3260077038362,680.7115848447345 L530.2850447810105,612.4371997861732 M348.3288199794194,688.4736923962771 L348.3260077038362,680.7115848447345 M347.7889822396728,688.5595234863645 L348.3288199794194,688.4736923962771 M316.22519794437,806.925365918195 L347.7889822396728,688.5595234863645 M316.22519794437,806.925365918195 L357.7667401336383,782.8545966276808 M348.0185264195791,777.2022976245148 L306.4769880897479,801.2690470810167 M316.22519794437,806.925365918195 L306.4769880897479,801.2690470810167 M520.4905769226556,651.756569301293 L366.0044787321714,709.7781286389152 M674.6260430269007,531.1313396359182 L520.4905769226556,651.756569301293 M692.4076029380594,577.6833112471015 L674.6260430269007,531.1313396359182 M733.6753319711869,553.7751909605236 L692.4076029380594,577.6833112471015 M702.5146367844607,472.0634167627724 L733.6753319711869,553.7751909605236 M701.9777270191972,472.5998162185954 L702.5146367844607,472.0634167627724 M701.9952382421953,464.85009476801076 L701.9777270191972,472.5998162185954 M701.9952382421953,464.85009476801076 L520.531734476924,606.8045035763802 M520.531734476924,606.8045035763802 L338.5700062584057,675.062848183331 M338.573380425144,682.8246326234466 L338.5700062584057,675.062848183331 M338.0335263336968,682.9104209524178 L338.573380425144,682.8246326234466 M306.4769880897479,801.2690470810167 L338.0335263336968,682.9104209524178 M530.2406305385576,657.3911351883269 L520.4905769226556,651.756569301293 M674.6260430269007,531.1313396359182 L684.3783277191577,536.749727296105 M702.155753675014,583.3023399162346 L692.4076029380594,577.6833112471015 M733.6753319711869,553.7751909605236 L743.423463789279,559.3902394751269 M712.2700259559635,477.67733387893094 L702.5146367844607,472.0634167627724 M701.9777270191972,472.5998162185954 L711.7331000355,478.2137944615773 M701.9952382421953,464.85009476801076 L711.7511731381765,470.4637498941326 M530.2850447810105,612.4371997861732 L520.531734476924,606.8045035763802 M348.3260077038362,680.7115848447345 L338.5700062584057,675.062848183331 M348.3288199794194,688.4736923962771 L338.573380425144,682.8246326234466 M347.7889822396728,688.5595234863645 L338.0335263336968,682.9104209524178" stroke="black"  stroke-width="4"  fill="red"/>
<path d="M385.5107902657883,721.0754523404892 L367.5165818561539,788.507839597695 M357.7667401336383,782.8545966276808 L367.5165818561539,788.507839597695 M375.75681993076114,715.4263187223551 L357.7667401336383,782.8545966276808 M385.5107902657883,721.0754523404892 L375.75681993076114,715.4263187223551 M385.5107902657883,721.0754523404892 L539.9923103749854,663.0266408698546 M539.9923103749854,663.0266408698546 L694.1322372341823,542.3690510327576 M711.9055276109088,588.9223042296377 L694.1322372341823,542.3690510327576 M711.9055276109088,588.9223042296377 L753.1732182281042,565.0062226400108 M722.0270405976833,483.292186401654 L753.1732182281042,565.0062226400108 M721.4900985240887,483.8287081240488 L722.0270405976833,483.292186401654 M721.5087336934579,476.0783404396439 L721.4900985240887,483.8287081240488 M540.0399823916487,618.0708357921137 L721.5087336934579,476.0783404396439 M358.0836398920493,686.3612657081856 L540.0399823916487,618.0708357921137 M358.08589008858445,694.1236963707481 L358.0836398920493,686.3612657081856 M357.5460687135458,694.2095702350491 L358.08589008858445,694.1236963707481 M325.97503638568134,812.5826297294461 L357.5460687135458,694.2095702350491 M325.97503638568134,812.5826297294461 L367.5165818561539,788.507839597695 M357.7667401336383,782.8545966276808 L316.22519794437,806.925365918195 M325.97503638568134,812.5826297294461 L316.22519794437,806.925365918195 M530.2406305385579,657.3911351883269 L375.75681993076114,715.4263187223551 M684.3783277191577,536.749727296105 L530.2406305385579,657.3911351883269 M702.155753675014,583.3023399162346 L684.3783277191577,536.749727296105 M743.423463789279,559.3902394751269 L702.155753675014,583.3023399162346 M712.2700259559635,477.67733387893094 L743.423463789279,559.3902394751269 M711.7331000355,478.2137944615773 L712.2700259559635,477.67733387893094 M711.7511731381765,470.4637498941326 L711.7331000355,478.2137944615773 M711.7511731381765,470.4637498941326 L530.2850447810107,612.4371997861731 M530.2850447810107,612.4371997861731 L348.3260077038362,680.7115848447345 M348.3288199794194,688.4736923962771 L348.3260077038362,680.7115848447345 M347.7889822396728,688.5595234863645 L348.3288199794194,688.4736923962771 M316.22519794437,806.925365918195 L347.7889822396728,688.5595234863645 M539.9923103749854,663.0266408698546 L530.2406305385579,657.3911351883269 M684.3783277191577,536.749727296105 L694.1322372341823,542.3690510327576 M711.9055276109088,588.9223042296377 L702.155753675014,583.3023399162346 M743.423463789279,559.3902394751269 L753.1732182281042,565.0062226400108 M722.0270405976833,483.292186401654 L712.2700259559635,477.67733387893094 M711.7331000355,478.2137944615773 L721.4900985240887,483.8287081240488 M711.7511731381765,470.4637498941326 L721.5087336934579,476.0783404396439 M540.0399823916487,618.0708357921137 L530.2850447810107,612.4371997861731 M358.0836398920493,686.3612657081856 L348.3260077038362,680.7115848447345 M358.08589008858445,694.1236963707481 L348.3288199794194,688.4736923962771 M357.5460687135458,694.2095702350491 L347.7889822396728,688.5595234863645" stroke="black"  stroke-width="4"  fill="red"/>
<path d="M366.0044787321714,709.7781286389152 L348.0185264195791,777.2022976245148 M338.2719403062481,771.5509423517842 L348.0185264195791,777.2022976245148 M356.2537662618984,704.1308818538014 L338.2719403062481,771.5509423517842 M366.0044787321714,709.7781286389152 L356.2537662618984,704.1308818538014 M366.0044787321714,709.7781286389152 L520.4905769226552,651.7565693012932 M520.4905769226552,651.7565693012932 L674.6260430269007,531.1313396359182 M692.4076029380594,577.6833112471015 L674.6260430269007,531.1313396359182 M692.4076029380594,577.6833112471015 L733.6753319711869,553.7751909605236 M702.5146367844607,472.0634167627724 L733.6753319711869,553.7751909605236 M701.9777270191972,472.5998162185954 L702.5146367844607,472.0634167627724 M701.9952382421953,464.85009476801076 L701.9777270191972,472.5998162185954 M520.5317344769239,606.8045035763803 L701.9952382421953,464.85009476801076 M338.5700062584057,675.062848183331 L520.5317344769239,606.8045035763803 M338.573380425144,682.8246326234466 L338.5700062584057,675.062848183331 M338.0335263336968,682.9104209524178 L338.573380425144,682.8246326234466 M306.4769880897479,801.2690470810167 L338.0335263336968,682.9104209524178 M306.4769880897479,801.2690470810167 L348.0185264195791,777.2022976245148 M338.2719403062481,771.5509423517842 L296.73040641379737,795.6136729811622 M306.4769880897479,801.2690470810167 L296.73040641379737,795.6136729811622 M510.7421491205231,646.1229429736875 L356.2537662618984,704.1308818538014 M664.8753827514466,525.5138878183168 L510.7421491205231,646.1229429736875 M682.6610749947195,572.065217988601 L664.8753827514466,525.5138878183168 M723.9288223687905,548.1610768628938 L682.6610749947195,572.065217988601 M692.7608726770152,466.45043481944674 L723.9288223687905,548.1610768628938 M692.2239790690196,466.98677316136747 L692.7608726770152,466.45043481944674 M692.240928599284,459.23737482752955 L692.2239790690196,466.98677316136747 M692.240928599284,459.23737482752955 L510.7800510722259,601.1727469275905 M510.7800510722259,601.1727469275905 L328.8156351469856,669.4150554872954 M328.8195710170567,677.1765168155912 L328.8156351469856,669.4150554872954 M328.2797005869104,677.2622623965378 L328.8195710170567,677.1765168155912 M296.73040641379737,795.6136729811622 L328.2797005869104,677.2622623965378 M520.4905769226552,651.7565693012932 L510.7421491205231,646.1229429736875 M664.8753827514466,525.5138878183168 L674.6260430269007,531.1313396359182 M692.4076029380594,577.6833112471015 L682.6610749947195,572.065217988601 M723.9288223687905,548.1610768628938 L733.6753319711869,553.7751909605236 M702.5146367844607,472.0634167627724 L692.7608726770152,466.45043481944674 M692.2239790690196,466.98677316136747 L701.9777270191972,472.5998162185954 M692.240928599284,459.23737482752955 L701.9952382421953,464.85009476801076 M520.5317344769239,606.8045035763803 L510.7800510722259,601.1727469275905 M338.5700062584057,675.062848183331 L328.8156351469856,669.4150554872954 M338.573380425144,682.8246326234466 L328.8195710170567,677.1765168155912 M338.0335263336968,682.9104209524178 L328.2797005869104,677.2622623965378" stroke="black"  stroke-width="4"  fill="red"/>
<path d="M90.36343056276007,550.1371764658538 L72.49395655023852,617.4451054556391 M62.7933169275538,611.8203913000298 L72.49395655023852,617.4451054556391 M80.65869636913112,544.5165585733212 L62.7933169275538,611.8203913000298 M90.36343056276007,550.1371764658538 L80.65869636913112,544.5165585733212 M90.36343056276007,550.1371764658538 L244.9131375852188,492.500087224684 M244.9131375852188,492.500087224684 L398.98481232796195,372.33170057008687 M416.88282885945745,418.86533167534583 L398.98481232796195,372.33170057008687 M416.88282885945745,418.86533167534583 L458.1508548554126,395.06957076214786 M426.78571407703504,313.39016535329745 L458.1508548554126,395.06957076214786 M426.24926289520965,313.9248382371245 L426.78571407703504,313.39016535329745 M426.2509316154412,306.18427166664327 L426.24926289520965,313.9248382371245 M244.8624719050179,447.6009960457474 L426.2509316154412,306.18427166664327 M62.82591589104641,515.406685652416 L244.8624719050179,447.6009960457474 M62.84513252317282,523.1593151572135 L62.82591589104641,515.406685652416 M62.30482051438082,523.2438973436522 L62.84513252317282,523.1593151572135 M30.952766645517386,641.398376763537 L62.30482051438082,523.2438973436522 M30.952766645517386,641.398376763537 L72.49395655023852,617.4451054556391 M62.7933169275538,611.8203913000298 L21.252147715445858,635.7696721701047 M30.952766645517386,641.398376763537 L21.252147715445858,635.7696721701047 M235.2106060449434,486.8929843934193 L80.65869636913112,544.5165585733212 M389.2800090609233,366.74066742855405 L235.2106060449434,486.8929843934193 M407.18211219858887,413.27364495450786 L389.2800090609233,366.74066742855405 M448.4501402801459,389.4818351854346 L407.18211219858887,413.27364495450786 M417.07782523646443,307.8035831713129 L448.4501402801459,389.4818351854346 M416.54139026978356,308.3381953057159 L417.07782523646443,307.8035831713129 M416.54250256505776,300.5979518432375 L416.54139026978356,308.3381953057159 M416.54250256505776,300.5979518432375 L235.15671535281868,441.9957629053806 M235.15671535281868,441.9957629053806 L53.11756828134577,509.78554061965747 M53.1373413244001,517.5378470071712 L53.11756828134577,509.78554061965747 M52.59701334287223,517.6223868145499 L53.1373413244001,517.5378470071712 M21.252147715445858,635.7696721701047 L52.59701334287223,517.6223868145499 M244.9131375852188,492.500087224684 L235.2106060449434,486.8929843934193 M389.2800090609233,366.74066742855405 L398.98481232796195,372.33170057008687 M416.88282885945745,418.86533167534583 L407.18211219858887,413.27364495450786 M448.4501402801459,389.4818351854346 L458.1508548554126,395.06957076214786 M426.78571407703504,313.39016535329745 L417.07782523646443,307.8035831713129 M416.54139026978356,308.3381953057159 L426.24926289520965,313.9248382371245 M416.54250256505776,300.5979518432375 L426.2509316154412,306.18427166664327 M244.8624719050179,447.6009960457474 L235.15671535281868,441.9957629053806 M62.82591589104641,515.406685652416 L53.11756828134577,509.78554061965747 M62.84513252317282,523.1593151572135 L53.1373413244001,517.5378470071712 M62.30482051438082,523.2438973436522 L52.59701334287223,517.6223868145499" stroke="black"  stroke-width="4"  fill="red"/>
<path d="M100.069781977719,555.7587309922972 L82.19621227771222,623.0707566760026 M72.49395655023852,617.4451054556391 L82.19621227771222,623.0707566760026 M90.36343056276007,550.1371764658538 L72.49395655023852,617.4451054556391 M100.069781977719,555.7587309922972 L90.36343056276007,550.1371764658538 M100.069781977719,555.7587309922972 L254.61728347064945,498.10812298765364 M254.61728347064945,498.10812298765364 L408.69122856545124,377.92366295984823 M426.58515688557753,424.45794721927956 L408.69122856545124,377.92366295984823 M426.58515688557753,424.45794721927956 L467.8531802261094,400.6582341776158 M436.49521652983714,318.97767611795217 L467.8531802261094,400.6582341776158 M435.95874913488706,319.5124097640141 L436.49521652983714,318.97767611795217 M435.96097446504797,311.77152008504066 L435.95874913488706,319.5124097640141 M254.56984387652204,453.2071621171823 L435.96097446504797,311.77152008504066 M72.53588230942876,521.0287679773631 L254.56984387652204,453.2071621171823 M72.55454234479373,528.7817205994374 L72.53588230942876,521.0287679773631 M72.01424632157506,528.8663451778933 L72.55454234479373,528.7817205994374 M40.65500225016973,647.0280194191387 L72.01424632157506,528.8663451778933 M40.65500225016973,647.0280194191387 L82.19621227771222,623.0707566760026 M72.49395655023852,617.4451054556391 L30.952766645517386,641.398376763537 M40.65500225016973,647.0280194191387 L30.952766645517386,641.398376763537 M244.91313758521906,492.50008722468385 L90.36343056276007,550.1371764658538 M398.98481232796195,372.33170057008687 L244.91313758521906,492.50008722468385 M416.88282885945745,418.86533167534583 L398.98481232796195,372.33170057008687 M458.1508548554126,395.06957076214786 L416.88282885945745,418.86533167534583 M426.78571407703504,313.39016535329745 L458.1508548554126,395.06957076214786 M426.24926289520965,313.9248382371245 L426.78571407703504,313.39016535329745 M426.2509316154412,306.18427166664327 L426.24926289520965,313.9248382371245 M426.2509316154412,306.18427166664327 L244.86247190501817,447.60099604574737 M244.86247190501817,447.60099604574737 L62.82591589104641,515.406685652416 M62.84513252317282,523.1593151572135 L62.82591589104641,515.406685652416 M62.30482051438082,523.2438973436522 L62.84513252317282,523.1593151572135 M30.952766645517386,641.398376763537 L62.30482051438082,523.2438973436522 M254.61728347064945,498.10812298765364 L244.91313758521906,492.50008722468385 M398.98481232796195,372.33170057008687 L408.69122856545124,377.92366295984823 M426.58515688557753,424.45794721927956 L416.88282885945745,418.86533167534583 M458.1508548554126,395.06957076214786 L467.8531802261094,400.6582341776158 M436.49521652983714,318.97767611795217 L426.78571407703504,313.39016535329745 M426.24926289520965,313.9248382371245 L435.95874913488706,319.5124097640141 M426.2509316154412,306.18427166664327 L435.96097446504797,311.77152008504066 M254.56984387652204,453.2071621171823 L244.86247190501817,447.60099604574737 M72.53588230942876,521.0287679773631 L62.82591589104641,515.406685652416 M72.55454234479373,528.7817205994374 L62.84513252317282,523.1593151572135 M72.01424632157506,528.8663451778933 L62.30482051438082,523.2438973436522" stroke="black"  stroke-width="4"  fill="red"/>
<path d="M80.65869636913112,544.5165585733212 L62.7933169275538,611.8203913000298 M53.09429300589949,606.1966139750637 L62.7933169275538,611.8203913000298 M70.95557899268607,538.8968770806337 L53.09429300589949,606.1966139750637 M80.65869636913112,544.5165585733212 L70.95557899268607,538.8968770806337 M80.65869636913112,544.5165585733212 L235.21060604494318,486.89298439341945 M235.21060604494318,486.89298439341945 L389.2800090609233,366.74066742855405 M407.18211219858887,413.27364495450786 L389.2800090609233,366.74066742855405 M407.18211219858887,413.27364495450786 L448.4501402801459,389.4818351854346 M417.07782523646443,307.8035831713129 L448.4501402801459,389.4818351854346 M416.54139026978356,308.3381953057159 L417.07782523646443,307.8035831713129 M416.54250256505776,300.5979518432375 L416.54139026978356,308.3381953057159 M235.15671535281845,441.9957629053807 L416.54250256505776,300.5979518432375 M53.11756828134577,509.78554061965747 L235.15671535281845,441.9957629053807 M53.1373413244001,517.5378470071712 L53.11756828134577,509.78554061965747 M52.59701334287223,517.6223868145499 L53.1373413244001,517.5378470071712 M21.252147715445858,635.7696721701047 L52.59701334287223,517.6223868145499 M21.252147715445858,635.7696721701047 L62.7933169275538,611.8203913000298 M53.09429300589949,606.1966139750637 L11.553145055911159,630.141905404399 M21.252147715445858,635.7696721701047 L11.553145055911159,630.141905404399 M225.5096884470225,481.28681426108017 L70.95557899268607,538.8968770806337 M379.5768183623139,361.1505633036415 L225.5096884470225,481.28681426108017 M397.48300650158114,407.682886825396 L379.5768183623139,361.1505633036415 M438.7510360992021,383.8950272164333 L397.48300650158114,407.682886825396 M407.3715496059119,302.21792934053747 L438.7510360992021,383.8950272164333 M406.83513085639333,302.7524807383234 L407.3715496059119,302.21792934053747 M406.8356869116135,295.0125603833454 L406.83513085639333,302.7524807383234 M406.8356869116135,295.0125603833454 L225.4525738167215,436.39146246322497 M225.4525738167215,436.39146246322497 L43.41083907553843,504.16533264471474 M43.43116834375667,511.9173159149503 L43.41083907553843,504.16533264471474 M42.89082440232454,512.0018133562222 L43.43116834375667,511.9173159149503 M11.553145055911159,630.141905404399 L42.89082440232454,512.0018133562222 M235.21060604494318,486.89298439341945 L225.5096884470225,481.28681426108017 M379.5768183623139,361.1505633036415 L389.2800090609233,366.74066742855405 M407.18211219858887,413.27364495450786 L397.48300650158114,407.682886825396 M438.7510360992021,383.8950272164333 L448.4501402801459,389.4818351854346 M417.07782523646443,307.8035831713129 L407.3715496059119,302.21792934053747 M406.83513085639333,302.7524807383234 L416.54139026978356,308.3381953057159 M406.8356869116135,295.0125603833454 L416.54250256505776,300.5979518432375 M235.15671535281845,441.9957629053807 L225.4525738167215,436.39146246322497 M53.11756828134577,509.78554061965747 L43.41083907553843,504.16533264471474 M53.1373413244001,517.5378470071712 L43.43116834375667,511.9173159149503 M52.59701334287223,517.6223868145499 L42.89082440232454,512.0018133562222" stroke="black"  stroke-width="4"  fill="red"/>
<path d="M175.64028245337707,441.87191786082275 L212.08366978186692,428.3088830390173 M212.08366978186692,428.3088830390173 L212.51119264715044,425.23813409409576 M212.51119264715044,425.23813409409576 L211.2412557688977,417.72758804406504 M212.4995772067515,416.74705432994404 L211.2412557688977,417.72758804406504 M177.31333521536573,429.83818657401184 L212.4995772067515,416.74705432994404 M175.64028245337707,441.87191786082275 L177.31333521536573,429.83818657401184 M212.08366978186692,428.3088830390173 L581.899993153915,641.8827104745149 M581.899993153915,641.8827104745149 L545.4769036692386,655.5672639884704 M545.4769036692386,655.5672639884704 L555.2411373008614,661.2091370910343 M555.2411373008614,661.2091370910343 L518.7918099007887,674.9069716521078 M518.7918099007887,674.9069716521078 L509.0270305674254,669.2618803477358 M509.0270305674254,669.2618803477358 L472.55034623170815,682.9665704281895 M472.55034623170815,682.9665704281895 L482.31566942804284,688.614883143437 M482.31566942804284,688.614883143437 L445.81269249015,702.3328782001508 M445.81269249015,702.3328782001508 L436.04682727405145,696.6813408611265 M436.04682727405145,696.6813408611265 L399.51642544459105,710.4062144543664 M399.51642544459105,710.4062144543664 L29.599313033105602,496.2235828331421 M29.599313033105602,496.2235828331421 L66.1497322920469,482.6207125778937 M66.1497322920469,482.6207125778937 L56.44722361595609,477.0058398705843 M56.44722361595609,477.0058398705843 L92.97134568002213,463.4161416147544 M92.97134568002213,463.4161416147544 L102.67333904036138,469.02782403004 M102.67333904036138,469.02782403004 L139.170181354202,455.44489462002133 M139.170181354202,455.44489462002133 L129.4687051604102,449.8363993298073 M129.4687051604102,449.8363993298073 L165.93932527251306,436.26660653248825 M165.93932527251306,436.26660653248825 L175.64028245337707,441.87191786082275 M581.899993153915,641.8827104745149 L582.3352624135166,638.8059138534709 M212.51119264715044,425.23813409409576 L582.3352624135166,638.8059138534709 M582.3352624135166,638.8059138534709 L581.0879274205028,631.2869259156375 M211.2412557688977,417.72758804406504 L581.0879274205028,631.2869259156375 M582.3469516455873,630.3013838402394 L212.4995772067515,416.74705432994404 M581.0879274205028,631.2869259156375 L582.3469516455873,630.3013838402394 M167.6115839458685,424.2334983051965 L177.31333521536573,429.83818657401184 M131.1391169474108,437.79979605960426 L167.6115839458685,424.2334983051965 M140.84138740188632,443.40766798582456 L131.1391169474108,437.79979605960426 M104.3426859138765,456.98710525392806 L140.84138740188632,443.40766798582456 M94.63989812105058,451.3760465063973 L104.3426859138765,456.98710525392806 M58.113919740377014,464.9622479151852 L94.63989812105058,451.3760465063973 M67.81722302046472,470.57649665023695 L58.113919740377014,464.9622479151852 M31.264956860816312,484.1758611644207 L67.81722302046472,470.57649665023695 M401.21245075806075,698.3347400736245 L31.264956860816312,484.1758611644207 M437.74469286022617,684.6133838483042 L401.21245075806075,698.3347400736245 M447.511362172051,690.264295630285 L437.74469286022617,684.6133838483042 M484.0161884380278,676.5498096056554 L447.511362172051,690.264295630285 M474.2500613239064,670.9021221427072 L484.0161884380278,676.5498096056554 M510.72859818358893,657.2009357517022 L474.2500613239064,670.9021221427072 M520.4941812565064,662.845402107773 L510.72859818358893,657.2009357517022 M556.945348532976,649.1510747736527 L520.4941812565064,662.845402107773 M547.1803113402699,643.5098263146676 L556.945348532976,649.1510747736527 M582.3469516455873,630.3013838402394 L547.1803113402699,643.5098263146676 M165.93932527251306,436.26660653248825 L167.6115839458685,424.2334983051965 M545.4769036692386,655.5672639884704 L547.1803113402699,643.5098263146676 M555.2411373008614,661.2091370910343 L556.945348532976,649.1510747736527 M518.7918099007887,674.9069716521078 L520.4941812565064,662.845402107773 M509.0270305674254,669.2618803477358 L510.72859818358893,657.2009357517022 M472.55034623170815,682.9665704281895 L474.2500613239064,670.9021221427072 M482.31566942804284,688.614883143437 L484.0161884380278,676.5498096056554 M445.81269249015,702.3328782001508 L447.511362172051,690.264295630285 M436.04682727405145,696.6813408611265 L437.74469286022617,684.6133838483042 M399.51642544459105,710.4062144543664 L401.21245075806075,698.3347400736245 M29.599313033105602,496.2235828331421 L31.264956860816312,484.1758611644207 M66.1497322920469,482.6207125778937 L67.81722302046472,470.57649665023695 M56.44722361595609,477.0058398705843 L58.113919740377014,464.9622479151852 M92.97134568002213,463.4161416147544 L94.63989812105058,451.3760465063973 M102.67333904036138,469.02782403004 L104.3426859138765,456.98710525392806 M139.170181354202,455.44489462002133 L140.84138740188632,443.40766798582456 M129.4687051604102,449.8363993298073 L131.1391169474108,437.79979605960426" stroke="black"  stroke-width="4"  fill="red"/>
<path d="M249.34633575181698,399.4450294712701 L247.64510476317437,389.3602667696702 M212.94643420001762,427.81220144380455 L211.2412557688977,417.72758804406504 M249.34633575181698,399.4450294712701 L212.94643420001762,427.81220144380455 M247.64510476317437,389.3602667696702 L211.2412557688977,417.72758804406504 M582.7627575583729,641.3828736793914 L581.0879274205028,631.2869259156375 M212.94643420001762,427.81220144380455 L582.7627575583729,641.3828736793914 M211.2412557688977,417.72758804406504 L581.0879274205028,631.2869259156375 M619.1829558441742,612.8708413280405 L617.51207981177,602.7747326961021 M582.7627575583729,641.3828736793914 L619.1829558441742,612.8708413280405 M581.0879274205028,631.2869259156375 L617.51207981177,602.7747326961021 M628.9471694205829,618.5055867709539 L627.2770978641414,608.4091803570077 M619.1829558441742,612.8708413280405 L628.9471694205829,618.5055867709539 M617.51207981177,602.7747326961021 L627.2770978641414,608.4091803570077 M665.3491678253215,590.004388043804 L663.6830407146806,579.907825487179 M628.9471694205829,618.5055867709539 L665.3491678253215,590.004388043804 M627.2770978641414,608.4091803570077 L663.6830407146806,579.907825487179 M655.5844283670023,584.373468634288 L653.9174966071529,574.2772041657248 M665.3491678253215,590.004388043804 L655.5844283670023,584.373468634288 M663.6830407146806,579.907825487179 L653.9174966071529,574.2772041657248 M691.9671876330036,555.8907463063681 L690.3042055785032,545.7943218748081 M655.5844283670023,584.373468634288 L691.9671876330036,555.8907463063681 M653.9174966071529,574.2772041657248 L690.3042055785032,545.7943218748081 M701.7324511422173,561.5178428713043 L700.0702739095998,551.4211200453126 M691.9671876330036,555.8907463063681 L701.7324511422173,561.5178428713043 M690.3042055785032,545.7943218748081 L700.0702739095998,551.4211200453126 M738.097027628942,533.0459426380054 L736.4387902579113,522.9490650642509 M701.7324511422173,561.5178428713043 L738.097027628942,533.0459426380054 M700.0702739095998,551.4211200453126 L736.4387902579113,522.9490650642509 M728.3312418971682,527.4226657316729 L726.672199532195,517.3260868575148 M738.097027628942,533.0459426380054 L728.3312418971682,527.4226657316729 M736.4387902579113,522.9490650642509 L726.672199532195,517.3260868575148 M764.6766240889195,498.9692057967357 L763.0215052437843,488.87248156378223 M728.3312418971682,527.4226657316729 L764.6766240889195,498.9692057967357 M726.672199532195,517.3260868575148 L763.0215052437843,488.87248156378223 M394.75951182564796,286.12163099710517 L393.07401159667234,276.0362986598741 M764.6766240889195,498.9692057967357 L394.75951182564796,286.12163099710517 M763.0215052437843,488.87248156378223 L393.07401159667234,276.0362986598741 M358.4341486587331,314.43071206228296 L356.74473148231016,304.3455136631807 M394.75951182564796,286.12163099710517 L358.4341486587331,314.43071206228296 M393.07401159667234,276.0362986598741 L356.74473148231016,304.3455136631807 M348.7315611179569,308.8438255640264 L347.04135023225626,298.75892742925197 M358.4341486587331,314.43071206228296 L348.7315611179569,308.8438255640264 M356.74473148231016,304.3455136631807 L347.04135023225626,298.75892742925197 M312.3881301672444,337.16362149585666 L310.6939863627093,327.0788660155785 M348.7315611179569,308.8438255640264 L312.3881301672444,337.16362149585666 M347.04135023225626,298.75892742925197 L310.6939863627093,327.0788660155785 M322.09018269965577,342.75429361918987 L320.3968324293365,332.66923817410014 M312.3881301672444,337.16362149585666 L322.09018269965577,342.75429361918987 M310.6939863627093,327.0788660155785 L320.3968324293365,332.66923817410014 M285.72758111519727,371.0923965870163 L284.0302877585387,361.00748957084113 M322.09018269965577,342.75429361918987 L285.72758111519727,371.0923965870163 M320.3968324293365,332.66923817410014 L284.0302877585387,361.00748957084113 M276.0260654141931,365.49793569067674 L274.32797869899605,355.4133283386075 M285.72758111519727,371.0923965870163 L276.0260654141931,365.49793569067674 M284.0302877585387,361.00748957084113 L274.32797869899605,355.4133283386075 M239.64535870791968,393.84677665119887 L237.94333453697956,383.76231331331667 M276.0260654141931,365.49793569067674 L239.64535870791968,393.84677665119887 M274.32797869899605,355.4133283386075 L237.94333453697956,383.76231331331667 M239.64535870791968,393.84677665119887 L249.34633575181698,399.4450294712701 M237.94333453697956,383.76231331331667 L247.64510476317437,389.3602667696702" stroke="black"  stroke-width="4"  fill="red"/>
<path d="M121.56579991231189,392.2956140672924 L111.95562433295271,395.8654780932025 M113.10199868191717,453.32301734051117 L103.4942898799971,456.8975512459642 M121.56579991231189,392.2956140672924 L113.10199868191717,453.32301734051117 M111.95562433295271,395.8654780932025 L103.4942898799971,456.8975512459642 M483.005652728398,667.2081684522668 L473.4032432122588,670.8147540331327 M113.10199868191717,453.32301734051117 L483.005652728398,667.2081684522668 M103.4942898799971,456.8975512459642 L473.4032432122588,670.8147540331327 M491.6233867311047,606.0604191618461 L482.018519308133,609.6623193772705 M483.005652728398,667.2081684522668 L491.6233867311047,606.0604191618461 M473.4032432122588,670.8147540331327 L482.018519308133,609.6623193772705 M501.39348785397857,611.7041455349198 L491.7887636485617,615.3068933319148 M491.6233867311047,606.0604191618461 L501.39348785397857,611.7041455349198 M482.018519308133,609.6623193772705 L491.7887636485617,615.3068933319148 M510.0212221399636,550.5111975942295 L500.4140329507936,554.1092487520073 M501.39348785397857,611.7041455349198 L510.0212221399636,550.5111975942295 M491.7887636485617,615.3068933319148 L500.4140329507936,554.1092487520073 M500.24704275869175,544.8706479373627 L490.63971011331614,548.467851922398 M510.0212221399636,550.5111975942295 L500.24704275869175,544.8706479373627 M500.4140329507936,554.1092487520073 L490.63971011331614,548.467851922398 M508.8766331209011,483.6388096552613 L499.26682791286413,487.2313352031011 M500.24704275869175,544.8706479373627 L508.8766331209011,483.6388096552613 M490.63971011331614,548.467851922398 L499.26682791286413,487.2313352031011 M518.6548940601248,489.2761768932725 L509.0452325457745,492.8695492050808 M508.8766331209011,483.6388096552613 L518.6548940601248,489.2761768932725 M499.26682791286413,487.2313352031011 L509.0452325457745,492.8695492050808 M527.2944973259911,427.9990472052094 L517.6823685796045,431.5877154361773 M518.6548940601248,489.2761768932725 L527.2944973259911,427.9990472052094 M509.0452325457745,492.8695492050808 L517.6823685796045,431.5877154361773 M517.5121515253442,422.3648680970158 L507.8998788463603,425.9526899754349 M527.2944973259911,427.9990472052094 L517.5121515253442,422.3648680970158 M517.6823685796045,431.5877154361773 L507.8998788463603,425.9526899754349 M526.1536102843112,361.04879059748095 L516.538869039254,364.63187274535403 M517.5121515253442,422.3648680970158 L526.1536102843112,361.04879059748095 M507.8998788463603,425.9526899754349 L516.538869039254,364.63187274535403 M155.47904892319434,147.7675282669995 L145.85896383494705,151.31863663601908 M526.1536102843112,361.04879059748095 L155.47904892319434,147.7675282669995 M516.538869039254,364.63187274535403 L145.85896383494705,151.31863663601908 M146.9920205856708,208.9623955768315 L137.3744130710353,212.5182279486634 M155.47904892319434,147.7675282669995 L146.9920205856708,208.9623955768315 M145.85896383494705,151.31863663601908 L137.3744130710353,212.5182279486634 M137.27320074045525,203.36480448323198 L127.65545635552445,206.9197995283767 M146.9920205856708,208.9623955768315 L137.27320074045525,203.36480448323198 M137.3744130710353,212.5182279486634 L127.65545635552445,206.9197995283767 M128.79602476941062,264.5145724681348 L119.18075699992312,268.0742551446383 M137.27320074045525,203.36480448323198 L128.79602476941062,264.5145724681348 M127.65545635552445,206.9197995283767 L119.18075699992312,268.0742551446383 M138.51080800016882,270.115343510128 L128.89567687068518,273.675863924366 M128.79602476941062,264.5145724681348 L138.51080800016882,270.115343510128 M119.18075699992312,268.0742551446383 L128.89567687068518,273.675863924366 M130.03539896252568,331.22640437214375 L120.42274925603687,334.791587696733 M138.51080800016882,270.115343510128 L130.03539896252568,331.22640437214375 M128.89567687068518,273.675863924366 L120.42274925603687,334.791587696733 M120.32464909718925,325.6224590500643 L110.71186297958229,329.186804228498 M130.03539896252568,331.22640437214375 L120.32464909718925,325.6224590500643 M120.42274925603687,334.791587696733 L110.71186297958229,329.186804228498 M111.85908016719134,386.688500125215 L102.24876840676615,390.257525596486 M120.32464909718925,325.6224590500643 L111.85908016719134,386.688500125215 M110.71186297958229,329.186804228498 L102.24876840676615,390.257525596486 M111.85908016719134,386.688500125215 L121.56579991231189,392.2956140672924 M102.24876840676615,390.257525596486 L111.95562433295271,395.8654780932025" stroke="black"  stroke-width="4"  fill="red"/>
<path d="M264.0862430286873,83.36313088090407 L264.07515323613717,72.08517455024503 M55.800517477607855,202.70924866853488 L55.77201551806979,191.42116761686395 M264.0862430286873,83.36313088090407 L55.800517477607855,202.70924866853488 M264.07515323613717,72.08517455024503 L55.77201551806979,191.42116761686395 M426.4804612135461,416.35103701726126 L426.4829198160336,405.044920172028 M55.800517477607855,202.70924866853488 L426.4804612135461,416.35103701726126 M55.77201551806979,191.42116761686395 L426.4829198160336,405.044920172028 M634.7667736184083,296.24464799545785 L634.7866445348199,284.9486566431876 M426.4804612135461,416.35103701726126 L634.7667736184083,296.24464799545785 M426.4829198160336,405.044920172028 L634.7866445348199,284.9486566431876 M634.7667736184083,296.24464799545785 L264.0862430286873,83.36313088090407 M634.7866445348199,284.9486566431876 L264.07515323613717,72.08517455024503" stroke="black"  stroke-width="4"  fill="red"/>
<path d="M367.9515919301791,23.849085301189405 L367.9491619083328,12.576191082676871 M264.0862430286873,83.36313088090407 L264.07515323613717,72.08517455024503 M367.9515919301791,23.849085301189405 L264.0862430286873,83.36313088090407 M367.9491619083328,12.576191082676871 L264.07515323613717,72.08517455024503 M634.7667736184083,296.24464799545785 L634.7866445348199,284.9486566431876 M264.0862430286873,83.36313088090407 L634.7667736184083,296.24464799545785 M264.07515323613717,72.08517455024503 L634.7866445348199,284.9486566431876 M738.6315342150409,236.35198775368747 L738.6600647547353,225.061059024786 M634.7667736184083,296.24464799545785 L738.6315342150409,236.35198775368747 M634.7866445348199,284.9486566431876 L738.6600647547353,225.061059024786 M738.6315342150409,236.35198775368747 L367.9515919301791,23.849085301189405 M738.6600647547353,225.061059024786 L367.9491619083328,12.576191082676871" stroke="black"  stroke-width="4"  fill="red"/>
<path d="M358.9668610702803,137.69381207583746 L368.6512639298347,131.15475352215867 M351.02191605415914,37.50809958032676 L360.7150749292634,30.97111914972777 M358.9668610702803,137.69381207583746 L351.02191605415914,37.50809958032676 M368.6512639298347,131.15475352215867 L360.7150749292634,30.97111914972777 M721.6911254399344,250.07902638035566 L731.3869064494838,243.505150917808 M351.02191605415914,37.50809958032676 L721.6911254399344,250.07902638035566 M360.7150749292634,30.97111914972777 L731.3869064494838,243.505150917808 M729.3484073357334,350.40311781340887 L739.0354241709349,343.8271782754414 M721.6911254399344,250.07902638035566 L729.3484073357334,350.40311781340887 M731.3869064494838,243.505150917808 L739.0354241709349,343.8271782754414 M729.3484073357334,350.40311781340887 L358.9668610702803,137.69381207583746 M739.0354241709349,343.8271782754414 L368.6512639298347,131.15475352215867" stroke="black"  stroke-width="4"  fill="red"/>
<path d="M369.89872175568996,142.35757026364138 L369.04925184013047,131.63374618808024 M137.09316194686892,299.5734039296607 L136.22112368905027,288.8442605902552 M369.89872175568996,142.35757026364138 L137.09316194686892,299.5734039296607 M369.04925184013047,131.63374618808024 L136.22112368905027,288.8442605902552 M507.38047551486466,513.1478018518651 L506.53921127691467,502.40391334129754 M137.09316194686892,299.5734039296607 L507.38047551486466,513.1478018518651 M136.22112368905027,288.8442605902552 L506.53921127691467,502.40391334129754 M740.2501406633959,355.044453806043 L739.4314660674795,344.3058480051467 M507.38047551486466,513.1478018518651 L740.2501406633959,355.044453806043 M506.53921127691467,502.40391334129754 L739.4314660674795,344.3058480051467 M740.2501406633959,355.044453806043 L369.89872175568996,142.35757026364138 M739.4314660674795,344.3058480051467 L369.04925184013047,131.63374618808024" stroke="black"  stroke-width="4"  fill="red"/></svg>