<svg viewBox="0 0 800 800" xmlns="http://www.w3.org/2000/svg"><path d="M759.9210196387959,211.10786923487638 L418.697683132413,407.8546232900993 M418.697683132413,407.8546232900993 L428.58297110738596,413.55231986194065 M769.8062120369508,216.77264200249726 L428.58297110738596,413.55231986194065 M759.9210196387959,211.10786923487638 L769.8062120369508,216.77264200249726 M759.9210196387959,211.10786923487638 L782.41337033617,507.0022220173593 M782.41337033617,507.0022220173593 L589.0640876530116,658.4030192290513 M395.1894768551987,731.2897814338778 L418.697683132413,407.8546232900993 M589.0640876530116,658.4030192290513 L395.1894768551987,731.2897814338778 M562.0884683752872,365.5302640272526 L559.560379513664,367.6377897077304 M559.560379513664,367.6377897077304 L557.2285363472171,370.2877935545836 M557.2285363472171,370.2877935545836 L555.2182876917354,373.33785612534973 M555.2182876917354,373.33785612534973 L553.6377075295727,376.62395755647896 M553.6377075295727,376.62395755647896 L552.571752543481,379.96951024215343 M552.571752543481,379.96951024215343 L552.0777077825577,383.1946391833988 M552.0777077825577,383.1946391833988 L552.1820970521435,386.1260107021731 M552.1820970521435,386.1260107021731 L552.8792723891668,388.60609654303767 M552.8792723891668,388.60609654303767 L554.131712975921,390.50159156465133 M554.131712975921,390.50159156465133 L555.8720719756681,391.71075746913516 M555.8720719756681,391.71075746913516 L558.0067846502124,392.1686401154321 M558.0067846502124,392.1686401154321 L560.4211181416485,391.8507229819049 M586.7135662364891,358.446827455047 L562.0884683752872,365.5302640272526 M560.4211181416485,391.8507229819049 L586.6776330305031,384.2908282643761 M592.2653117085466,355.2434959295592 L590.4229965438236,356.6669243764424 M590.4229965438236,356.6669243764424 L588.5549796969001,357.7447671964959 M588.5549796969001,357.7447671964959 L586.7135662364891,358.446827455047 M586.6776330305031,384.2908282643761 L588.5186981482796,383.5884285840037 M588.5186981482796,383.5884285840037 L590.3863615345516,382.5103801864432 M590.3863615345516,382.5103801864432 L592.2283280148423,381.0868857545402 M616.8979009227879,333.9087896478202 L592.2653117085466,355.2434959295592 M592.2283280148423,381.0868857545402 L618.4920993994356,358.335045959488 M618.4920993994356,358.335045959488 L620.9069887384144,355.86635058371104 M620.9069887384144,355.86635058371104 L623.0441128326484,352.9439792309757 M623.0441128326484,352.9439792309757 L624.7886812309082,349.72489638112427 M624.7886812309082,349.72489638112427 L626.0469797774407,346.38206018630746 M626.0469797774407,346.38206018630746 L626.7514126236155,343.09495090317773 M626.7514126236155,343.09495090317773 L626.8641091369165,340.0402068033235 M626.8641091369165,340.0402068033235 L626.3789815054052,337.3819374459122 M626.3789815054052,337.3819374459122 L625.3220457483877,335.2629773293118 M625.3220457483877,335.2629773293118 L623.7500443853111,333.79725779148504 M623.7500443853111,333.79725779148504 L621.747398645432,333.0635402721396 M621.747398645432,333.0635402721396 L619.4216981150935,333.1013761623516 M619.4216981150935,333.1013761623516 L616.8979009227879,333.9087896478202 M523.6386173993714,417.8408345170682 L514.9154214036027,479.7238737913471 M513.9311184793935,421.46465445890107 L523.6386173993714,417.8408345170682 M513.9311184793935,421.46465445890107 L505.2104142971929,483.3524442439106 M514.9154214036027,479.7238737913471 L505.2104142971929,483.3524442439106 M736.539469166583,523.9347015485489 L699.8146272341506,552.686951697837 M734.8643850184234,513.737871387008 L736.539469166583,523.9347015485489 M699.8146272341506,552.686951697837 L698.1355642503308,542.49027766416 M734.8643850184234,513.737871387008 L698.1355642503308,542.49027766416 M663.0708939297798,581.4539903716537 L626.308260915284,610.2358262694297 M661.3878419948677,571.2574780415789 L663.0708939297798,581.4539903716537 M626.308260915284,610.2358262694297 L624.6212255156478,600.0394714755155 M661.3878419948677,571.2574780415789 L624.6212255156478,600.0394714755155 M506.19821389035536,541.56438948157 L497.4870012124244,603.3624181695413 M496.49570374043054,545.1976849611433 L506.19821389035536,541.56438948157 M496.49570374043054,545.1976849611433 L487.7869806053628,607.0004566457524 M497.4870012124244,603.3624181695413 L487.7869806053628,607.0004566457524 M515.060502870616,667.1911665109099 L551.8714752632139,653.3591527558958 M516.7793461515848,655.0103305967714 L515.060502870616,667.1911665109099 M551.8714752632139,653.3591527558958 L553.5921767517965,641.1818586865174 M516.7793461515848,655.0103305967714 L553.5921767517965,641.1818586865174 M441.3573005326116,694.8857263658545 L478.2224525011327,681.0333554812375 M443.0724052603872,682.6978082043784 L441.3573005326116,694.8857263658545 M478.2224525011327,681.0333554812375 L479.9394249816477,668.8489809875377 M443.0724052603872,682.6978082043784 L479.9394249816477,668.8489809875377 M428.58297110738596,413.55231986194065 L405.05228867288986,737.0026999477552 M395.1894768551987,731.2897814338778 L405.05228867288986,737.0026999477552 M598.9240088312438,664.0988090684366 L792.2760742238819,512.6776932017876 M792.2760742238819,512.6776932017876 L769.8062120369508,216.77264200249726 M405.05228867288986,737.0026999477552 L598.9240088312438,664.0988090684366 M570.3016134697799,397.5374856176388 L567.887358669438,397.85559087349054 M567.887358669438,397.85559087349054 L565.7527692362921,397.3978436394042 M565.7527692362921,397.3978436394042 L564.012571413075,396.1887531493279 M564.012571413075,396.1887531493279 L562.7603212801986,394.29326948230045 M562.7603212801986,394.29326948230045 L562.0633554512671,391.8131303140438 M562.0633554512671,391.8131303140438 L561.9591834853169,388.8816436474983 M561.9591834853169,388.8816436474983 L562.4534416696649,385.6563439246334 M562.4534416696649,385.6563439246334 L563.5195947291754,382.31057400386265 M563.5195947291754,382.31057400386265 L565.1003469638557,379.024220567414 M565.1003469638557,379.024220567414 L567.1107324427112,375.973884770633 M567.1107324427112,375.973884770633 L569.4426698205466,373.32360117305285 M569.4426698205466,373.32360117305285 L571.9708052150166,371.21580425708936 M571.9708052150166,371.21580425708936 L596.5953791622868,364.1302888522591 M602.1471230784339,360.92642146581676 L600.3047822490935,362.35004281713873 M600.3047822490935,362.35004281713873 L598.4367659256905,363.42806594083845 M598.4367659256905,363.42806594083845 L596.5953791622868,364.1302888522591 M602.1471230784339,360.92642146581676 L626.7802224007223,339.5890398849566 M626.7802224007223,339.5890398849566 L629.3039716445206,338.7814100189141 M629.3039716445206,338.7814100189141 L631.6295766585505,338.74340428932817 M631.6295766585505,338.74340428932817 L633.6320844510257,339.4770076279039 M633.6320844510257,339.4770076279039 L635.2039128588526,340.94267476634514 M635.2039128588526,340.94267476634514 L636.260649948421,343.06164707202646 M636.260649948421,343.06164707202646 L636.7455638830495,345.71999254241814 M636.7455638830495,345.71999254241814 L636.6326501278556,348.7748725854133 M636.6326501278556,348.7748725854133 L635.9280081671526,352.0621703385044 M635.9280081671526,352.0621703385044 L634.6695198709265,355.40523740565476 M634.6695198709265,355.40523740565476 L632.9247912730813,358.62458113753246 M632.9247912730813,358.62458113753246 L630.7875451346599,361.5472293722245 M630.7875451346599,361.5472293722245 L628.3725784577626,364.0162027625259 M628.3725784577626,364.0162027625259 L602.1082633087943,386.770895178806 M602.1082633087943,386.770895178806 L600.2662711735318,388.1945824981851 M600.2662711735318,388.1945824981851 L598.3986083104827,389.27281119959815 M598.3986083104827,389.27281119959815 L596.5575698794811,389.9753735502109 M596.5575698794811,389.9753735502109 L570.3016134697799,397.5374856176388 M792.2760742238819,512.6776932017876 L782.41337033617,507.0022220173593 M589.0640876530116,658.4030192290513 L598.9240088312438,664.0988090684366 M562.0884683752872,365.5302640272526 L571.9708052150166,371.21580425708936 M560.4211181416485,391.8507229819049 L570.3016134697799,397.5374856176388 M586.7135662364891,358.446827455047 L596.5953791622868,364.1302888522591 M586.6776330305031,384.2908282643761 L596.5575698794811,389.9753735502109 M592.2653117085466,355.2434959295592 L602.1471230784339,360.92642146581676 M592.2283280148423,381.0868857545402 L602.1082633087943,386.770895178806 M616.8979009227879,333.9087896478202 L626.7802224007223,339.5890398849566 M618.4920993994356,358.335045959488 L628.3725784577626,364.0162027625259 M528.5784894604409,420.68597253721333 L523.6386173993714,417.8408345170682 M519.8532306274203,482.5706217068419 L528.5784894604409,420.68597253721333 M514.9154214036027,479.7238737913471 L519.8532306274203,482.5706217068419 M518.8710632433263,424.31021988022974 L513.9311184793935,421.46465445890107 M528.5784894604409,420.68597253721333 L518.8710632433263,424.31021988022974 M510.148296103206,486.1996197683394 L518.8710632433263,424.31021988022974 M505.2104142971929,483.3524442439106 L510.148296103206,486.1996197683394 M519.8532306274203,482.5706217068419 L510.148296103206,486.1996197683394 M741.4709780328848,526.7743337791665 L736.539469166583,523.9347015485489 M704.7458724422835,555.5285128032144 L741.4709780328848,526.7743337791665 M699.8146272341506,552.686951697837 L704.7458724422835,555.5285128032144 M739.7963004089719,516.5773527922745 L734.8643850184234,513.737871387008 M741.4709780328848,526.7743337791665 L739.7963004089719,516.5773527922745 M704.7458724422835,555.5285128032144 L703.0672158958375,545.3316880982999 M698.1355642503308,542.49027766416 L703.0672158958375,545.3316880982999 M703.0672158958375,545.3316880982999 L739.7963004089719,516.5773527922745 M668.0018745564962,584.2974819606966 L663.0708939297798,581.4539903716537 M631.2389760359824,613.0812499524784 L668.0018745564962,584.2974819606966 M626.308260915284,610.2358262694297 L631.2389760359824,613.0812499524784 M666.3192289717748,574.1008191141066 L661.3878419948677,571.2574780415789 M668.0018745564962,584.2974819606966 L666.3192289717748,574.1008191141066 M631.2389760359824,613.0812499524784 L629.5523468990649,602.8847447966118 M624.6212255156478,600.0394714755155 L629.5523468990649,602.8847447966118 M629.5523468990649,602.8847447966118 L666.3192289717748,574.1008191141066 M511.13396194521033,544.4127444084847 L506.19821389035536,541.56438948157 M502.42068976462764,606.2123772281443 L511.13396194521033,544.4127444084847 M497.4870012124244,603.3624181695413 L502.42068976462764,606.2123772281443 M501.43152425753505,548.0464677034063 L496.49570374043054,545.1976849611433 M511.13396194521033,544.4127444084847 L501.43152425753505,548.0464677034063 M492.7207414992792,609.8508437261455 L501.43152425753505,548.0464677034063 M487.7869806053628,607.0004566457524 L492.7207414992792,609.8508437261455 M502.42068976462764,606.2123772281443 L492.7207414992792,609.8508437261455 M519.9915038919871,670.0418147475255 L515.060502870616,667.1911665109099 M556.8022006414116,656.2081758269219 L519.9915038919871,670.0418147475255 M551.8714752632139,653.3591527558958 L556.8022006414116,656.2081758269219 M521.7107530578883,657.8606632561616 L516.7793461515848,655.0103305967714 M519.9915038919871,670.0418147475255 L521.7107530578883,657.8606632561616 M556.8022006414116,656.2081758269219 L558.5233079247851,644.0305663341906 M553.5921767517965,641.1818586865174 L558.5233079247851,644.0305663341906 M558.5233079247851,644.0305663341906 L521.7107530578883,657.8606632561616 M446.2888500526659,697.7396297973592 L441.3573005326116,694.8857263658545 M483.1537282372032,683.885630504034 L446.2888500526659,697.7396297973592 M478.2224525011327,681.0333554812375 L483.1537282372032,683.885630504034 M448.00436084526757,685.5513957512674 L443.0724052603872,682.6978082043784 M446.2888500526659,697.7396297973592 L448.00436084526757,685.5513957512674 M483.1537282372032,683.885630504034 L484.87110669267133,671.7009402796018 M479.9394249816477,668.8489809875377 L484.87110669267133,671.7009402796018 M484.87110669267133,671.7009402796018 L448.00436084526757,685.5513957512674" stroke="black"  stroke-width="4"  fill="red"/>
<path d="M375.6825763210843,-9.082429780992584 L34.459238568281194,186.38671320944354 M375.6825763210843,-9.082429780992584 L385.5036672916727,-3.454390746679337 M385.5036672916727,-3.454390746679337 L372.56410728442074,3.9592461109138526 M372.56410728442074,3.9592461109138526 L367.6533575337813,1.1444920687492868 M52.38119512209096,181.7625902876132 L367.6533575337813,1.1444920687492868 M52.38119512209096,181.7625902876132 L57.29190378025976,184.5924072665603 M57.29190378025976,184.5924072665603 L44.28023939267837,192.04735586051112 M34.459238568281194,186.38671320944354 L44.28023939267837,192.04735586051112 M375.6825763210843,-9.082429780992584 L399.0459107268671,286.39426350701984 M399.0459107268671,286.39426350701984 L205.80651712605655,437.0062619310074 M11.822017380288685,509.22865958180955 L34.459238568281194,186.38671320944354 M205.80651712605655,437.0062619310074 L11.822017380288685,509.22865958180955 M177.96279345938413,144.53375141421412 L175.43653471361563,146.63074649763826 M175.43653471361563,146.63074649763826 L173.10836661480025,149.26988398094346 M173.10836661480025,149.26988398094346 L171.1034403388235,152.30932861805644 M171.1034403388235,152.30932861805644 L169.5295434571182,155.58563165081813 M169.5295434571182,155.58563165081813 L168.47127345171984,158.92273230133907 M168.47127345171984,158.92273230133907 L167.98550213231098,162.14121013444927 M167.98550213231098,162.14121013444927 L168.0983086742666,165.06808900272756 M168.0983086742666,165.06808900272756 L168.8035928545517,167.54608202769865 M168.8035928545517,167.54608202769865 L170.06339809895798,169.4419963733569 M170.06339809895798,169.4419963733569 L171.8099822542801,170.65407074283468 M171.8099822542801,170.65407074283468 L173.94944619183048,171.1171943356685 M173.94944619183048,171.1171943356685 L176.3668020236336,170.8065685685074 M202.60792089370585,137.53092627887338 L177.96279345938413,144.53375141421412 M176.3668020236336,170.8065685685074 L202.64466799196776,163.332656731044 M208.15966646158884,134.34838892048845 L206.31836552328627,135.7643287508792 M206.31836552328627,135.7643287508792 L204.4503486441143,136.8351748600021 M204.4503486441143,136.8351748600021 L202.60792089370585,137.53092627887338 M202.64466799196776,163.332656731044 L204.4867470159541,162.63656657206903 M204.4867470159541,162.63656657206903 L206.3544104344501,161.5655149000728 M206.3544104344501,161.5655149000728 L208.19536307205976,160.14950843186492 M232.7722269339954,113.1175559648301 L208.15966646158884,134.34838892048845 M208.19536307205976,160.14950843186492 L234.43778426064463,137.5084268951054 M234.43778426064463,137.5084268951054 L236.84965133641558,135.0505286681572 M236.84965133641558,135.0505286681572 L238.98202423506285,132.13891550217386 M238.98202423506285,132.13891550217386 L240.7203675321389,128.92997420827538 M240.7203675321389,128.92997420827538 L241.97130145986603,125.59611832068032 M241.97130145986603,125.59611832068032 L242.6676254843665,122.31634605421812 M242.6676254843665,122.31634605421812 L242.77190472870365,119.26690154187895 M242.77190472870365,119.26690154187895 L242.27850364075408,116.61160963099093 M242.27850364075408,116.61160963099093 L241.21388287041242,114.49314467984118 M241.21388287041242,114.49314467984118 L239.63519817795267,113.0254110468486 M239.63519817795267,113.0254110468486 L237.62722999556743,112.28727806611977 M237.62722999556743,112.28727806611977 L235.29785432353646,112.3185338991899 M235.29785432353646,112.3185338991899 L232.7722269339954,113.1175559648301 M129.8847615360438,200.24172875249752 L121.3240032406294,262.00409354218334 M131.03453062732058,258.4086961323036 L121.3240032406294,262.00409354218334 M139.59778997581225,196.65106565609221 L131.03453062732058,258.4086961323036 M129.8847615360438,200.24172875249752 L139.59778997581225,196.65106565609221 M351.43784776867767,292.9853976335386 L314.7298551605654,321.58802003834535 M351.43784776867767,292.9853976335386 L353.14441514916814,303.1704320393735 M316.44039454041234,331.77291022414056 L314.7298551605654,321.58802003834535 M353.14441514916814,303.1704320393735 L316.44039454041234,331.77291022414056 M278.00303299737766,350.2053117624987 L241.2573886459954,378.8372717108699 M278.00303299737766,350.2053117624987 L279.7175544677814,360.3900521996731 M242.9758866982398,389.02186655439317 L241.2573886459954,378.8372717108699 M279.7175544677814,360.3900521996731 L242.9758866982398,389.02186655439317 M112.76910947743517,323.7241334623418 L104.22007429712028,385.40192811642135 M113.92559677110694,381.7970948720602 L104.22007429712028,385.40192811642135 M122.47713072396937,320.12402711888296 L113.92559677110694,381.7970948720602 M112.76910947743517,323.7241334623418 L122.47713072396937,320.12402711888296 M131.70716124702426,445.5717584913797 L168.53909981700306,431.86582312400003 M133.39453502479006,433.41550603016896 L131.70716124702426,445.5717584913797 M168.53909981700306,431.86582312400003 L170.2283387048404,419.7131005103294 M133.39453502479006,433.41550603016896 L170.2283387048404,419.7131005103294 M57.96224445144526,473.0137849562787 L94.84821727443398,459.28774358566255 M59.6458659017772,460.8504742148462 L57.96224445144526,473.0137849562787 M94.84821727443398,459.28774358566255 L96.53371335885743,447.127964513802 M59.6458659017772,460.8504742148462 L96.53371335885743,447.127964513802 M408.84481586852587,292.0330218438408 L399.0459107268671,286.39426350701984 M408.84481586852587,292.0330218438408 L385.5036672916727,-3.454390746679337 M44.28023939267837,192.04735586051112 L21.620820646140146,514.9045018898735 M21.620820646140146,514.9045018898735 L215.60257163144533,442.66515785007806 M57.32027947824116,195.99264133058045 L57.29190378025976,184.5924072665603 M215.60257163144533,442.66515785007806 L408.84481586852587,292.0330218438408 M372.5661525495712,15.344142752161474 L57.32027947824116,195.99264133058045 M372.56410728442074,3.9592461109138526 L372.5661525495712,15.344142752161474 M363.488402775455,130.32030022270817 L355.46848693243754,29.1394766028817 M373.26885544133336,123.71592362896553 L363.488402775455,130.32030022270817 M355.46848693243754,29.1394766028817 L365.25778253442684,22.53719855123194 M373.26885544133336,123.71592362896553 L365.25778253442684,22.53719855123194 M374.5282487270886,135.03000079460662 L139.41370903016912,293.8162591617686 M373.67076347480014,124.19966096727012 L374.5282487270886,135.03000079460662 M373.67076347480014,124.19966096727012 L138.5334313971639,282.9805478129589 M139.41370903016912,293.8162591617686 L138.5334313971639,282.9805478129589 M186.18314904814733,176.4564103653519 L183.76586958339672,176.76722198987824 M183.76586958339672,176.76722198987824 L181.62652613713598,176.30423180773352 M181.62652613713598,176.30423180773352 L179.88010012984984,175.0922312222214 M179.88010012984984,175.0922312222214 L178.62048219516808,173.1963270595155 M178.62048219516808,173.1963270595155 L177.91540443201896,170.71828005738905 M177.91540443201896,170.71828005738905 L177.80281232211024,167.79128594845434 M177.80281232211024,167.79128594845434 L178.2887945670755,164.57263780275036 M178.2887945670755,164.57263780275036 L179.34726065603869,161.23532092286186 M179.34726065603869,161.23532092286186 L180.9213282354668,157.9587673731092 M180.9213282354668,157.9587673731092 L182.9263906489794,154.91905140084134 M182.9263906489794,154.91905140084134 L185.25465299925585,152.27963635847402 M185.25465299925585,152.27963635847402 L187.7809590417032,150.18237241416404 M212.46047795540633,168.980305810915 L186.18314904814733,176.4564103653519 M187.7809590417032,150.18237241416404 L212.42558265714507,143.1774915460345 M218.01117449841203,165.79662685867845 L216.1701955432618,167.21282448546987 M216.1701955432618,167.21282448546987 L214.30253163253636,168.28405470879093 M214.30253163253636,168.28405470879093 L212.46047795540633,168.980305810915 M217.9773296887712,139.99442353618156 L216.13600242290613,141.41055454168304 M216.13600242290613,141.41055454168304 L214.2679850512257,142.48157920159633 M214.2679850512257,142.48157920159633 L212.42558265714507,143.1774915460345 M244.25414659233797,143.152717350312 L218.01117449841203,165.79662685867845 M217.9773296887712,139.99442353618156 L242.59040696906442,118.76093840254725 M242.59040696906442,118.76093840254725 L245.11598839401697,117.96170232217844 M245.11598839401697,117.96170232217844 L247.44527104252245,117.93027882848747 M247.44527104252245,117.93027882848747 L249.4531041451294,118.66829950310137 M249.4531041451294,118.66829950310137 L251.03161897058146,120.13598220662277 M251.03161897058146,120.13598220662277 L252.09604421639946,122.25446033315859 M252.09604421639946,122.25446033315859 L252.5892346361499,124.90982880682657 M252.5892346361499,124.90982880682657 L252.48474090166374,127.95940915150612 M252.48474090166374,127.95940915150612 L251.78821008964772,131.23936922250664 M251.78821008964772,131.23936922250664 L250.53708818950216,134.5734547981246 M250.53708818950216,134.5734547981246 L248.79858582503007,137.782655334411 M248.79858582503007,137.782655334411 L246.6660913084874,140.69454337539054 M246.6660913084874,140.69454337539054 L244.25414659233797,143.152717350312 M157.98699526652916,140.5014444583631 L115.17962077243953,449.0943152911237 M148.27160312524117,144.08818225217382 L157.98699526652916,140.5014444583631 M115.17962077243953,449.0943152911237 L105.47672703793967,452.70471190369693 M148.27160312524117,144.08818225217382 L105.47672703793967,452.70471190369693 M30.849231692965816,492.4241436048856 L215.14148500391906,423.82806903494946 M32.531790622367225,480.2566620319246 L30.849231692965816,492.4241436048856 M215.14148500391906,423.82806903494946 L215.57334880811456,420.7267955166528 M32.531790622367225,480.2566620319246 L215.56192595850604,412.1513539600231 M216.01280323508925,423.32642146107446 L215.57334880811456,420.7267955166528 M397.9279741615568,270.0360485002696 L215.56192595850604,412.1513539600231 M399.629783949395,280.2215215438273 L216.01280323508925,423.32642146107446 M397.9279741615568,270.0360485002696 L399.629783949395,280.2215215438273 M372.5661525495712,15.344142752161474 L367.6558116475786,12.529149075209887 M367.6558116475786,12.529149075209887 L367.6533575337813,1.1444920687492868 M52.409979658436555,193.16258469396135 L52.38119512209096,181.7625902876132 M52.409979658436555,193.16258469396135 L367.6558116475786,12.529149075209887 M52.409979658436555,193.16258469396135 L57.32027947824116,195.99264133058045 M11.822017380288685,509.22865958180955 L21.620820646140146,514.9045018898735 M205.80651712605655,437.0062619310074 L215.60257163144533,442.66515785007806 M177.96279345938413,144.53375141421412 L187.7809590417032,150.18237241416404 M176.3668020236336,170.8065685685074 L186.18314904814733,176.4564103653519 M202.60792089370585,137.53092627887338 L212.42558265714507,143.1774915460345 M202.64466799196776,163.332656731044 L212.46047795540633,168.980305810915 M208.15966646158884,134.34838892048845 L217.9773296887712,139.99442353618156 M208.19536307205976,160.14950843186492 L218.01117449841203,165.79662685867845 M232.7722269339954,113.1175559648301 L242.59040696906442,118.76093840254725 M234.43778426064463,137.5084268951054 L244.25414659233797,143.152717350312 M104.22007429712028,385.40192811642135 L109.12182475491136,388.23382177252205 M117.67289524414406,326.55442686858396 L112.76910947743517,323.7241334623418 M126.2298259545313,264.83278384035924 L117.67289524414406,326.55442686858396 M121.3240032406294,262.00409354218334 L126.2298259545313,264.83278384035924 M134.79262283864688,203.06881307889114 L129.8847615360438,200.24172875249752 M143.3612919336171,141.26247102293445 L134.79262283864688,203.06881307889114 M148.27160312524117,144.08818225217382 L143.3612919336171,141.26247102293445 M100.5766021442306,449.87098484430226 L105.47672703793967,452.70471190369693 M109.12182475491136,388.23382177252205 L100.5766021442306,449.87098484430226 M131.03453062732058,258.4086961323036 L135.94028432125185,261.23696337980425 M135.94028432125185,261.23696337980425 L126.2298259545313,264.83278384035924 M113.92559677110694,381.7970948720602 L118.82727844072633,384.62856506498133 M127.38084758631248,322.9538972682133 L122.47713072396937,320.12402711888296 M135.94028432125185,261.23696337980425 L127.38084758631248,322.9538972682133 M144.5055821421298,199.4777271393731 L139.59778997581225,196.65106565609221 M153.07675337410507,137.67615592138162 L144.5055821421298,199.4777271393731 M157.98699526652916,140.5014444583631 L153.07675337410507,137.67615592138162 M110.2795645962496,446.26101195865976 L115.17962077243953,449.0943152911237 M118.82727844072633,384.62856506498133 L110.2795645962496,446.26101195865976 M144.5055821421298,199.4777271393731 L134.79262283864688,203.06881307889114 M241.2573886459954,378.8372717108699 L246.15657059205571,381.66411587114527 M282.90248699028234,353.0302409023576 L278.00303299737766,350.2053117624987 M319.6295802781123,324.41103574873114 L282.90248699028234,353.0302409023576 M314.7298551605654,321.58802003834535 L319.6295802781123,324.41103574873114 M356.33784308998054,295.8065015047438 L351.43784776867767,292.9853976335386 M393.02730236960525,267.2166206198939 L356.33784308998054,295.8065015047438 M397.9279741615568,270.0360485002696 L393.02730236960525,267.2166206198939 M215.56192595850604,412.1513539600231 L210.6625999412986,409.3224240960629 M246.15657059205571,381.66411587114527 L210.6625999412986,409.3224240960629 M358.0440096450443,305.99168752621176 L353.14441514916814,303.1704320393735 M358.0440096450443,305.99168752621176 L356.33784308998054,295.8065015047438 M316.44039454041234,331.77291022414056 L321.3397189209218,334.5960773988985 M321.3397189209218,334.5960773988985 L319.6295802781123,324.41103574873114 M242.9758866982398,389.02186655439317 L247.87466808494716,391.84886187547784 M284.61660781234855,363.2151326520426 L279.7175544677814,360.3900521996731 M321.3397189209218,334.5960773988985 L284.61660781234855,363.2151326520426 M394.72951314345295,277.4019419073928 L358.0440096450443,305.99168752621176 M399.629783949395,280.2215215438273 L394.72951314345295,277.4019419073928 M211.11388720618913,420.4972743319899 L216.01280323508925,423.32642146107446 M247.87466808494716,391.84886187547784 L211.11388720618913,420.4972743319899 M284.61660781234855,363.2151326520426 L282.90248699028234,353.0302409023576 M247.87466808494716,391.84886187547784 L246.15657059205571,381.66411587114527 M118.82727844072633,384.62856506498133 L109.12182475491136,388.23382177252205 M127.38084758631248,322.9538972682133 L117.67289524414406,326.55442686858396 M168.53909981700306,431.86582312400003 L173.43787130168576,434.696382911665 M136.60619489659803,448.4039261534326 L131.70716124702426,445.5717584913797 M99.74751215657949,462.12152071952704 L136.60619489659803,448.4039261534326 M94.84821727443398,459.28774358566255 L99.74751215657949,462.12152071952704 M62.86179963161402,475.84917316127735 L57.96224445144526,473.0137849562787 M25.949008768907447,489.5869062720045 L62.86179963161402,475.84917316127735 M30.849231692965816,492.4241436048856 L25.949008768907447,489.5869062720045 M210.24256908791094,420.99888017458125 L215.14148500391906,423.82806903494946 M173.43787130168576,434.696382911665 L210.24256908791094,420.99888017458125 M138.29396977243806,436.24735891497585 L133.39453502479006,433.41550603016896 M136.60619489659803,448.4039261534326 L138.29396977243806,436.24735891497585 M173.43787130168576,434.696382911665 L175.12751120069885,422.54334567449587 M170.2283387048404,419.7131005103294 L175.12751120069885,422.54334567449587 M101.43340942585104,449.96142671703336 L138.29396977243806,436.24735891497585 M96.53371335885743,447.127964513802 L101.43340942585104,449.96142671703336 M64.54582235341991,463.68554733545005 L59.6458659017772,460.8504742148462 M27.631166279289573,477.4197399481648 L64.54582235341991,463.68554733545005 M32.531790622367225,480.2566620319246 L27.631166279289573,477.4197399481648 M175.12751120069885,422.54334567449587 L210.6625999412986,409.3224240960629 M62.86179963161402,475.84917316127735 L64.54582235341991,463.68554733545005 M99.74751215657949,462.12152071952704 L101.43340942585104,449.96142671703336 M363.488402775455,130.32030022270817 L358.58200352407755,127.50256594583954 M350.55828998694653,26.32358283818712 L355.46848693243754,29.1394766028817 M358.58200352407755,127.50256594583954 L350.55828998694653,26.32358283818712 M358.58200352407755,127.50256594583954 L368.36242040116935,120.89867724292424 M373.26885544133336,123.71592362896553 L368.36242040116935,120.89867724292424 M360.3475496893009,19.72179286147491 L365.25778253442684,22.53719855123194 M350.55828998694653,26.32358283818712 L360.3475496893009,19.72179286147491 M368.36242040116935,120.89867724292424 L360.3475496893009,19.72179286147491 M374.5282487270886,135.03000079460662 L369.6222458907108,132.21256200364195 M134.50858330813685,290.98707967214136 L139.41370903016912,293.8162591617686 M369.6222458907108,132.21256200364195 L134.50858330813685,290.98707967214136 M369.6222458907108,132.21256200364195 L368.76435408063156,121.38241878297805 M373.67076347480014,124.19966096727012 L368.76435408063156,121.38241878297805 M133.6278994066173,280.15156445088724 L138.5334313971639,282.9805478129589 M368.76435408063156,121.38241878297805 L133.6278994066173,280.15156445088724 M134.50858330813685,290.98707967214136 L133.6278994066173,280.15156445088724 M153.07675337410507,137.67615592138162 L143.3612919336171,141.26247102293445 M110.2795645962496,446.26101195865976 L100.5766021442306,449.87098484430226 M25.949008768907447,489.5869062720045 L27.631166279289573,477.4197399481648 M210.67433054058904,417.8976869217011 L215.57334880811456,420.7267955166528 M210.24256908791094,420.99888017458125 L210.67433054058904,417.8976869217011 M211.11388720618913,420.4972743319899 L210.67433054058904,417.8976869217011 M394.72951314345295,277.4019419073928 L393.02730236960525,267.2166206198939" stroke="black"  stroke-width="4"  fill="red"/>
<path d="M375.5384229735963,710.962882538877 L357.3699842355879,779.0596642178687 M347.5251238644169,773.3513266603916 L357.3699842355879,779.0596642178687 M365.6893941967995,705.2586946381641 L347.5251238644169,773.3513266603916 M375.5384229735963,710.962882538877 L365.6893941967995,705.2586946381641 M375.5384229735963,710.962882538877 L531.5538315039535,652.3523211307113 M531.5538315039535,652.3523211307113 L687.2196951368263,530.5148388474219 M705.1733717208574,577.5289877573299 L687.2196951368263,530.5148388474219 M705.1733717208574,577.5289877573299 L746.8502220474928,553.3798157213698 M715.3879198711863,470.85678435234917 L746.8502220474928,553.3798157213698 M714.8456707092704,471.398563562952 L715.3879198711863,470.85678435234917 M714.863922994001,463.5716827748538 L714.8456707092704,471.398563562952 M531.5986860822655,606.952699194791 L714.863922994001,463.5716827748538 M347.8356536085375,675.9039765821237 L531.5986860822655,606.952699194791 M347.8384937658478,683.743039950291 L347.8356536085375,675.9039765821237 M347.29330391601627,683.8297219950434 L347.8384937658478,683.743039950291 M315.41658698224046,803.3690781928631 L347.29330391601627,683.8297219950434 M315.41658698224046,803.3690781928631 L357.3699842355879,779.0596642178687 M347.5251238644169,773.3513266603916 L305.5717305087703,797.6566809475573 M315.41658698224046,803.3690781928631 L305.5717305087703,797.6566809475573 M521.7071129896118,646.661892500694 L365.6893941967995,705.2586946381641 M677.3707234265827,524.8407488399494 L521.7071129896118,646.661892500694 M695.3285749511647,571.85425038576 L677.3707234265827,524.8407488399494 M737.0054443842297,547.7090979647519 L695.3285749511647,571.85425038576 M705.5358129029767,465.1872092111931 L737.0054443842297,547.7090979647519 M704.9935800564283,465.7289266889432 L705.5358129029767,465.1872092111931 M705.0112648908402,457.90237222118066 L704.9935800564283,465.7289266889432 M705.0112648908402,457.90237222118066 L521.7486785919752,601.2641587785441 M521.7486785919752,601.2641587785441 L337.98292829613655,670.1992366845127 M337.98633591535605,678.0379737378314 L337.98292829613655,670.1992366845127 M337.44112955170834,678.124612597521 L337.98633591535605,678.0379737378314 M305.5717305087703,797.6566809475573 L337.44112955170834,678.124612597521 M531.5538315039535,652.3523211307113 L521.7071129896118,646.661892500694 M677.3707234265827,524.8407488399494 L687.2196951368263,530.5148388474219 M705.1733717208574,577.5289877573299 L695.3285749511647,571.85425038576 M737.0054443842297,547.7090979647519 L746.8502220474928,553.3798157213698 M715.3879198711863,470.85678435234917 L705.5358129029767,465.1872092111931 M704.9935800564283,465.7289266889432 L714.8456707092704,471.398563562952 M705.0112648908402,457.90237222118066 L714.863922994001,463.5716827748538 M531.5986860822655,606.952699194791 L521.7486785919752,601.2641587785441 M347.8356536085375,675.9039765821237 L337.98292829613655,670.1992366845127 M347.8384937658478,683.743039950291 L337.98633591535605,678.0379737378314 M347.29330391601627,683.8297219950434 L337.44112955170834,678.124612597521" stroke="black"  stroke-width="4"  fill="red"/>
<path d="M385.38909703856814,716.6680233287641 L367.2164887557698,784.7689551009589 M357.3699842355879,779.0596642178687 L367.2164887557698,784.7689551009589 M375.5384229735963,710.962882538877 L357.3699842355879,779.0596642178687 M385.38909703856814,716.6680233287641 L375.5384229735963,710.962882538877 M385.38909703856814,716.6680233287641 L541.4021923616494,658.0436988726215 M541.4021923616494,658.0436988726215 L697.0703077788082,536.1898742118974 M715.0198077823621,583.2046700494221 L697.0703077788082,536.1898742118974 M715.0198077823621,583.2046700494221 L756.6966384186283,559.0514773946659 M725.2416684250024,476.5273041739656 L756.6966384186283,559.0514773946659 M724.6994029498087,477.06914513047434 L725.2416684250024,476.5273041739656 M724.7182228737264,469.2419380219394 L724.6994029498087,477.06914513047434 M541.4503370127032,612.6421887246005 L724.7182228737264,469.2419380219394 M357.6900258313845,681.6096700428791 L541.4503370127032,612.6421887246005 M357.6922983370298,689.4490597254842 L357.6900258313845,681.6096700428791 M357.14712501415073,689.5357849685258 L357.6922983370298,689.4490597254842 M325.2630881886874,809.0824297809927 L357.14712501415073,689.5357849685258 M325.2630881886874,809.0824297809927 L367.2164887557698,784.7689551009589 M357.3699842355879,779.0596642178687 L315.41658698224046,803.3690781928631 M325.2630881886874,809.0824297809927 L315.41658698224046,803.3690781928631 M531.5538315039537,652.3523211307113 L375.5384229735963,710.962882538877 M687.2196951368263,530.5148388474219 L531.5538315039537,652.3523211307113 M705.1733717208574,577.5289877573299 L687.2196951368263,530.5148388474219 M746.8502220474928,553.3798157213698 L705.1733717208574,577.5289877573299 M715.3879198711863,470.85678435234917 L746.8502220474928,553.3798157213698 M714.8456707092704,471.398563562952 L715.3879198711863,470.85678435234917 M714.863922994001,463.5716827748538 L714.8456707092704,471.398563562952 M714.863922994001,463.5716827748538 L531.5986860822658,606.9526991947907 M531.5986860822658,606.9526991947907 L347.8356536085375,675.9039765821237 M347.8384937658478,683.743039950291 L347.8356536085375,675.9039765821237 M347.29330391601627,683.8297219950434 L347.8384937658478,683.743039950291 M315.41658698224046,803.3690781928631 L347.29330391601627,683.8297219950434 M541.4021923616494,658.0436988726215 L531.5538315039537,652.3523211307113 M687.2196951368263,530.5148388474219 L697.0703077788082,536.1898742118974 M715.0198077823621,583.2046700494221 L705.1733717208574,577.5289877573299 M746.8502220474928,553.3798157213698 L756.6966384186283,559.0514773946659 M725.2416684250024,476.5273041739656 L715.3879198711863,470.85678435234917 M714.8456707092704,471.398563562952 L724.6994029498087,477.06914513047434 M714.863922994001,463.5716827748538 L724.7182228737264,469.2419380219394 M541.4503370127032,612.6421887246005 L531.5986860822658,606.9526991947907 M357.6900258313845,681.6096700428791 L347.8356536085375,675.9039765821237 M357.6922983370298,689.4490597254842 L347.8384937658478,683.743039950291 M357.14712501415073,689.5357849685258 L347.29330391601627,683.8297219950434" stroke="black"  stroke-width="4"  fill="red"/>
<path d="M365.6893941967995,705.2586946381641 L347.5251238644169,773.3513266603916 M337.6819072304864,767.6439421897708 L347.5251238644169,773.3513266603916 M355.842010296011,699.5554593879144 L337.6819072304864,767.6439421897708 M365.6893941967995,705.2586946381641 L355.842010296011,699.5554593879144 M365.6893941967995,705.2586946381641 L521.7071129896116,646.661892500694 M521.7071129896116,646.661892500694 L677.3707234265827,524.8407488399494 M695.3285749511647,571.85425038576 L677.3707234265827,524.8407488399494 M695.3285749511647,571.85425038576 L737.0054443842297,547.7090979647519 M705.5358129029767,465.1872092111931 L737.0054443842297,547.7090979647519 M704.9935800564283,465.7289266889432 L705.5358129029767,465.1872092111931 M705.0112648908402,457.90237222118066 L704.9935800564283,465.7289266889432 M521.748678591975,601.2641587785442 L705.0112648908402,457.90237222118066 M337.98292829613655,670.1992366845127 L521.748678591975,601.2641587785442 M337.98633591535605,678.0379737378314 L337.98292829613655,670.1992366845127 M337.44112955170834,678.124612597521 L337.98633591535605,678.0379737378314 M305.5717305087703,797.6566809475573 L337.44112955170834,678.124612597521 M305.5717305087703,797.6566809475573 L347.5251238644169,773.3513266603916 M337.6819072304864,767.6439421897708 L295.72851835621367,791.9452378059789 M305.5717305087703,797.6566809475573 L295.72851835621367,791.9452378059789 M511.8620364078355,640.9724127451732 L355.842010296011,699.5554593879144 M667.5233922380878,519.1676039532808 L511.8620364078355,640.9724127451732 M685.4854170639396,566.1804576987587 L667.5233922380878,519.1676039532808 M727.1623050197857,542.0393238891922 L685.4854170639396,566.1804576987587 M695.6853471101873,459.5185785144482 L727.1623050197857,542.0393238891922 M695.1431305810947,460.06023427239495 L695.6853471101873,459.5185785144482 M695.160248153986,452.2340061248535 L695.1431305810947,460.06023427239495 M695.160248153986,452.2340061248535 L511.90031413063207,595.5765672383848 M511.90031413063207,595.5765672383848 L328.1318494813567,664.4954501110196 M328.13582437280104,672.3338608490933 L328.1318494813567,664.4954501110196 M327.5906015084675,672.4204565369419 L328.13582437280104,672.3338608490933 M295.72851835621367,791.9452378059789 L327.5906015084675,672.4204565369419 M521.7071129896116,646.661892500694 L511.8620364078355,640.9724127451732 M667.5233922380878,519.1676039532808 L677.3707234265827,524.8407488399494 M695.3285749511647,571.85425038576 L685.4854170639396,566.1804576987587 M727.1623050197857,542.0393238891922 L737.0054443842297,547.7090979647519 M705.5358129029767,465.1872092111931 L695.6853471101873,459.5185785144482 M695.1431305810947,460.06023427239495 L704.9935800564283,465.7289266889432 M695.160248153986,452.2340061248535 L705.0112648908402,457.90237222118066 M521.748678591975,601.2641587785442 L511.90031413063207,595.5765672383848 M337.98292829613655,670.1992366845127 L328.1318494813567,664.4954501110196 M337.98633591535605,678.0379737378314 L328.13582437280104,672.3338608490933 M337.44112955170834,678.124612597521 L327.5906015084675,672.4204565369419" stroke="black"  stroke-width="4"  fill="red"/>
<path d="M87.31555962674372,544.0350151246655 L69.26892239454787,612.0102547135812 M59.472107778281895,606.3297754879504 L69.26892239454787,612.0102547135812 M77.51460984475318,538.3586727736681 L59.472107778281895,606.3297754879504 M87.31555962674372,544.0350151246655 L77.51460984475318,538.3586727736681 M87.31555962674372,544.0350151246655 L243.39751788819422,485.82649483323286 M243.39751788819422,485.82649483323286 L398.9967045173482,364.46672345920445 M417.07216724744364,411.4617026659222 L398.9967045173482,364.46672345920445 M417.07216724744364,411.4617026659222 L458.749336587513,387.4300235821598 M427.0732325808982,304.94082453119245 L458.749336587513,387.4300235821598 M426.5314628643189,305.48079831920415 L427.0732325808982,304.94082453119245 M426.5331481287334,297.6634894957183 L426.5314628643189,305.48079831920415 M243.34634989354214,440.4822608622849 L426.5331481287334,297.6634894957183 M59.50502993748387,508.9601960132002 L243.34634989354214,440.4822608622849 M59.524437088951686,516.7896873664804 L59.50502993748387,508.9601960132002 M58.978768268031956,516.8751081255857 L59.524437088951686,516.7896873664804 M27.31588091840024,636.2010057964108 L58.978768268031956,516.8751081255857 M27.31588091840024,636.2010057964108 L69.26892239454787,612.0102547135812 M59.472107778281895,606.3297754879504 L17.51908719990007,630.5164965705831 M27.31588091840024,636.2010057964108 L17.51908719990007,630.5164965705831 M233.59879259731025,480.1638015357947 L77.51460984475318,538.3586727736681 M389.19568497713385,358.8202591711272 L233.59879259731025,480.1638015357947 M407.27527482921454,405.8145783187624 L389.19568497713385,358.8202591711272 M448.95244627556303,381.78688955192945 L407.27527482921454,405.8145783187624 M417.2690968758686,299.2988553307853 L448.95244627556303,381.78688955192945 M416.7273435351956,299.8387677670853 L417.2690968758686,299.2988553307853 M416.72846685809213,292.02178525498994 L416.7273435351956,299.8387677670853 M416.72846685809213,292.02178525498994 L233.54436761701788,434.8214557924099 M233.54436761701788,434.8214557924099 L49.700430914952335,503.28332129575375 M49.72039999376955,511.1124863282701 L49.700430914952335,503.28332129575375 M49.174715041755576,511.1978642881572 L49.72039999376955,511.1124863282701 M17.51908719990007,630.5164965705831 L49.174715041755576,511.1978642881572 M243.39751788819422,485.82649483323286 L233.59879259731025,480.1638015357947 M389.19568497713385,358.8202591711272 L398.9967045173482,364.46672345920445 M417.07216724744364,411.4617026659222 L407.27527482921454,405.8145783187624 M448.95244627556303,381.78688955192945 L458.749336587513,387.4300235821598 M427.0732325808982,304.94082453119245 L417.2690968758686,299.2988553307853 M416.7273435351956,299.8387677670853 L426.5314628643189,305.48079831920415 M416.72846685809213,292.02178525498994 L426.5331481287334,297.6634894957183 M243.34634989354214,440.4822608622849 L233.54436761701788,434.8214557924099 M59.50502993748387,508.9601960132002 L49.700430914952335,503.28332129575375 M59.524437088951686,516.7896873664804 L49.72039999376955,511.1124863282701 M58.978768268031956,516.8751081255857 L49.174715041755576,511.1978642881572" stroke="black"  stroke-width="4"  fill="red"/>
<path d="M97.11814266367196,549.712303395638 L79.06736913814086,617.6916802943017 M69.26892239454787,612.0102547135812 L79.06736913814086,617.6916802943017 M87.31555962674372,544.0350151246655 L69.26892239454787,612.0102547135812 M97.11814266367196,549.712303395638 L87.31555962674372,544.0350151246655 M97.11814266367196,549.712303395638 L253.197873529326,491.49013031173536 M253.197873529326,491.49013031173536 L408.7993530194763,370.11412620835034 M426.8706870064731,417.10976504480294 L408.7993530194763,370.11412620835034 M426.8706870064731,417.10976504480294 L468.54785366479246,393.07409465001115 M436.8789978959854,310.5837315205115 L468.54785366479246,393.07409465001115 M436.33721180553965,311.1237666731728 L436.8789978959854,310.5837315205115 M436.3394591982781,303.3061315378021 L436.33721180553965,311.1237666731728 M253.14996360511333,446.1440081125808 L436.3394591982781,303.3061315378021 M69.3112638180425,514.6380173154259 L253.14996360511333,446.1440081125808 M69.33010885448493,522.4678349894624 L69.3112638180425,514.6380173154259 M68.78445617762418,522.553298560872 L69.33010885448493,522.4678349894624 M37.114307339668414,641.8864623846318 L68.78445617762418,522.553298560872 M37.114307339668414,641.8864623846318 L79.06736913814086,617.6916802943017 M69.26892239454787,612.0102547135812 L27.31588091840024,636.2010057964108 M37.114307339668414,641.8864623846318 L27.31588091840024,636.2010057964108 M243.39751788819447,485.8264948332328 L87.31555962674372,544.0350151246655 M398.9967045173482,364.46672345920445 L243.39751788819447,485.8264948332328 M417.07216724744364,411.4617026659222 L398.9967045173482,364.46672345920445 M458.749336587513,387.4300235821598 L417.07216724744364,411.4617026659222 M427.0732325808982,304.94082453119245 L458.749336587513,387.4300235821598 M426.5314628643189,305.48079831920415 L427.0732325808982,304.94082453119245 M426.5331481287334,297.6634894957183 L426.5314628643189,305.48079831920415 M426.5331481287334,297.6634894957183 L243.3463498935424,440.48226086228476 M243.3463498935424,440.48226086228476 L59.50502993748387,508.9601960132002 M59.524437088951686,516.7896873664804 L59.50502993748387,508.9601960132002 M58.978768268031956,516.8751081255857 L59.524437088951686,516.7896873664804 M27.31588091840024,636.2010057964108 L58.978768268031956,516.8751081255857 M253.197873529326,491.49013031173536 L243.39751788819447,485.8264948332328 M398.9967045173482,364.46672345920445 L408.7993530194763,370.11412620835034 M426.8706870064731,417.10976504480294 L417.07216724744364,411.4617026659222 M458.749336587513,387.4300235821598 L468.54785366479246,393.07409465001115 M436.8789978959854,310.5837315205115 L427.0732325808982,304.94082453119245 M426.5314628643189,305.48079831920415 L436.33721180553965,311.1237666731728 M426.5331481287334,297.6634894957183 L436.3394591982781,303.3061315378021 M253.14996360511333,446.1440081125808 L243.3463498935424,440.48226086228476 M69.3112638180425,514.6380173154259 L59.50502993748387,508.9601960132002 M69.33010885448493,522.4678349894624 L59.524437088951686,516.7896873664804 M68.78445617762418,522.553298560872 L58.978768268031956,516.8751081255857" stroke="black"  stroke-width="4"  fill="red"/>
<path d="M77.51460984475318,538.3586727736681 L59.472107778281895,606.3297754879504 M49.676924881581385,600.6502423809773 L59.472107778281895,606.3297754879504 M67.71529290954754,532.6832761062591 L49.676924881581385,600.6502423809773 M77.51460984475318,538.3586727736681 L67.71529290954754,532.6832761062591 M77.51460984475318,538.3586727736681 L233.59879259731,480.1638015357948 M233.59879259731,480.1638015357948 L389.19568497713385,358.8202591711272 M407.27527482921454,405.8145783187624 L389.19568497713385,358.8202591711272 M407.27527482921454,405.8145783187624 L448.95244627556303,381.78688955192945 M417.2690968758686,299.2988553307853 L448.95244627556303,381.78688955192945 M416.7273435351956,299.8387677670853 L417.2690968758686,299.2988553307853 M416.72846685809213,292.02178525498994 L416.7273435351956,299.8387677670853 M233.54436761701766,434.82145579240995 L416.72846685809213,292.02178525498994 M49.700430914952335,503.28332129575375 L233.54436761701766,434.82145579240995 M49.72039999376955,511.1124863282701 L49.700430914952335,503.28332129575375 M49.174715041755576,511.1978642881572 L49.72039999376955,511.1124863282701 M17.51908719990007,630.5164965705831 L49.174715041755576,511.1978642881572 M17.51908719990007,630.5164965705831 L59.472107778281895,606.3297754879504 M49.676924881581385,600.6502423809773 L7.723925776118165,624.8329344703816 M17.51908719990007,630.5164965705831 L7.723925776118165,624.8329344703816 M223.80169724987985,474.5020501843335 L67.71529290954754,532.6832761062591 M379.39629399282626,353.1747331102142 L223.80169724987985,474.5020501843335 M397.4800093464158,400.1683917696601 L379.39629399282626,353.1747331102142 M439.1571823238589,376.14469232598645 L397.4800093464158,400.1683917696601 M407.46659037469567,293.6578236855339 L439.1571823238589,376.14469232598645 M406.92485341196664,294.1976747830563 L407.46659037469567,293.6578236855339 M406.92541498008165,286.38101858184405 L406.92485341196664,294.1976747830563 M406.92541498008165,286.38101858184405 L223.7440163683401,429.1615926677903 M223.7440163683401,429.1615926677903 L39.89746634164601,497.6073929263896 M39.917997160206994,505.4362316381482 L39.89746634164601,497.6073929263896 M39.37229609005749,505.5215668118983 L39.917997160206994,505.4362316381482 M7.723925776118165,624.8329344703816 L39.37229609005749,505.5215668118983 M233.59879259731,480.1638015357948 L223.80169724987985,474.5020501843335 M379.39629399282626,353.1747331102142 L389.19568497713385,358.8202591711272 M407.27527482921454,405.8145783187624 L397.4800093464158,400.1683917696601 M439.1571823238589,376.14469232598645 L448.95244627556303,381.78688955192945 M417.2690968758686,299.2988553307853 L407.46659037469567,293.6578236855339 M406.92485341196664,294.1976747830563 L416.7273435351956,299.8387677670853 M406.92541498008165,286.38101858184405 L416.72846685809213,292.02178525498994 M233.54436761701766,434.82145579240995 L223.7440163683401,429.1615926677903 M49.700430914952335,503.28332129575375 L39.89746634164601,497.6073929263896 M49.72039999376955,511.1124863282701 L39.917997160206994,505.4362316381482 M49.174715041755576,511.1978642881572 L39.37229609005749,505.5215668118983" stroke="black"  stroke-width="4"  fill="red"/>
<path d="M173.43787130168576,434.696382911665 L210.24256908791094,420.99888017458125 M210.24256908791094,420.99888017458125 L210.67433054058904,417.8976869217011 M210.67433054058904,417.8976869217011 L209.391803134715,410.3126791097404 M210.6625999412986,409.3224240960629 L209.391803134715,410.3126791097404 M175.12751120069885,422.54334567449587 L210.6625999412986,409.3224240960629 M173.43787130168576,434.696382911665 L175.12751120069885,422.54334567449587 M210.24256908791094,420.99888017458125 L583.7253602301234,636.6901413342118 M583.7253602301234,636.6901413342118 L546.9411615265036,650.510367535491 M546.9411615265036,650.510367535491 L556.8022006414116,656.2081758269219 M556.8022006414116,656.2081758269219 L519.9915038919871,670.0418147475255 M519.9915038919871,670.0418147475255 L510.1299136650914,664.3407563480873 M510.1299136650914,664.3407563480873 L473.2915887553186,678.1813187557057 M473.2915887553186,678.1813187557057 L483.1537282372032,683.885630504034 M483.1537282372032,683.885630504034 L446.2888500526659,697.7396297973592 M446.2888500526659,697.7396297973592 L436.42616317727413,692.0320614553859 M436.42616317727413,692.0320614553859 L399.53358820273024,705.8930074810712 M399.53358820273024,705.8930074810712 L25.949008768907447,489.5869062720045 M25.949008768907447,489.5869062720045 L62.86179963161402,475.84917316127735 M62.86179963161402,475.84917316127735 L53.06309743159693,470.17863295495863 M53.06309743159693,470.17863295495863 L89.94933038130591,456.4542024347254 M89.94933038130591,456.4542024347254 L99.74751215657949,462.12152071952704 M99.74751215657949,462.12152071952704 L136.60619489659803,448.4039261534326 M136.60619489659803,448.4039261534326 L126.80853541521299,442.7398265917977 M126.80853541521299,442.7398265917977 L163.64073597887537,429.03549887864375 M163.64073597887537,429.03549887864375 L173.43787130168576,434.696382911665 M583.7253602301234,636.6901413342118 L584.1649448771506,633.58284044677 M210.67433054058904,417.8976869217011 L584.1649448771506,633.58284044677 M584.1649448771506,633.58284044677 L582.9052434382515,625.9893070516489 M209.391803134715,410.3126791097404 L582.9052434382515,625.9893070516489 M584.1767499997052,624.9939940223278 L210.6625999412986,409.3224240960629 M582.9052434382515,625.9893070516489 L584.1767499997052,624.9939940223278 M165.32957391642694,416.8830908781891 L175.12751120069885,422.54334567449587 M128.49550815583535,430.58388889754855 L165.32957391642694,416.8830908781891 M138.29396977243806,436.24735891497585 L128.49550815583535,430.58388889754855 M101.43340942585104,449.96142671703336 L138.29396977243806,436.24735891497585 M91.63442534185344,444.29473828321204 L101.43340942585104,449.96142671703336 M54.74631767146826,458.0156372876335 L91.63442534185344,444.29473828321204 M64.54582235341991,463.68554733545005 L54.74631767146826,458.0156372876335 M27.631166279289573,477.4197399481648 L64.54582235341991,463.68554733545005 M401.24642840985456,693.7018529538398 L27.631166279289573,477.4197399481648 M438.1408619021081,679.844459168294 L401.24642840985456,693.7018529538398 M448.00436084526757,685.5513957512674 L438.1408619021081,679.844459168294 M484.87110669267133,671.7009402796018 L448.00436084526757,685.5513957512674 M475.0081553227227,665.9972599825082 L484.87110669267133,671.7009402796018 M511.8483511229281,652.160236000946 L475.0081553227227,665.9972599825082 M521.7107530578883,657.8606632561616 L511.8483511229281,652.160236000946 M558.5233079247851,644.0305663341906 L521.7107530578883,657.8606632561616 M548.6614572820531,638.3333888792388 L558.5233079247851,644.0305663341906 M584.1767499997052,624.9939940223278 L548.6614572820531,638.3333888792388 M163.64073597887537,429.03549887864375 L165.32957391642694,416.8830908781891 M546.9411615265036,650.510367535491 L548.6614572820531,638.3333888792388 M556.8022006414116,656.2081758269219 L558.5233079247851,644.0305663341906 M519.9915038919871,670.0418147475255 L521.7107530578883,657.8606632561616 M510.1299136650914,664.3407563480873 L511.8483511229281,652.160236000946 M473.2915887553186,678.1813187557057 L475.0081553227227,665.9972599825082 M483.1537282372032,683.885630504034 L484.87110669267133,671.7009402796018 M446.2888500526659,697.7396297973592 L448.00436084526757,685.5513957512674 M436.42616317727413,692.0320614553859 L438.1408619021081,679.844459168294 M399.53358820273024,705.8930074810712 L401.24642840985456,693.7018529538398 M25.949008768907447,489.5869062720045 L27.631166279289573,477.4197399481648 M62.86179963161402,475.84917316127735 L64.54582235341991,463.68554733545005 M53.06309743159693,470.17863295495863 L54.74631767146826,458.0156372876335 M89.94933038130591,456.4542024347254 L91.63442534185344,444.29473828321204 M99.74751215657949,462.12152071952704 L101.43340942585104,449.96142671703336 M136.60619489659803,448.4039261534326 L138.29396977243806,436.24735891497585 M126.80853541521299,442.7398265917977 L128.49550815583535,430.58388889754855" stroke="black"  stroke-width="4"  fill="red"/>
<path d="M247.87466808494716,391.84886187547784 L246.15657059205571,381.66411587114527 M211.11388720618913,420.4972743319899 L209.391803134715,410.3126791097404 M247.87466808494716,391.84886187547784 L211.11388720618913,420.4972743319899 M246.15657059205571,381.66411587114527 L209.391803134715,410.3126791097404 M584.5966783345731,636.1853490101303 L582.9052434382515,625.9893070516489 M211.11388720618913,420.4972743319899 L584.5966783345731,636.1853490101303 M209.391803134715,410.3126791097404 L582.9052434382515,625.9893070516489 M621.377957175122,607.3906399864115 L619.6905155864306,597.1944355648511 M584.5966783345731,636.1853490101303 L621.377957175122,607.3906399864115 M582.9052434382515,625.9893070516489 L619.6905155864306,597.1944355648511 M631.2389760359824,613.0812499524784 L629.5523468990649,602.8847447966118 M621.377957175122,607.3906399864115 L631.2389760359824,613.0812499524784 M619.6905155864306,597.1944355648511 L629.5523468990649,602.8847447966118 M668.0018745564962,584.2974819606966 L666.3192289717748,574.1008191141066 M631.2389760359824,613.0812499524784 L668.0018745564962,584.2974819606966 M629.5523468990649,602.8847447966118 L666.3192289717748,574.1008191141066 M658.1403245999774,578.6107359604471 L656.4568663885186,568.4143741572518 M668.0018745564962,584.2974819606966 L658.1403245999774,578.6107359604471 M666.3192289717748,574.1008191141066 L656.4568663885186,568.4143741572518 M694.8837932392755,549.8456275483502 L693.2043238917059,539.6491041962377 M658.1403245999774,578.6107359604471 L694.8837932392755,549.8456275483502 M656.4568663885186,568.4143741572518 L693.2043238917059,539.6491041962377 M704.7458724422835,555.5285128032144 L703.0672158958375,545.3316880982999 M694.8837932392755,549.8456275483502 L704.7458724422835,555.5285128032144 M693.2043238917059,539.6491041962377 L703.0672158958375,545.3316880982999 M741.4709780328848,526.7743337791665 L739.7963004089719,516.5773527922745 M704.7458724422835,555.5285128032144 L741.4709780328848,526.7743337791665 M703.0672158958375,545.3316880982999 L739.7963004089719,516.5773527922745 M731.6083714298485,521.0953060521242 L729.9328808310468,510.89862672622456 M741.4709780328848,526.7743337791665 L731.6083714298485,521.0953060521242 M739.7963004089719,516.5773527922745 L729.9328808310468,510.89862672622456 M768.3140924275923,492.35975014897815 L766.6425642475577,482.1629240231531 M731.6083714298485,521.0953060521242 L768.3140924275923,492.35975014897815 M729.9328808310468,510.89862672622456 L766.6425642475577,482.1629240231531 M394.72951314345295,277.4019419073928 L393.02730236960525,267.2166206198939 M768.3140924275923,492.35975014897815 L394.72951314345295,277.4019419073928 M766.6425642475577,482.1629240231531 L393.02730236960525,267.2166206198939 M358.0440096450443,305.99168752621176 L356.33784308998054,295.8065015047438 M394.72951314345295,277.4019419073928 L358.0440096450443,305.99168752621176 M393.02730236960525,267.2166206198939 L356.33784308998054,295.8065015047438 M348.2452277984542,300.34941099245145 L346.53825966504553,290.1645282122201 M358.0440096450443,305.99168752621176 L348.2452277984542,300.34941099245145 M356.33784308998054,295.8065015047438 L346.53825966504553,290.1645282122201 M311.5414773869267,328.9499777082616 L309.8305373425699,318.76523899684497 M348.2452277984542,300.34941099245145 L311.5414773869267,328.9499777082616 M346.53825966504553,290.1645282122201 L309.8305373425699,318.76523899684497 M321.3397189209218,334.5960773988985 L319.6295802781123,324.41103574873114 M311.5414773869267,328.9499777082616 L321.3397189209218,334.5960773988985 M309.8305373425699,318.76523899684497 L319.6295802781123,324.41103574873114 M284.61660781234855,363.2151326520426 L282.90248699028234,353.0302409023576 M321.3397189209218,334.5960773988985 L284.61660781234855,363.2151326520426 M319.6295802781123,324.41103574873114 L282.90248699028234,353.0302409023576 M274.8189084320651,357.5652066253896 L273.10398638587054,347.3806175107686 M284.61660781234855,363.2151326520426 L274.8189084320651,357.5652066253896 M282.90248699028234,353.0302409023576 L273.10398638587054,347.3806175107686 M238.07751270217554,386.1951063308462 L236.35861416314393,376.0106626582114 M274.8189084320651,357.5652066253896 L238.07751270217554,386.1951063308462 M273.10398638587054,347.3806175107686 L236.35861416314393,376.0106626582114 M238.07751270217554,386.1951063308462 L247.87466808494716,391.84886187547784 M236.35861416314393,376.0106626582114 L246.15657059205571,381.66411587114527" stroke="black"  stroke-width="4"  fill="red"/>
<path d="M118.82727844072633,384.62856506498133 L109.12182475491136,388.23382177252205 M110.2795645962496,446.26101195865976 L100.5766021442306,449.87098484430226 M118.82727844072633,384.62856506498133 L110.2795645962496,446.26101195865976 M109.12182475491136,388.23382177252205 L100.5766021442306,449.87098484430226 M483.85055223487984,662.2666833490161 L474.15294160731906,665.9090256798058 M110.2795645962496,446.26101195865976 L483.85055223487984,662.2666833490161 M100.5766021442306,449.87098484430226 L474.15294160731906,665.9090256798058 M492.5537249864353,600.5126972923349 L482.85363208363106,604.1503078055924 M483.85055223487984,662.2666833490161 L492.5537249864353,600.5126972923349 M474.15294160731906,665.9090256798058 L482.85363208363106,604.1503078055924 M502.42068976462764,606.2123772281443 L492.7207414992792,609.8508437261455 M492.5537249864353,600.5126972923349 L502.42068976462764,606.2123772281443 M482.85363208363106,604.1503078055924 L492.7207414992792,609.8508437261455 M511.13396194521033,544.4127444084847 L501.43152425753505,548.0464677034063 M502.42068976462764,606.2123772281443 L511.13396194521033,544.4127444084847 M492.7207414992792,609.8508437261455 L501.43152425753505,548.0464677034063 M501.2628784755672,538.7162726837806 L491.5602959094192,542.3491404068403 M511.13396194521033,544.4127444084847 L501.2628784755672,538.7162726837806 M501.43152425753505,548.0464677034063 L491.5602959094192,542.3491404068403 M509.97802513405964,476.87736395242973 L500.27294549153703,480.50550685489185 M501.2628784755672,538.7162726837806 L509.97802513405964,476.87736395242973 M491.5602959094192,542.3491404068403 L500.27294549153703,480.50550685489185 M519.8532306274203,482.5706217068419 L510.148296103206,486.1996197683394 M509.97802513405964,476.87736395242973 L519.8532306274203,482.5706217068419 M500.27294549153703,480.50550685489185 L510.148296103206,486.1996197683394 M528.5784894604409,420.68597253721333 L518.8710632433263,424.31021988022974 M519.8532306274203,482.5706217068419 L528.5784894604409,420.68597253721333 M510.148296103206,486.1996197683394 L518.8710632433263,424.31021988022974 M518.6991586071397,414.9959345206752 L508.99158703043764,418.6193271201549 M528.5784894604409,420.68597253721333 L518.6991586071397,414.9959345206752 M518.8710632433263,424.31021988022974 L508.99158703043764,418.6193271201549 M527.4262913291651,353.07195139951966 L517.7162267122998,356.690557277371 M518.6991586071397,414.9959345206752 L527.4262913291651,353.07195139951966 M508.99158703043764,418.6193271201549 L517.7162267122998,356.690557277371 M153.07675337410507,137.67615592138162 L143.3612919336171,141.26247102293445 M527.4262913291651,353.07195139951966 L153.07675337410507,137.67615592138162 M517.7162267122998,356.690557277371 L143.3612919336171,141.26247102293445 M144.5055821421298,199.4777271393731 L134.79262283864688,203.06881307889114 M153.07675337410507,137.67615592138162 L144.5055821421298,199.4777271393731 M143.3612919336171,141.26247102293445 L134.79262283864688,203.06881307889114 M134.6904070592612,193.82463988176409 L124.9773095285106,197.4148801930919 M144.5055821421298,199.4777271393731 L134.6904070592612,193.82463988176409 M134.79262283864688,203.06881307889114 L124.9773095285106,197.4148801930919 M126.12918587302318,255.58066464685817 L116.41858951160953,259.1756390641004 M134.6904070592612,193.82463988176409 L126.12918587302318,255.58066464685817 M124.9773095285106,197.4148801930919 L116.41858951160953,259.1756390641004 M135.94028432125185,261.23696337980425 L126.2298259545313,264.83278384035924 M126.12918587302318,255.58066464685817 L135.94028432125185,261.23696337980425 M116.41858951160953,259.1756390641004 L126.2298259545313,264.83278384035924 M127.38084758631248,322.9538972682133 L117.67289524414406,326.55442686858396 M135.94028432125185,261.23696337980425 L127.38084758631248,322.9538972682133 M126.2298259545313,264.83278384035924 L117.67289524414406,326.55442686858396 M117.57382249147639,317.2943927844349 L107.86573238576983,320.8940759290224 M127.38084758631248,322.9538972682133 L117.57382249147639,317.2943927844349 M117.67289524414406,326.55442686858396 L107.86573238576983,320.8940759290224 M109.02432342190286,378.96586054657456 L99.31873220488274,382.5702703857988 M117.57382249147639,317.2943927844349 L109.02432342190286,378.96586054657456 M107.86573238576983,320.8940759290224 L99.31873220488274,382.5702703857988 M109.02432342190286,378.96586054657456 L118.82727844072633,384.62856506498133 M99.31873220488274,382.5702703857988 L109.12182475491136,388.23382177252205" stroke="black"  stroke-width="4"  fill="red"/>
<path d="M262.7607111366613,72.63323440222513 L262.749511396647,61.24346509635001 M52.409979658436555,193.16258469396135 L52.38119512209096,181.7625902876132 M262.7607111366613,72.63323440222513 L52.409979658436555,193.16258469396135 M262.749511396647,61.24346509635001 L52.38119512209096,181.7625902876132 M426.76495335076453,408.9224805512977 L426.76743632856,397.50427153922675 M52.409979658436555,193.16258469396135 L426.76495335076453,408.9224805512977 M52.38119512209096,181.7625902876132 L426.76743632856,397.50427153922675 M637.116277501013,287.6253214728242 L637.1363454235326,276.2173383408306 M426.76495335076453,408.9224805512977 L637.116277501013,287.6253214728242 M426.76743632856,397.50427153922675 L637.1363454235326,276.2173383408306 M637.116277501013,287.6253214728242 L262.7607111366613,72.63323440222513 M637.1363454235326,276.2173383408306 L262.749511396647,61.24346509635001" stroke="black"  stroke-width="4"  fill="red"/>
<path d="M367.6558116475786,12.529149075209887 L367.6533575337813,1.1444920687492868 M262.7607111366613,72.63323440222513 L262.749511396647,61.24346509635001 M367.6558116475786,12.529149075209887 L262.7607111366613,72.63323440222513 M367.6533575337813,1.1444920687492868 L262.749511396647,61.24346509635001 M637.116277501013,287.6253214728242 L637.1363454235326,276.2173383408306 M262.7607111366613,72.63323440222513 L637.116277501013,287.6253214728242 M262.749511396647,61.24346509635001 L637.1363454235326,276.2173383408306 M742.0107838744437,227.1388677866662 L742.0395972742978,215.73599747037815 M637.116277501013,287.6253214728242 L742.0107838744437,227.1388677866662 M637.1363454235326,276.2173383408306 L742.0395972742978,215.73599747037815 M742.0107838744437,227.1388677866662 L367.6558116475786,12.529149075209887 M742.0395972742978,215.73599747037815 L367.6533575337813,1.1444920687492868" stroke="black"  stroke-width="4"  fill="red"/>
<path d="M358.58200352407755,127.50256594583954 L368.36242040116935,120.89867724292424 M350.55828998694653,26.32358283818712 L360.3475496893009,19.72179286147491 M358.58200352407755,127.50256594583954 L350.55828998694653,26.32358283818712 M368.36242040116935,120.89867724292424 L360.3475496893009,19.72179286147491 M724.9024229056076,241.0020003105577 L734.6943307390192,234.36294951370172 M350.55828998694653,26.32358283818712 L724.9024229056076,241.0020003105577 M360.3475496893009,19.72179286147491 L734.6943307390192,234.36294951370172 M732.6356213456578,342.3207342852282 L742.4186781141198,335.67959894910155 M724.9024229056076,241.0020003105577 L732.6356213456578,342.3207342852282 M734.6943307390192,234.36294951370172 L742.4186781141198,335.67959894910155 M732.6356213456578,342.3207342852282 L358.58200352407755,127.50256594583954 M742.4186781141198,335.67959894910155 L368.36242040116935,120.89867724292424" stroke="black"  stroke-width="4"  fill="red"/>
<path d="M369.6222458907108,132.21256200364195 L368.76435408063156,121.38241878297805 M134.50858330813685,290.98707967214136 L133.6278994066173,280.15156445088724 M369.6222458907108,132.21256200364195 L134.50858330813685,290.98707967214136 M368.76435408063156,121.38241878297805 L133.6278994066173,280.15156445088724 M508.46703418158893,506.6789169744519 L507.61742940261985,495.82851039407313 M134.50858330813685,290.98707967214136 L508.46703418158893,506.6789169744519 M133.6278994066173,280.15156445088724 L507.61742940261985,495.82851039407313 M743.6454376630604,347.0080858476249 L742.8186464864782,336.16301435125456 M508.46703418158893,506.6789169744519 L743.6454376630604,347.0080858476249 M507.61742940261985,495.82851039407313 L742.8186464864782,336.16301435125456 M743.6454376630604,347.0080858476249 L369.6222458907108,132.21256200364195 M742.8186464864782,336.16301435125456 L368.76435408063156,121.38241878297805" stroke="black"  stroke-width="4"  fill="red"/></svg>