<svg viewBox="0 0 800 800" xmlns="http://www.w3.org/2000/svg"><path d="M753.882816773532,204.73450912163474 L422.1727205501078,395.90505301511627 M422.1727205501078,395.90505301511627 L431.84623283879785,401.4787038524709 M763.5562400135326,210.27616616131513 L431.84623283879785,401.4787038524709 M753.882816773532,204.73450912163474 L763.5562400135326,210.27616616131513 M753.882816773532,204.73450912163474 L777.556367847744,515.9199651851025 M777.556367847744,515.9199651851025 L626.2394603627116,634.3962447801962 M397.4704171069531,736.0434406427021 L422.1727205501078,395.90505301511627 M549.3050176585159,678.97275465029 L626.2394603627116,634.3962447801962 M549.3050176585159,678.97275465029 L397.4704171069531,736.0434406427021 M561.3769374822352,362.61839226940657 L558.9028401440708,364.68047052663155 M558.9028401440708,364.68047052663155 L556.6208390723807,367.2735392189337 M556.6208390723807,367.2735392189337 L554.6536038127383,370.25823878145684 M554.6536038127383,370.25823878145684 L553.1068958821069,373.474064295636 M553.1068958821069,373.474064295636 L552.0638513236676,376.74820462541726 M552.0638513236676,376.74820462541726 L551.5805239618668,379.904624276913 M551.5805239618668,379.904624276913 L551.6828622046429,382.7736823252256 M551.6828622046429,382.7736823252256 L552.3653291210811,385.2011991530493 M552.3653291210811,385.2011991530493 L553.591195484035,387.0566952035173 M553.591195484035,387.0566952035173 L555.2945434275757,388.24057904404685 M555.2945434275757,388.24057904404685 L557.3837979938988,388.68925462277 M557.3837979938988,388.68925462277 L559.7466695337514,388.3786982894979 M585.4769198549814,355.69171299787183 L561.3769374822352,362.61839226940657 M559.7466695337514,388.3786982894979 L585.4432793325503,380.98609850525673 M590.910182689106,352.55788398930065 L589.1072066121302,353.950583597797 M589.1072066121302,353.950583597797 L587.2790560681267,355.0050405210193 M587.2790560681267,355.0050405210193 L585.4769198549814,355.69171299787183 M585.4432793325503,380.98609850525673 L587.245074591033,380.2990937243813 M587.245074591033,380.2990937243813 L589.072879179109,379.24443549928236 M589.072879179109,379.24443549928236 L590.875513983052,377.8516712196798 M615.0166542267347,331.683008864954 L590.910182689106,352.55788398930065 M590.875513983052,377.8516712196798 L616.578327448841,355.5902051062779 M616.578327448841,355.5902051062779 L618.9416158102142,353.17460983821286 M618.9416158102142,353.17460983821286 L621.0330305929167,350.31491758987096 M621.0330305929167,350.31491758987096 L622.7402365126496,347.16472625956413 M622.7402365126496,347.16472625956413 L623.971526442667,343.8932925280336 M623.971526442667,343.8932925280336 L624.6607554330801,340.6762629695718 M624.6607554330801,340.6762629695718 L624.7708702124816,337.68650999910585 M624.7708702124816,337.68650999910585 L624.2959223779949,335.0846516576563 M624.2959223779949,335.0846516576563 L623.2613820497129,333.0104913465567 M623.2613820497129,333.0104913465567 L621.7227894369271,331.5755516070404 M621.7227894369271,331.5755516070404 L619.7627716188224,330.85693989499606 M619.7627716188224,330.85693989499606 L617.4866280577019,330.8933932282051 M617.4866280577019,330.8933932282051 L615.0166542267347,331.683008864954 M766.4273622695465,505.62823113572944 L589.8056402566955,643.893351225817 M764.7912660171976,495.650230145049 L766.4273622695465,505.62823113572944 M764.7912660171976,495.650230145049 L588.1503942859613,633.9161136531387 M589.8056402566955,643.893351225817 L588.1503942859613,633.9161136531387 M585.7958342011125,646.2162649570203 L587.4807053452114,634.3040064332615 M408.716348095087,712.7414268455491 L585.7958342011125,646.2162649570203 M410.39224993018814,700.8121445753795 L587.4807053452114,634.3040064332615 M410.39224993018814,700.8121445753795 L408.716348095087,712.7414268455491 M431.84623283879785,401.4787038524709 L407.1202976071186,741.6331039519976 M397.4704171069531,736.0434406427021 L407.1202976071186,741.6331039519976 M635.8870639480589,639.965054618393 L787.2061468515366,521.4728790471999 M558.9526418120223,684.5490047580065 L635.8870639480589,639.965054618393 M787.2061468515366,521.4728790471999 L763.5562400135326,210.27616616131513 M407.1202976071186,741.6331039519976 L558.9526418120223,684.5490047580065 M569.4149534554089,393.9420763554783 L567.0521588869127,394.2528166983871 M567.0521588869127,394.2528166983871 L564.9630248873794,393.80427353854145 M564.9630248873794,393.80427353854145 L563.259834634455,392.62046339952735 M563.259834634455,392.62046339952735 L562.034154615412,390.76497836344396 M562.034154615412,390.76497836344396 L561.3518926936611,388.33740925925355 M561.3518926936611,388.33740925925355 L561.2497670802244,385.468238449034 M561.2497670802244,385.468238449034 L561.7333032814144,382.31165160844 M561.7333032814144,382.31165160844 L562.7765416658533,379.03729864962656 M562.7765416658533,379.03729864962656 L564.323417986594,375.82122650201484 M564.323417986594,375.82122650201484 L566.2907871501277,372.83625956235676 M566.2907871501277,372.83625956235676 L568.5728804337554,370.24291713060893 M568.5728804337554,370.24291713060893 L571.0470233328747,368.1805734884017 M595.1110170839107,386.5473075134485 L569.4149534554089,393.9420763554783 M571.0470233328747,368.1805734884017 L595.1464933387596,361.2518606601947 M600.5432502759627,383.41235597085046 L598.7405903478046,384.8053089737522 M598.7405903478046,384.8053089737522 L596.9127862504564,385.86014359806734 M596.9127862504564,385.86014359806734 L595.1110170839107,386.5473075134485 M600.5797547136049,358.11750739529145 L598.7767535029643,359.5103957436634 M598.7767535029643,359.5103957436634 L596.9486034499675,360.5650290658707 M596.9486034499675,360.5650290658707 L595.1464933387596,361.2518606601947 M626.2465961111689,361.14809873901163 L600.5432502759627,383.41235597085046 M600.5797547136049,358.11750739529145 L624.686725669657,337.24001465174365 M624.686725669657,337.24001465174365 L627.156652611936,336.45018734374486 M627.156652611936,336.45018734374486 L629.4327027372486,336.4135678961858 M629.4327027372486,336.4135678961858 L631.3925855972473,337.1320679682079 M631.3925855972473,337.1320679682079 L632.9310089920201,338.5669565285523 M632.9310089920201,338.5669565285523 L633.9653549371695,340.6411288630298 M633.9653549371695,340.6411288630298 L634.4400936757944,343.24306177495 M634.4400936757944,343.24306177495 L634.3297663249609,346.2329478522115 M634.3297663249609,346.2329478522115 L633.6403327089789,349.45016190283513 M633.6403327089789,349.45016190283513 L632.4088570954962,352.72182160112965 M632.4088570954962,352.72182160112965 L630.7014944014115,355.87226824344555 M630.7014944014115,355.87226824344555 L628.6099601747695,358.73223143839664 M628.6099601747695,358.73223143839664 L626.2465961111689,361.14809873901163 M776.0783647427338,511.18152499670606 L599.454098141958,649.4652019312391 M774.443064092543,501.20322851462583 L776.0783647427338,511.18152499670606 M774.443064092543,501.20322851462583 L597.7996469348845,639.4876703519453 M599.454098141958,649.4652019312391 L597.7996469348845,639.4876703519453 M595.4442931586447,651.7885034139988 L597.1299581732467,639.8756278862563 M418.36744613241433,718.3293024426955 L595.4442931586447,651.7885034139988 M420.04414270307825,706.399401690375 L597.1299581732467,639.8756278862563 M420.04414270307825,706.399401690375 L418.36744613241433,718.3293024426955 M787.2061468515366,521.4728790471999 L777.556367847744,515.9199651851025 M626.2394603627116,634.3962447801962 L635.8870639480589,639.965054618393 M549.3050176585159,678.97275465029 L558.9526418120223,684.5490047580065 M561.3769374822352,362.61839226940657 L571.0470233328747,368.1805734884017 M559.7466695337514,388.3786982894979 L569.4149534554089,393.9420763554783 M585.4769198549814,355.69171299787183 L595.1464933387596,361.2518606601947 M585.4432793325503,380.98609850525673 L595.1110170839107,386.5473075134485 M590.910182689106,352.55788398930065 L600.5797547136049,358.11750739529145 M590.875513983052,377.8516712196798 L600.5432502759627,383.41235597085046 M615.0166542267347,331.683008864954 L624.686725669657,337.24001465174365 M616.578327448841,355.5902051062779 L626.2465961111689,361.14809873901163 M776.0783647427338,511.18152499670606 L766.4273622695465,505.62823113572944 M589.8056402566955,643.893351225817 L599.454098141958,649.4652019312391 M774.443064092543,501.20322851462583 L764.7912660171976,495.650230145049 M588.1503942859613,633.9161136531387 L597.7996469348845,639.4876703519453 M585.7958342011125,646.2162649570203 L595.4442931586447,651.7885034139988 M587.4807053452114,634.3040064332615 L597.1299581732467,639.8756278862563 M418.36744613241433,718.3293024426955 L408.716348095087,712.7414268455491 M420.04414270307825,706.399401690375 L410.39224993018814,700.8121445753795" stroke="black"  stroke-width="4"  fill="red"/>
<path d="M368.2669088597035,-16.174992890736632 L36.55705786266117,173.72235482928363 M36.55705786266117,173.72235482928363 L46.16604960000865,179.25883043862535 M377.87599666107474,-10.670191980218988 L46.16604960000865,179.25883043862535 M368.2669088597035,-16.174992890736632 L377.87599666107474,-10.670191980218988 M368.2669088597035,-16.174992890736632 L392.879522599671,294.55972620280124 M12.793853148463427,513.2207356913066 L36.55705786266117,173.72235482928363 M164.71636629461375,456.68356982388167 L12.793853148463427,513.2207356913066 M164.71636629461375,456.68356982388167 L241.65075342038782,412.4031502325885 M392.879522599671,294.55972620280124 L241.65075342038782,412.4031502325885 M175.89580653015994,140.89172510472628 L173.4235473998243,142.94323690660752 M173.4235473998243,142.94323690660752 L171.145235648877,145.52540119203442 M171.145235648877,145.52540119203442 L169.18334241645874,148.49944463776617 M169.18334241645874,148.49944463776617 L167.6433417513532,151.70543548443044 M167.6433417513532,151.70543548443044 L166.60800920690227,154.9710913739328 M166.60800920690227,154.9710913739328 L166.13298391453446,158.12083311904453 M166.13298391453446,158.12083311904453 L166.24376811376686,160.98537876610214 M166.24376811376686,160.98537876610214 L166.93437107261218,163.41079113607358 M166.93437107261218,163.41079113607358 L168.1676263458855,165.26670360264674 M168.1676263458855,165.26670360264674 L169.8772194495082,166.45350188879723 M169.8772194495082,166.45350188879723 L171.9712399607129,166.9074329605934 M171.9712399607129,166.9074329605934 L174.33714241222225,166.60419032280737 M200.01586900979999,134.0459119324126 L175.89580653015994,140.89172510472628 M205.44912790528718,130.93294579715655 L203.64717085912267,132.31813145495767 M203.64717085912267,132.31813145495767 L201.8190216403544,133.36556854932917 M201.8190216403544,133.36556854932917 L200.01586900979999,134.0459119324126 M229.5354843674357,110.16229888360283 L205.44912790528718,130.93294579715655 M231.16875911743597,134.03395127871386 L233.52901313510105,131.62919059736646 M233.52901313510105,131.62919059736646 L235.61565893553896,128.78029485101683 M235.61565893553896,128.78029485101683 L237.31661721596632,125.64028221189113 M237.31661721596632,125.64028221189113 L238.54051644825142,122.37786274853818 M238.54051644825142,122.37786274853818 L239.22160839715562,119.16819917055977 M239.22160839715562,119.16819917055977 L239.32327706338634,116.18376819840654 M239.32327706338634,116.18376819840654 L238.84002785375768,113.58490195738801 M238.84002785375768,113.58490195738801 L237.7977770194557,111.51124292094585 M237.7977770194557,111.51124292094585 L236.2524793815243,110.07428632119286 M236.2524793815243,110.07428632119286 L234.28712238823726,109.35124765589114 M234.28712238823726,109.35124765589114 L232.00729281640696,109.38110132889398 M232.00729281640696,109.38110132889398 L229.5354843674357,110.16229888360283 M205.4873878751692,156.1842807156777 L231.16875911743597,134.03395127871386 M200.0551571610887,159.29784508025773 L201.85796845268374,158.61717007889075 M201.85796845268374,158.61717007889075 L203.68577171627,157.56953169866492 M203.68577171627,157.56953169866492 L205.4873878751692,156.1842807156777 M174.33714241222225,166.60419032280737 L200.0551571610887,159.29784508025773 M46.16604960000865,179.25883043862535 L22.379513486920132,518.7731996713858 M12.793853148463427,513.2207356913066 L22.379513486920132,518.7731996713858 M251.23429341129275,417.93498114935227 L402.4652925188942,300.07580637856597 M402.4652925188942,300.07580637856597 L377.87599666107474,-10.670191980218988 M22.379513486920132,518.7731996713858 L174.29988414830285,462.22276699964584 M174.29988414830285,462.22276699964584 L251.23429341129275,417.93498114935227 M183.9410516615204,172.13052555439145 L181.5752238494738,172.43394992966483 M181.5752238494738,172.43394992966483 L179.48132114559309,171.98014926907342 M179.48132114559309,171.98014926907342 L177.77188269373298,170.79342304921525 M177.77188269373298,170.79342304921525 L176.5388106094111,168.93752042223824 M176.5388106094111,168.93752042223824 L175.84840954362573,166.51205512477952 M175.84840954362573,166.51205512477952 L175.73783509218055,163.64739662344238 M175.73783509218055,163.64739662344238 L176.21306671734902,160.49748816061344 M176.21306671734902,160.49748816061344 L177.24859109093754,157.23162065187898 M177.24859109093754,157.23162065187898 L178.7887587664391,154.02538466567918 M178.7887587664391,154.02538466567918 L180.75078521434583,151.05107574043802 M180.75078521434583,151.05107574043802 L183.02918921723017,148.4686399148296 M183.02918921723017,148.4686399148296 L185.50149467477527,146.4168651105898 M185.50149467477527,146.4168651105898 L209.621064950158,139.5690415558164 M215.05432541600254,136.4555563909285 L213.25234257109304,137.84092905346444 M213.25234257109304,137.84092905346444 L211.42419282394366,138.88854078817303 M211.42419282394366,138.88854078817303 L209.621064950158,139.5690415558164 M215.05432541600254,136.4555563909285 L239.14118801744502,115.68231505766715 M239.14118801744502,115.68231505766715 L241.61295156830826,114.90090820519339 M241.61295156830826,114.90090820519339 L243.89269020556065,114.8708906034359 M243.89269020556065,114.8708906034359 L245.85791511814526,115.59381950904753 M245.85791511814526,115.59381950904753 L247.40304663688937,117.03072640375069 M247.40304663688937,117.03072640375069 L248.44510624180413,119.1043984523883 M248.44510624180413,119.1043984523883 L248.9281493947301,121.70333971435946 M248.9281493947301,121.70333971435946 L248.82627091837912,124.68790368132369 M248.82627091837912,124.68790368132369 L248.14497667906465,127.89775108305355 M248.14497667906465,127.89775108305355 L246.92089354687664,131.1603953242311 M246.92089354687664,131.1603953242311 L245.21977962837767,134.3006616297044 M245.21977962837767,134.3006616297044 L243.13301481196703,137.14982630860862 M243.13301481196703,137.14982630860862 L240.7726847887832,139.55485674817135 M240.7726847887832,139.55485674817135 L215.09077401371653,161.70795257042016 M215.09077401371653,161.70795257042016 L213.2891320658996,163.09339054200217 M213.2891320658996,163.09339054200217 L211.4613282742315,164.14120356312537 M211.4613282742315,164.14120356312537 L209.65854173016854,164.82203596629836 M209.65854173016854,164.82203596629836 L183.9410516615204,172.13052555439145 M402.4652925188942,300.07580637856597 L392.879522599671,294.55972620280124 M241.65075342038782,412.4031502325885 L251.23429341129275,417.93498114935227 M164.71636629461375,456.68356982388167 L174.29988414830285,462.22276699964584 M175.89580653015994,140.89172510472628 L185.50149467477527,146.4168651105898 M174.33714241222225,166.60419032280737 L183.9410516615204,172.13052555439145 M200.0551571610887,159.29784508025773 L209.65854173016854,164.82203596629836 M205.4873878751692,156.1842807156777 L215.09077401371653,161.70795257042016 M231.16875911743597,134.03395127871386 L240.7726847887832,139.55485674817135 M229.5354843674357,110.16229888360283 L239.14118801744502,115.68231505766715 M205.44912790528718,130.93294579715655 L215.05432541600254,136.4555563909285 M200.01586900979999,134.0459119324126 L209.621064950158,139.5690415558164" stroke="black"  stroke-width="4"  fill="red"/>
<path d="M386.8688023462572,720.1601765429327 L369.0900889523633,786.7962360291353 M359.456407519088,781.2103461872264 L369.0900889523633,786.7962360291353 M377.23104192248627,714.5783473448337 L359.456407519088,781.2103461872264 M386.8688023462572,720.1601765429327 L377.23104192248627,714.5783473448337 M386.8688023462572,720.1601765429327 L539.5375744565314,662.8068514632669 M539.5375744565314,662.8068514632669 L691.864299644652,543.5828658812416 M709.4328576785572,589.5885293826683 L691.864299644652,543.5828658812416 M709.4328576785572,589.5885293826683 L750.2157112744123,565.9573734799333 M719.4282968371743,485.2045171524469 L750.2157112744123,565.9573734799333 M718.8976792878736,485.73467483120913 L719.4282968371743,485.2045171524469 M718.9155400487065,478.0756859490954 L718.8976792878736,485.73467483120913 M539.5814668736901,618.381082236255 L718.9155400487065,478.0756859490954 M359.76027618940196,685.8533079178019 L539.5814668736901,618.381082236255 M359.76305542341,693.5242180553723 L359.76027618940196,685.8533079178019 M359.2295602659456,693.609040711423 L359.76305542341,693.5242180553723 M328.0366205491009,810.5841965725365 L359.2295602659456,693.609040711423 M328.0366205491009,810.5841965725365 L369.0900889523633,786.7962360291353 M359.456407519088,781.2103461872264 L318.402942929918,804.9943341258586 M328.0366205491009,810.5841965725365 L318.402942929918,804.9943341258586 M529.9020747385176,657.2384863901664 L377.23104192248627,714.5783473448337 M682.2265950633179,538.0304889561415 L529.9020747385176,657.2384863901664 M699.7992384824652,584.0355189798704 L682.2265950633179,538.0304889561415 M740.5821107749041,560.4082964686179 L699.7992384824652,584.0355189798704 M709.7875242512858,479.6565582467159 L740.5821107749041,560.4082964686179 M709.256922667377,480.18665551683716 L709.7875242512858,479.6565582467159 M709.274228150086,472.52798595526633 L709.256922667377,480.18665551683716 M709.274228150086,472.52798595526633 L529.9427487304946,612.8145648734583 M529.9427487304946,612.8145648734583 L350.11889852322497,680.2709385635126 M350.122233046699,687.9415293859099 L350.11889852322497,680.2709385635126 M349.588721729651,688.0263097832465 L350.122233046699,687.9415293859099 M318.402942929918,804.9943341258586 L349.588721729651,688.0263097832465 M539.5375744565314,662.8068514632669 L529.9020747385176,657.2384863901664 M682.2265950633179,538.0304889561415 L691.864299644652,543.5828658812416 M709.4328576785572,589.5885293826683 L699.7992384824652,584.0355189798704 M740.5821107749041,560.4082964686179 L750.2157112744123,565.9573734799333 M719.4282968371743,485.2045171524469 L709.7875242512858,479.6565582467159 M709.256922667377,480.18665551683716 L718.8976792878736,485.73467483120913 M709.274228150086,472.52798595526633 L718.9155400487065,478.0756859490954 M539.5814668736901,618.381082236255 L529.9427487304946,612.8145648734583 M359.76027618940196,685.8533079178019 L350.11889852322497,680.2709385635126 M359.76305542341,693.5242180553723 L350.122233046699,687.9415293859099 M359.2295602659456,693.609040711423 L349.588721729651,688.0263097832465" stroke="black"  stroke-width="4"  fill="red"/>
<path d="M396.50817276565493,725.7429381900865 L378.72537926653723,792.3830587471759 M369.0900889523633,786.7962360291353 L378.72537926653723,792.3830587471759 M386.8688023462572,720.1601765429327 L369.0900889523633,786.7962360291353 M396.50817276565493,725.7429381900865 L386.8688023462572,720.1601765429327 M396.50817276565493,725.7429381900865 L549.1746812885194,668.3761452891654 M549.1746812885194,668.3761452891654 L701.5036099586246,549.1361678847951 M719.068081002539,595.1424644368021 L701.5036099586246,549.1361678847951 M719.068081002539,595.1424644368021 L759.8509153303967,571.5073741602732 M729.0706757955435,490.75340047460094 L759.8509153303967,571.5073741602732 M728.5400422828958,491.2836185747775 L729.0706757955435,490.75340047460094 M728.55845850667,483.6243103720219 L728.5400422828958,491.2836185747775 M549.2217932041264,623.9485283534841 L728.55845850667,483.6243103720219 M369.403265438678,691.4366103806585 L549.2217932041264,623.9485283534841 M369.40548919753456,699.1078398330008 L369.403265438678,691.4366103806585 M368.87201021250837,699.192704760708 L369.40548919753456,699.1078398330008 M337.6719076206217,816.1749928907366 L368.87201021250837,699.192704760708 M337.6719076206217,816.1749928907366 L378.72537926653723,792.3830587471759 M369.0900889523633,786.7962360291353 L328.0366205491009,810.5841965725365 M337.6719076206217,816.1749928907366 L328.0366205491009,810.5841965725365 M539.5375744565316,662.8068514632666 L386.8688023462572,720.1601765429327 M691.864299644652,543.5828658812416 L539.5375744565316,662.8068514632666 M709.4328576785572,589.5885293826683 L691.864299644652,543.5828658812416 M750.2157112744123,565.9573734799333 L709.4328576785572,589.5885293826683 M719.4282968371743,485.2045171524469 L750.2157112744123,565.9573734799333 M718.8976792878736,485.73467483120913 L719.4282968371743,485.2045171524469 M718.9155400487065,478.0756859490954 L718.8976792878736,485.73467483120913 M718.9155400487065,478.0756859490954 L539.5814668736905,618.3810822362548 M539.5814668736905,618.3810822362548 L359.76027618940196,685.8533079178019 M359.76305542341,693.5242180553723 L359.76027618940196,685.8533079178019 M359.2295602659456,693.609040711423 L359.76305542341,693.5242180553723 M328.0366205491009,810.5841965725365 L359.2295602659456,693.609040711423 M549.1746812885194,668.3761452891654 L539.5375744565316,662.8068514632666 M691.864299644652,543.5828658812416 L701.5036099586246,549.1361678847951 M719.068081002539,595.1424644368021 L709.4328576785572,589.5885293826683 M750.2157112744123,565.9573734799333 L759.8509153303967,571.5073741602732 M729.0706757955435,490.75340047460094 L719.4282968371743,485.2045171524469 M718.8976792878736,485.73467483120913 L728.5400422828958,491.2836185747775 M718.9155400487065,478.0756859490954 L728.55845850667,483.6243103720219 M549.2217932041264,623.9485283534841 L539.5814668736905,618.3810822362548 M369.403265438678,691.4366103806585 L359.76027618940196,685.8533079178019 M369.40548919753456,699.1078398330008 L359.76305542341,693.5242180553723 M368.87201021250837,699.192704760708 L359.2295602659456,693.609040711423" stroke="black"  stroke-width="4"  fill="red"/>
<path d="M377.23104192248627,714.5783473448337 L359.456407519088,781.2103461872264 M349.8243345637735,775.625388987814 L359.456407519088,781.2103461872264 M367.59489109101673,708.9974503621986 L349.8243345637735,775.625388987814 M377.23104192248627,714.5783473448337 L367.59489109101673,708.9974503621986 M377.23104192248627,714.5783473448337 L529.9020747385175,657.2384863901666 M529.9020747385175,657.2384863901666 L682.2265950633179,538.0304889561415 M699.7992384824652,584.0355189798704 L682.2265950633179,538.0304889561415 M699.7992384824652,584.0355189798704 L740.5821107749041,560.4082964686179 M709.7875242512858,479.6565582467159 L740.5821107749041,560.4082964686179 M709.256922667377,480.18665551683716 L709.7875242512858,479.6565582467159 M709.274228150086,472.52798595526633 L709.256922667377,480.18665551683716 M529.9427487304945,612.8145648734584 L709.274228150086,472.52798595526633 M350.11889852322497,680.2709385635126 L529.9427487304945,612.8145648734584 M350.122233046699,687.9415293859099 L350.11889852322497,680.2709385635126 M349.588721729651,688.0263097832465 L350.122233046699,687.9415293859099 M318.402942929918,804.9943341258586 L349.588721729651,688.0263097832465 M318.402942929918,804.9943341258586 L359.456407519088,781.2103461872264 M349.8243345637735,775.625388987814 L308.77087435984885,799.4054053167354 M318.402942929918,804.9943341258586 L308.77087435984885,799.4054053167354 M520.2681817325013,651.6710498375608 L367.59489109101673,708.9974503621986 M672.5904958134275,532.4790368783626 L520.2681817325013,651.6710498375608 M690.1672230136993,578.4834329975156 L672.5904958134275,532.4790368783626 M730.9501134315932,554.8601428957613 L690.1672230136993,578.4834329975156 M700.148357636491,474.10952352642255 L730.9501134315932,554.8601428957613 M699.6177720200174,474.6395604006721 L700.148357636491,474.10952352642255 M699.6345224093502,466.9812101595321 L699.6177720200174,474.6395604006721 M699.6345224093502,466.9812101595321 L520.3056383721599,607.2489760327126 M520.3056383721599,607.2489760327126 L340.4791320361773,674.6895020838922 M340.4830216635019,682.3597735907276 L340.4791320361773,674.6895020838922 M339.9494941997191,682.4445117422883 L340.4830216635019,682.3597735907276 M308.77087435984885,799.4054053167354 L339.9494941997191,682.4445117422883 M529.9020747385175,657.2384863901666 L520.2681817325013,651.6710498375608 M672.5904958134275,532.4790368783626 L682.2265950633179,538.0304889561415 M699.7992384824652,584.0355189798704 L690.1672230136993,578.4834329975156 M730.9501134315932,554.8601428957613 L740.5821107749041,560.4082964686179 M709.7875242512858,479.6565582467159 L700.148357636491,474.10952352642255 M699.6177720200174,474.6395604006721 L709.256922667377,480.18665551683716 M699.6345224093502,466.9812101595321 L709.274228150086,472.52798595526633 M529.9427487304945,612.8145648734584 L520.3056383721599,607.2489760327126 M350.11889852322497,680.2709385635126 L340.4791320361773,674.6895020838922 M350.122233046699,687.9415293859099 L340.4830216635019,682.3597735907276 M349.588721729651,688.0263097832465 L339.9494941997191,682.4445117422883" stroke="black"  stroke-width="4"  fill="red"/>
<path d="M104.82851507098218,556.8130251995092 L87.16899045791934,623.3301497559737 M77.58232416549163,617.771520665782 L87.16899045791934,623.3301497559737 M95.23780231494175,551.2584442451819 L77.58232416549163,617.771520665782 M104.82851507098218,556.8130251995092 L95.23780231494175,551.2584442451819 M104.82851507098218,556.8130251995092 L257.56240937544214,499.853117181707 M257.56240937544214,499.853117181707 L409.8238878268355,381.0965952856571 M427.51161961130055,427.0835002870399 L409.8238878268355,381.0965952856571 M427.51161961130055,427.0835002870399 L468.2947853775351,403.5673170329207 M437.29815530438276,322.8475672972992 L468.2947853775351,403.5673170329207 M436.7680069159908,323.3759582810104 L437.29815530438276,322.8475672972992 M436.76965603033955,315.7263360383704 L436.7680069159908,323.3759582810104 M257.5123389690094,455.48154781022004 L436.76965603033955,315.7263360383704 M77.61454012203035,522.4905847676371 L257.5123389690094,455.48154781022004 M77.6335309769251,530.1521282165377 L77.61454012203035,522.4905847676371 M77.0995671226276,530.2357166423744 L77.6335309769251,530.1521282165377 M46.11587020019425,647.0019928067982 L77.0995671226276,530.2357166423744 M46.11587020019425,647.0019928067982 L87.16899045791934,623.3301497559737 M77.58232416549163,617.771520665782 L36.529224357261114,641.4394201626496 M46.11587020019425,647.0019928067982 L36.529224357261114,641.4394201626496 M247.97387339366395,494.3118924994747 L95.23780231494175,551.2584442451819 M400.2331068089326,375.5712514895183 L247.97387339366395,494.3118924994747 M417.92487718581475,421.5575105905339 L400.2331068089326,375.5712514895183 M458.70804501314717,398.0452320583372 L417.92487718581475,421.5575105905339 M427.70432496551524,317.32662216614847 L458.70804501314717,398.0452320583372 M427.1741926017551,317.854953114184 L427.70432496551524,317.32662216614847 M427.175291828613,310.2056501833337 L427.1741926017551,317.854953114184 M427.175291828613,310.2056501833337 L247.92061586614392,449.9421708517879 M247.92061586614392,449.9421708517879 L68.02025640413575,516.9354828664823 M68.03979713265682,524.5967069944211 L68.02025640413575,516.9354828664823 M67.50581749328796,524.6802535391118 L68.03979713265682,524.5967069944211 M36.529224357261114,641.4394201626496 L67.50581749328796,524.6802535391118 M257.56240937544214,499.853117181707 L247.97387339366395,494.3118924994747 M400.2331068089326,375.5712514895183 L409.8238878268355,381.0965952856571 M427.51161961130055,427.0835002870399 L417.92487718581475,421.5575105905339 M458.70804501314717,398.0452320583372 L468.2947853775351,403.5673170329207 M437.29815530438276,322.8475672972992 L427.70432496551524,317.32662216614847 M427.1741926017551,317.854953114184 L436.7680069159908,323.3759582810104 M427.175291828613,310.2056501833337 L436.76965603033955,315.7263360383704 M257.5123389690094,455.48154781022004 L247.92061586614392,449.9421708517879 M77.61454012203035,522.4905847676371 L68.02025640413575,516.9354828664823 M77.6335309769251,530.1521282165377 L68.03979713265682,524.5967069944211 M77.0995671226276,530.2357166423744 L67.50581749328796,524.6802535391118" stroke="black"  stroke-width="4"  fill="red"/>
<path d="M114.42082604753324,562.368531783186 L96.75725386743494,628.8897049012959 M87.16899045791934,623.3301497559737 L96.75725386743494,628.8897049012959 M104.82851507098218,556.8130251995092 L87.16899045791934,623.3301497559737 M114.42082604753324,562.368531783186 L104.82851507098218,556.8130251995092 M114.42082604753324,562.368531783186 L267.1525407353485,505.39526383458013 M267.1525407353485,505.39526383458013 L419.4162628643135,386.62285741223764 M437.099954470022,432.6104078938497 L419.4162628643135,386.62285741223764 M437.099954470022,432.6104078938497 L477.8831176120319,409.090318945032 M446.89358029706597,328.36943010115283 L477.8831176120319,409.090318945032 M446.36341588603807,328.89788113320037 L446.89358029706597,328.36943010115283 M446.3656150706767,321.2479395782869 L446.36341588603807,328.89788113320037 M267.1056585115327,461.0218467386635 L446.3656150706767,321.2479395782869 M87.21042362913761,528.0466129486849 L267.1056585115327,461.0218467386635 M87.22886442675588,535.7084757185401 L87.21042362913761,528.0466129486849 M86.69491637021628,535.792106038328 L87.22886442675588,535.7084757185401 M55.70411372331267,652.5654924917737 L86.69491637021628,535.792106038328 M55.70411372331267,652.5654924917737 L96.75725386743494,628.8897049012959 M87.16899045791934,623.3301497559737 L46.11587020019425,647.0019928067982 M55.70411372331267,652.5654924917737 L46.11587020019425,647.0019928067982 M257.56240937544237,499.8531171817068 L104.82851507098218,556.8130251995092 M409.8238878268355,381.0965952856571 L257.56240937544237,499.8531171817068 M427.51161961130055,427.0835002870399 L409.8238878268355,381.0965952856571 M468.2947853775351,403.5673170329207 L427.51161961130055,427.0835002870399 M437.29815530438276,322.8475672972992 L468.2947853775351,403.5673170329207 M436.7680069159908,323.3759582810104 L437.29815530438276,322.8475672972992 M436.76965603033955,315.7263360383704 L436.7680069159908,323.3759582810104 M436.76965603033955,315.7263360383704 L257.51233896900965,455.4815478102199 M257.51233896900965,455.4815478102199 L77.61454012203035,522.4905847676371 M77.6335309769251,530.1521282165377 L77.61454012203035,522.4905847676371 M77.0995671226276,530.2357166423744 L77.6335309769251,530.1521282165377 M46.11587020019425,647.0019928067982 L77.0995671226276,530.2357166423744 M267.1525407353485,505.39526383458013 L257.56240937544237,499.8531171817068 M409.8238878268355,381.0965952856571 L419.4162628643135,386.62285741223764 M437.099954470022,432.6104078938497 L427.51161961130055,427.0835002870399 M468.2947853775351,403.5673170329207 L477.8831176120319,409.090318945032 M446.89358029706597,328.36943010115283 L437.29815530438276,322.8475672972992 M436.7680069159908,323.3759582810104 L446.36341588603807,328.89788113320037 M436.76965603033955,315.7263360383704 L446.3656150706767,321.2479395782869 M267.1056585115327,461.0218467386635 L257.51233896900965,455.4815478102199 M87.21042362913761,528.0466129486849 L77.61454012203035,522.4905847676371 M87.22886442675588,535.7084757185401 L77.6335309769251,530.1521282165377 M86.69491637021628,535.792106038328 L77.0995671226276,530.2357166423744" stroke="black"  stroke-width="4"  fill="red"/>
<path d="M95.23780231494175,551.2584442451819 L77.58232416549163,617.771520665782 M67.99725459113705,612.2138173993606 L77.58232416549163,617.771520665782 M85.64868738001428,545.704788688888 L67.99725459113705,612.2138173993606 M95.23780231494175,551.2584442451819 L85.64868738001428,545.704788688888 M95.23780231494175,551.2584442451819 L247.97387339366378,494.31189249947477 M247.97387339366378,494.31189249947477 L400.2331068089326,375.5712514895183 M417.92487718581475,421.5575105905339 L400.2331068089326,375.5712514895183 M417.92487718581475,421.5575105905339 L458.70804501314717,398.0452320583372 M427.70432496551524,317.32662216614847 L458.70804501314717,398.0452320583372 M427.1741926017551,317.854953114184 L427.70432496551524,317.32662216614847 M427.175291828613,310.2056501833337 L427.1741926017551,317.854953114184 M247.92061586614372,449.94217085178803 L427.175291828613,310.2056501833337 M68.02025640413575,516.9354828664823 L247.92061586614372,449.94217085178803 M68.03979713265682,524.5967069944211 L68.02025640413575,516.9354828664823 M67.50581749328796,524.6802535391118 L68.03979713265682,524.5967069944211 M36.529224357261114,641.4394201626496 L67.50581749328796,524.6802535391118 M36.529224357261114,641.4394201626496 L77.58232416549163,617.771520665782 M67.99725459113705,612.2138173993606 L26.944175795216438,635.8777743276396 M36.529224357261114,641.4394201626496 L26.944175795216438,635.8777743276396 M238.3869323919459,488.77158955783875 L85.64868738001428,545.704788688888 M390.64391941330666,370.0468257949342 L238.3869323919459,488.77158955783875 M408.33972679688975,416.03243857568054 L390.64391941330666,370.0468257949342 M449.12289612247395,392.52406379295337 L408.33972679688975,416.03243857568054 M418.11208888297557,311.8065944789593 L449.12289612247395,392.52406379295337 M417.5819725458415,312.3348654039755 L418.11208888297557,311.8065944789593 M417.58252206793924,304.68588178441826 L417.5819725458415,312.3348654039755 M417.58252206793924,304.68588178441826 L238.33048880447043,444.4037156332462 M238.33048880447043,444.4037156332462 L58.427572075420926,511.3813070136013 M58.44766249398697,519.0422118205838 L58.427572075420926,511.3813070136013 M57.91366708222762,519.1257164969295 L58.44766249398697,519.0422118205838 M26.944175795216438,635.8777743276396 L57.91366708222762,519.1257164969295 M247.97387339366378,494.31189249947477 L238.3869323919459,488.77158955783875 M390.64391941330666,370.0468257949342 L400.2331068089326,375.5712514895183 M417.92487718581475,421.5575105905339 L408.33972679688975,416.03243857568054 M449.12289612247395,392.52406379295337 L458.70804501314717,398.0452320583372 M427.70432496551524,317.32662216614847 L418.11208888297557,311.8065944789593 M417.5819725458415,312.3348654039755 L427.1741926017551,317.854953114184 M417.58252206793924,304.68588178441826 L427.175291828613,310.2056501833337 M247.92061586614372,449.94217085178803 L238.33048880447043,444.4037156332462 M68.02025640413575,516.9354828664823 L58.427572075420926,511.3813070136013 M68.03979713265682,524.5967069944211 L58.44766249398697,519.0422118205838 M67.50581749328796,524.6802535391118 L57.91366708222762,519.1257164969295" stroke="black"  stroke-width="4"  fill="red"/>
<path d="M36.77413244620698,497.3911296737084 L38.41948948656034,485.4857312722125 M213.95310726294014,431.46732400048444 L215.60746644557094,419.57889221219546 M36.77413244620698,497.3911296737084 L213.95310726294014,431.46732400048444 M38.41948948656034,485.4857312722125 L215.60746644557094,419.57889221219546 M598.6608040492072,653.6461229323666 L600.3467337409929,641.7330417277353 M213.95310726294014,431.46732400048444 L598.6608040492072,653.6461229323666 M215.60746644557094,419.57889221219546 L600.3467337409929,641.7330417277353 M421.5848374614423,720.1921352959534 L423.26179899782295,708.2620283740155 M598.6608040492072,653.6461229323666 L421.5848374614423,720.1921352959534 M600.3467337409929,641.7330417277353 L423.26179899782295,708.2620283740155 M421.5848374614423,720.1921352959534 L36.77413244620698,497.3911296737084 M423.26179899782295,708.2620283740155 L38.41948948656034,485.4857312722125" stroke="black"  stroke-width="4"  fill="red"/>
<path d="M394.4850189872089,291.60848165110366 L392.81837920311006,281.64193678034496 M217.96291195055488,429.15932920316175 L216.27715515781745,419.19349088063575 M394.4850189872089,291.60848165110366 L217.96291195055488,429.15932920316175 M392.81837920311006,281.64193678034496 L216.27715515781745,419.19349088063575 M602.6706086626037,651.3226921775129 L601.0164224408397,641.3450626050917 M217.96291195055488,429.15932920316175 L602.6706086626037,651.3226921775129 M216.27715515781745,419.19349088063575 L601.0164224408397,641.3450626050917 M779.2957231019187,513.032828679848 L777.660687716452,503.0544337095541 M602.6706086626037,651.3226921775129 L779.2957231019187,513.032828679848 M601.0164224408397,641.3450626050917 L777.660687716452,503.0544337095541 M779.2957231019187,513.032828679848 L394.4850189872089,291.60848165110366 M777.660687716452,503.0544337095541 L392.81837920311006,281.64193678034496" stroke="black"  stroke-width="4"  fill="red"/></svg>