<svg viewBox="0 0 800 800" xmlns="http://www.w3.org/2000/svg"><path d="M754.8519839603746,204.19974196846414 L422.23344424784517,395.89383831900363 M422.23344424784517,395.89383831900363 L431.9334490652689,401.4827535298922 M764.5518994852341,209.7565757613209 L431.9334490652689,401.4827535298922 M754.8519839603746,204.19974196846414 L764.5518994852341,209.7565757613209 M754.8519839603746,204.19974196846414 L778.5903690073303,516.2374313666526 M397.4634894217983,736.9637517191029 L422.23344424784517,395.89383831900363 M549.7139143810664,679.7367681231542 L397.4634894217983,736.9637517191029 M549.7139143810664,679.7367681231542 L626.8590549035025,635.0381780371744 M778.5903690073303,516.2374313666526 L626.8590549035025,635.0381780371744 M561.8188951730519,362.5160164944699 L559.3380221061898,364.58374209733836 M559.3380221061898,364.58374209733836 L557.0497713935051,367.18391234125795 M557.0497713935051,367.18391234125795 L555.0771485316056,370.176786001933 M555.0771485316056,370.176786001933 L553.5262046830292,373.40141859127726 M553.5262046830292,373.40141859127726 L552.4803035728937,376.68452570108377 M552.4803035728937,376.68452570108377 L551.9956525384041,379.84958973486977 M551.9956525384041,379.84958973486977 L552.0982710515473,382.7265051777372 M552.0982710515473,382.7265051777372 L552.7826070175977,385.1606701657527 M552.7826070175977,385.1606701657527 L554.0118306202878,387.0212478019948 M554.0118306202878,387.0212478019948 L555.7198434666054,388.2083739061125 M555.7198434666054,388.2083739061125 L557.8148198054325,388.6582782578301 M557.8148198054325,388.6582782578301 L560.184162463561,388.34687141418107 M585.9848793718604,355.5703673550989 L561.8188951730519,362.5160164944699 M591.4330221035295,352.4279558324854 L589.6251082754973,353.8244695814195 M589.6251082754973,353.8244695814195 L587.791951035955,354.8818143110045 M587.791951035955,354.8818143110045 L585.9848793718604,355.5703673550989 M615.6055132388822,331.4959113768207 L591.4330221035295,352.4279558324854 M617.1714633638833,355.46858146719353 L619.5412239850677,353.0463706881188 M619.5412239850677,353.0463706881188 L621.6383664563873,350.1788466950293 M621.6383664563873,350.1788466950293 L623.3502478446092,347.02002803972977 M623.3502478446092,347.02002803972977 L624.584909867707,343.73963494064526 M624.584909867707,343.73963494064526 L625.2760264268011,340.51379500954204 M625.2760264268011,340.51379500954204 L625.3864427739134,337.5158541013228 M625.3864427739134,337.5158541013228 L624.910194215473,334.9068701363339 M624.910194215473,334.9068701363339 L623.872820625749,332.82702939086874 M623.872820625749,332.82702939086874 L622.3300143201714,331.38815982926235 M622.3300143201714,331.38815982926235 L620.3646286659784,330.66758007904735 M620.3646286659784,330.66758007904735 L618.0822515056338,330.7041332457965 M618.0822515056338,330.7041332457965 L615.6055132388822,331.4959113768207 M591.3982584514349,377.79101432287706 L617.1714633638833,355.46858146719353 M585.9511467192413,380.93402576097776 L587.7578764949121,380.24513950279044 M587.7578764949121,380.24513950279044 L589.5906868310683,379.18759292002994 M589.5906868310683,379.18759292002994 L591.3982584514349,377.79101432287706 M560.184162463561,388.34687141418107 L585.9511467192413,380.93402576097776 M431.9334490652689,401.4827535298922 L407.1397977310984,742.5687232547605 M397.4634894217983,736.9637517191029 L407.1397977310984,742.5687232547605 M636.5330800622728,640.6222389910206 L788.2665755422927,521.8055528106145 M788.2665755422927,521.8055528106145 L764.5518994852341,209.7565757613209 M407.1397977310984,742.5687232547605 L559.3879601643252,685.3282897229406 M559.3879601643252,685.3282897229406 L636.5330800622728,640.6222389910206 M569.8789245951959,393.92548571999566 L567.509659119223,394.23707707722235 M567.509659119223,394.23707707722235 L565.4148036773777,393.7873055070336 M565.4148036773777,393.7873055070336 L563.7069489535388,392.60025330627525 M563.7069489535388,392.60025330627525 L562.4779122050932,390.7396867145825 M562.4779122050932,390.7396867145825 L561.7937817951422,388.3054693070328 M561.7937817951422,388.3054693070328 L561.6913764936598,385.428440793441 M561.6913764936598,385.428440793441 L562.1762369394798,382.2632091126815 M562.1762369394798,382.2632091126815 L563.2223324064398,378.97988879152274 M563.2223324064398,378.97988879152274 L564.77344510629,375.7550088932991 M564.77344510629,375.7550088932991 L566.746202238799,372.7618671232321 M566.746202238799,372.7618671232321 L569.0345454159592,370.16142239018575 M569.0345454159592,370.16142239018575 L571.5154641685524,368.0934306755339 M571.5154641685524,368.0934306755339 L595.6809345972974,361.1457424102561 M601.1290758656905,358.00280519554707 L599.3211368351606,359.39950820125244 M599.3211368351606,359.39950820125244 L597.4879800879701,360.4570298129205 M597.4879800879701,360.4570298129205 L595.6809345972974,361.1457424102561 M601.1290758656905,358.00280519554707 L625.3020677872073,337.0681359518937 M625.3020677872073,337.0681359518937 L627.7787590368584,336.2761455699227 M627.7787590368584,336.2761455699227 L630.0610425055054,336.2394258338916 M630.0610425055054,336.2394258338916 L632.0262928319871,336.9598936383396 M632.0262928319871,336.9598936383396 L633.5689294561203,338.3987118806113 M633.5689294561203,338.3987118806113 L634.6061081303606,340.4785646823824 M634.6061081303606,340.4785646823824 L635.0821470202955,343.0876234220655 M635.0821470202955,343.0876234220655 L634.9715175195888,346.08569780161565 M634.9715175195888,346.08569780161565 L634.2801957745241,349.3117227301433 M634.2801957745241,349.3117227301433 L633.0453475594361,352.59234241483966 M633.0453475594361,352.59234241483966 L631.33330896751,355.7514170813626 M631.33330896751,355.7514170813626 L629.2360467251335,358.61921276309397 M629.2360467251335,358.61921276309397 L626.8662101943983,361.0416963197251 M626.8662101943983,361.0416963197251 L601.0924714545502,383.36692793778957 M601.0924714545502,383.36692793778957 L599.2848746411619,384.76369577509183 M599.2848746411619,384.76369577509183 L597.4520647970771,385.8214192401673 M597.4520647970771,385.8214192401673 L595.6453611848005,386.51046506867675 M595.6453611848005,386.51046506867675 L569.8789245951959,393.92548571999566 M788.2665755422927,521.8055528106145 L778.5903690073303,516.2374313666526 M626.8590549035025,635.0381780371744 L636.5330800622728,640.6222389910206 M549.7139143810664,679.7367681231542 L559.3879601643252,685.3282897229406 M561.8188951730519,362.5160164944699 L571.5154641685524,368.0934306755339 M560.184162463561,388.34687141418107 L569.8789245951959,393.92548571999566 M585.9511467192413,380.93402576097776 L595.6453611848005,386.51046506867675 M591.3982584514349,377.79101432287706 L601.0924714545502,383.36692793778957 M617.1714633638833,355.46858146719353 L626.8662101943983,361.0416963197251 M615.6055132388822,331.4959113768207 L625.3020677872073,337.0681359518937 M591.4330221035295,352.4279558324854 L601.1290758656905,358.00280519554707 M585.9848793718604,355.5703673550989 L595.6809345972974,361.1457424102561" stroke="black"  stroke-width="4"  fill="red"/>
<path d="M368.18000249066694,-17.31475760373263 L35.561708676112914,173.10265571302 M35.561708676112914,173.10265571302 L45.19701624189008,178.6542938853261 M377.81540638355534,-11.794880876702848 L45.19701624189008,178.6542938853261 M368.18000249066694,-17.31475760373263 L377.81540638355534,-11.794880876702848 M368.18000249066694,-17.31475760373263 L392.86002198329766,294.2709604060676 M11.733424457707429,513.5308095821572 L35.561708676112914,173.10265571302 M164.07200277488337,456.8388072451479 L11.733424457707429,513.5308095821572 M164.07200277488337,456.8388072451479 L241.21708756668698,412.43711833064 M392.86002198329766,294.2709604060676 L241.21708756668698,412.43711833064 M175.28205977431298,140.18211382674048 L172.80302994951876,142.23924403626268 M172.80302994951876,142.23924403626268 L170.5184786613978,144.82848000976782 M170.5184786613978,144.82848000976782 L168.55121245675585,147.81066837009638 M168.55121245675585,147.81066837009638 L167.00699424267196,151.0254393580464 M167.00699424267196,151.0254393580464 L165.9688262671631,154.30003879151766 M165.9688262671631,154.30003879151766 L165.4925000387101,157.45840663035784 M165.4925000387101,157.45840663035784 L165.6035876389714,160.33079731400602 M165.6035876389714,160.33079731400602 L166.2960819293398,162.76285208076004 M166.2960819293398,162.76285208076004 L167.53271467811408,164.62384727353216 M167.53271467811408,164.62384727353216 L169.2469897879274,165.81389580496693 M169.2469897879274,165.81389580496693 L171.34674512397189,166.26907004280292 M171.34674512397189,166.26907004280292 L173.71912699441484,165.96499692441623 M199.46817907274118,133.3175522519066 L175.28205977431298,140.18211382674048 M204.91631785498623,130.19606073907062 L203.10942584855107,131.58503995910087 M203.10942584855107,131.58503995910087 L201.2762699378738,132.63534563486144 M201.2762699378738,132.63534563486144 L199.46817907274118,133.3175522519066 M229.06863882636563,109.36852994055857 L204.91631785498623,130.19606073907062 M230.70638657200107,133.30555884196048 L233.07310453942046,130.8942123219282 M233.07310453942046,130.8942123219282 L235.1654649678213,128.03751439885457 M235.1654649678213,128.03751439885457 L236.87108160653406,124.8889023107817 M236.87108160653406,124.8889023107817 L238.0983326912396,121.61754816695344 M238.0983326912396,121.61754816695344 L238.78128992417794,118.39909438930113 M238.78128992417794,118.39909438930113 L238.88323702702831,115.40649005457573 M238.88323702702831,115.40649005457573 L238.39866435874373,112.80050638438439 M238.39866435874373,112.80050638438439 L237.3535591464918,110.72116828640122 M237.3535591464918,110.72116828640122 L235.80402945293744,109.28027634104933 M235.80402945293744,109.28027634104933 L233.8332900013393,108.5552575136262 M233.8332900013393,108.5552575136262 L231.54721673552925,108.58519294589775 M231.54721673552925,108.58519294589775 L229.06863882636563,109.36852994055857 M204.95468260618463,155.51655065485923 L230.70638657200107,133.30555884196048 M199.50757482119275,158.63864203537014 L201.31532341255215,157.95610289184944 M201.31532341255215,157.95610289184944 L203.14813242059142,156.90559537897946 M203.14813242059142,156.90559537897946 L204.95468260618463,155.51655065485923 M173.71912699441484,165.96499692441623 L199.50757482119275,158.63864203537014 M45.19701624189008,178.6542938853261 L21.345336727662072,519.098479912024 M11.733424457707429,513.5308095821572 L21.345336727662072,519.098479912024 M250.82687368216406,417.9840990901018 L402.47204413412413,299.80214728849603 M402.47204413412413,299.80214728849603 L377.81540638355534,-11.794880876702848 M21.345336727662072,519.098479912024 L173.68176669251815,462.3931744373406 M173.68176669251815,462.3931744373406 L250.82687368216406,417.9840990901018 M183.3493381529006,171.50646694784692 L180.9770311263331,171.81072230143928 M180.9770311263331,171.81072230143928 L178.87739392024753,171.35567883196094 M178.87739392024753,171.35567883196094 L177.16327388573643,170.16570256418436 M177.16327388573643,170.16570256418436 L175.92682482760716,168.30471723795546 M175.92682482760716,168.30471723795546 L175.23453298321655,165.87260939876336 M175.23453298321655,165.87260939876336 L175.12365570517184,163.00010555176547 M175.12365570517184,163.00010555176547 L175.60018883150235,159.84157053862378 M175.60018883150235,159.84157053862378 L176.63854916150495,156.5667589063658 M176.63854916150495,156.5667589063658 L178.18293484337067,153.35174210752456 M178.18293484337067,153.35174210752456 L180.15033462833387,150.36928754062694 M180.15033462833387,150.36928754062694 L182.43497842103932,147.77977928328207 M182.43497842103932,147.77977928328207 L184.9140546999178,145.72238535112538 M184.9140546999178,145.72238535112538 L209.09968044610517,138.85580788806368 M214.54782080300822,135.73379592414642 L212.74090292717392,137.12296266105517 M212.74090292717392,137.12296266105517 L210.90774648666837,138.17344345543478 M210.90774648666837,138.17344345543478 L209.09968044610517,138.85580788806368 M214.54782080300822,135.73379592414642 L238.70064929982857,114.90366360067503 M238.70064929982857,114.90366360067503 L241.1791821879231,114.1201167350527 M241.1791821879231,114.1201167350527 L243.46516427011574,114.09001692508042 M243.46516427011574,114.09001692508042 L245.43577127928643,114.81492569221814 M245.43577127928643,114.81492569221814 L246.98513439870834,116.25576779639425 M246.98513439870834,116.25576779639425 L248.03004785785947,118.33511894220908 M248.03004785785947,118.33511894220908 L248.51441390512065,120.94117783881035 M248.51441390512065,120.94117783881035 L248.41225641755003,123.93391553257544 M248.41225641755003,123.93391553257544 L247.72909634019533,127.15255363741119 M247.72909634019533,127.15255363741119 L246.5016608519463,130.4241331746557 M246.5016608519463,130.4241331746557 L244.79588814892108,133.57299962378363 M244.79588814892108,133.57299962378363 L242.70340837860238,136.4299672159289 M242.70340837860238,136.4299672159289 L240.33661419751047,138.84158423295418 M240.33661419751047,138.84158423295418 L214.58436922129337,161.05535000734614 M214.58436922129337,161.05535000734614 L212.77779317615528,162.44458223216063 M212.77779317615528,162.44458223216063 L210.94498363858798,163.4952648642111 M210.94498363858798,163.4952648642111 L209.13725986253584,164.177961840609 M209.13725986253584,164.177961840609 L183.3493381529006,171.50646694784692 M402.47204413412413,299.80214728849603 L392.86002198329766,294.2709604060676 M241.21708756668698,412.43711833064 L250.82687368216406,417.9840990901018 M164.07200277488337,456.8388072451479 L173.68176669251815,462.3931744373406 M175.28205977431298,140.18211382674048 L184.9140546999178,145.72238535112538 M173.71912699441484,165.96499692441623 L183.3493381529006,171.50646694784692 M199.50757482119275,158.63864203537014 L209.13725986253584,164.177961840609 M204.95468260618463,155.51655065485923 L214.58436922129337,161.05535000734614 M230.70638657200107,133.30555884196048 L240.33661419751047,138.84158423295418 M229.06863882636563,109.36852994055857 L238.70064929982857,114.90366360067503 M204.91631785498623,130.19606073907062 L214.54782080300822,135.73379592414642 M199.46817907274118,133.3175522519066 L209.09968044610517,138.85580788806368" stroke="black"  stroke-width="4"  fill="red"/>
<path d="M386.83284036877,721.03698864833 L369.0054369994692,787.8555421106553 M359.3453721209089,782.2543543766546 L369.0054369994692,787.8555421106553 M377.1686853287175,715.4398726788904 L359.3453721209089,782.2543543766546 M386.83284036877,721.03698864833 L377.1686853287175,715.4398726788904 M386.83284036877,721.03698864833 L539.919721404857,663.5265919107908 M539.919721404857,663.5265919107908 L692.6636187661775,543.9760915356364 M710.2802912299435,590.1077492288158 L692.6636187661775,543.9760915356364 M710.2802912299435,590.1077492288158 L751.174835480494,566.4118754595934 M720.3031045677847,485.4378639505417 L751.174835480494,566.4118754595934 M719.7710338337199,485.96947355463567 L720.3031045677847,485.4378639505417 M719.7889435092288,478.28950925253224 L719.7710338337199,485.96947355463567 M539.9637340287297,618.9791552963152 L719.7889435092288,478.28950925253224 M359.65007298631804,686.636164934738 L539.9637340287297,618.9791552963152 M359.6528598317224,694.3280831406469 L359.65007298631804,686.636164934738 M359.1179036086837,694.4131380977051 L359.6528598317224,694.3280831406469 M327.83953681767264,811.7086499562363 L359.1179036086837,694.4131380977051 M327.83953681767264,811.7086499562363 L369.0054369994692,787.8555421106553 M359.3453721209089,782.2543543766546 L318.1794757636504,806.1034787378251 M327.83953681767264,811.7086499562363 L318.1794757636504,806.1034787378251 M530.2578332618818,657.9429769401045 L377.1686853287175,715.4398726788904 M682.9995197214957,538.4085084991636 L530.2578332618818,657.9429769401045 M700.6202887590134,584.5395309797607 L682.9995197214957,538.4085084991636 M741.5148517573516,560.8476013742701 L700.6202887590134,584.5395309797607 M710.6359291163058,479.87471103292177 L741.5148517573516,560.8476013742701 M710.1038743913568,480.4062600629355 L710.6359291163058,479.87471103292177 M710.1212272680198,472.72661595588767 L710.1038743913568,480.4062600629355 M710.1212272680198,472.72661595588767 L530.2986186463779,613.3973930961957 M530.2986186463779,613.3973930961957 L349.98229079743714,681.0385073298003 M349.9856344530605,688.730105346038 L349.98229079743714,681.0385073298003 M349.45066202618244,688.8151179286497 L349.9856344530605,688.730105346038 M318.1794757636504,806.1034787378251 L349.45066202618244,688.8151179286497 M539.919721404857,663.5265919107908 L530.2578332618818,657.9429769401045 M682.9995197214957,538.4085084991636 L692.6636187661775,543.9760915356364 M710.2802912299435,590.1077492288158 L700.6202887590134,584.5395309797607 M741.5148517573516,560.8476013742701 L751.174835480494,566.4118754595934 M720.3031045677847,485.4378639505417 L710.6359291163058,479.87471103292177 M710.1038743913568,480.4062600629355 L719.7710338337199,485.96947355463567 M710.1212272680198,472.72661595588767 L719.7889435092288,478.28950925253224 M539.9637340287297,618.9791552963152 L530.2986186463779,613.3973930961957 M359.65007298631804,686.636164934738 L349.98229079743714,681.0385073298003 M359.6528598317224,694.3280831406469 L349.9856344530605,688.730105346038 M359.1179036086837,694.4131380977051 L349.45066202618244,688.8151179286497" stroke="black"  stroke-width="4"  fill="red"/>
<path d="M396.49860981369113,726.6350396204919 L378.667115165117,793.4576652756245 M369.0054369994692,787.8555421106553 L378.667115165117,793.4576652756245 M386.83284036877,721.03698864833 L369.0054369994692,787.8555421106553 M396.49860981369113,726.6350396204919 L386.83284036877,721.03698864833 M396.49860981369113,726.6350396204919 L549.5832210631565,669.1111381778198 M549.5832210631565,669.1111381778198 L702.3293279410648,549.5446021840447 M719.9419022219354,595.6768946615191 L702.3293279410648,549.5446021840447 M719.9419022219354,595.6768946615191 L760.8364271517198,571.9770757435631 M729.9718907910635,491.0019438162536 L760.8364271517198,571.9770757435631 M729.4398040499336,491.53361400723594 L729.9718907910635,491.0019438162536 M729.458270709612,483.85332950997775 L729.4398040499336,491.53361400723594 M549.6304620026112,624.5618487944164 L729.458270709612,483.85332950997775 M369.31947117188736,692.2347582037169 L549.6304620026112,624.5618487944164 M369.3217010208789,699.9269965988942 L369.31947117188736,692.2347582037169 M368.78676101456927,700.0120939433771 L369.3217010208789,699.9269965988942 M337.50121173178684,817.3147576037327 L368.78676101456927,700.0120939433771 M337.50121173178684,817.3147576037327 L378.667115165117,793.4576652756245 M369.0054369994692,787.8555421106553 L327.83953681767264,811.7086499562363 M337.50121173178684,817.3147576037327 L327.83953681767264,811.7086499562363 M539.9197214048572,663.5265919107906 L386.83284036877,721.03698864833 M692.6636187661775,543.9760915356364 L539.9197214048572,663.5265919107906 M710.2802912299435,590.1077492288158 L692.6636187661775,543.9760915356364 M751.174835480494,566.4118754595934 L710.2802912299435,590.1077492288158 M720.3031045677847,485.4378639505417 L751.174835480494,566.4118754595934 M719.7710338337199,485.96947355463567 L720.3031045677847,485.4378639505417 M719.7889435092288,478.28950925253224 L719.7710338337199,485.96947355463567 M719.7889435092288,478.28950925253224 L539.96373402873,618.9791552963151 M539.96373402873,618.9791552963151 L359.65007298631804,686.636164934738 M359.6528598317224,694.3280831406469 L359.65007298631804,686.636164934738 M359.1179036086837,694.4131380977051 L359.6528598317224,694.3280831406469 M327.83953681767264,811.7086499562363 L359.1179036086837,694.4131380977051 M549.5832210631565,669.1111381778198 L539.9197214048572,663.5265919107906 M692.6636187661775,543.9760915356364 L702.3293279410648,549.5446021840447 M719.9419022219354,595.6768946615191 L710.2802912299435,590.1077492288158 M751.174835480494,566.4118754595934 L760.8364271517198,571.9770757435631 M729.9718907910635,491.0019438162536 L720.3031045677847,485.4378639505417 M719.7710338337199,485.96947355463567 L729.4398040499336,491.53361400723594 M719.7889435092288,478.28950925253224 L729.458270709612,483.85332950997775 M549.6304620026112,624.5618487944164 L539.96373402873,618.9791552963151 M369.31947117188736,692.2347582037169 L359.65007298631804,686.636164934738 M369.3217010208789,699.9269965988942 L359.6528598317224,694.3280831406469 M368.78676101456927,700.0120939433771 L359.1179036086837,694.4131380977051" stroke="black"  stroke-width="4"  fill="red"/>
<path d="M377.1686853287175,715.4398726788904 L359.3453721209089,782.2543543766546 M349.6869201253949,776.6541018393477 L359.3453721209089,782.2543543766546 M367.50614428910376,709.8436914779425 L349.6869201253949,776.6541018393477 M377.1686853287175,715.4398726788904 L367.50614428910376,709.8436914779425 M377.1686853287175,715.4398726788904 L530.2578332618818,657.9429769401045 M530.2578332618818,657.9429769401045 L682.9995197214957,538.4085084991636 M700.6202887590134,584.5395309797607 L682.9995197214957,538.4085084991636 M700.6202887590134,584.5395309797607 L741.5148517573516,560.8476013742701 M710.6359291163058,479.87471103292177 L741.5148517573516,560.8476013742701 M710.1038743913568,480.4062600629355 L710.6359291163058,479.87471103292177 M710.1212272680198,472.72661595588767 L710.1038743913568,480.4062600629355 M530.2986186463777,613.3973930961959 L710.1212272680198,472.72661595588767 M349.98229079743714,681.0385073298003 L530.2986186463777,613.3973930961959 M349.9856344530605,688.730105346038 L349.98229079743714,681.0385073298003 M349.45066202618244,688.8151179286497 L349.9856344530605,688.730105346038 M318.1794757636504,806.1034787378251 L349.45066202618244,688.8151179286497 M318.1794757636504,806.1034787378251 L359.3453721209089,782.2543543766546 M349.6869201253949,776.6541018393477 L308.5210281653915,800.4992437138912 M318.1794757636504,806.1034787378251 L308.5210281653915,800.4992437138912 M520.5975562311535,652.3602930328213 L367.50614428910376,709.8436914779425 M673.337030404726,532.8418528428608 L520.5975562311535,652.3602930328213 M690.9618944074848,578.9722396828283 L673.337030404726,532.8418528428608 M731.8564755809173,555.2842532563964 L690.9618944074848,578.9722396828283 M700.9703640341402,474.3124848317756 L731.8564755809173,555.2842532563964 M700.4383253203562,474.84397330051337 L700.9703640341402,474.3124848317756 M700.4551215834274,467.1646493884087 L700.4383253203562,474.84397330051337 M700.4551215834274,467.1646493884087 L520.6351154520744,607.8165619610402 M520.6351154520744,607.8165619610402 L340.3161242001687,675.4417851543647 M340.3200244798872,683.1330629805414 L340.3161242001687,675.4417851543647 M339.78503586205375,683.2180332016801 L340.3200244798872,683.1330629805414 M308.5210281653915,800.4992437138912 L339.78503586205375,683.2180332016801 M530.2578332618818,657.9429769401045 L520.5975562311535,652.3602930328213 M673.337030404726,532.8418528428608 L682.9995197214957,538.4085084991636 M700.6202887590134,584.5395309797607 L690.9618944074848,578.9722396828283 M731.8564755809173,555.2842532563964 L741.5148517573516,560.8476013742701 M710.6359291163058,479.87471103292177 L700.9703640341402,474.3124848317756 M700.4383253203562,474.84397330051337 L710.1038743913568,480.4062600629355 M700.4551215834274,467.1646493884087 L710.1212272680198,472.72661595588767 M530.2986186463777,613.3973930961959 L520.6351154520744,607.8165619610402 M349.98229079743714,681.0385073298003 L340.3161242001687,675.4417851543647 M349.9856344530605,688.730105346038 L340.3200244798872,683.1330629805414 M349.45066202618244,688.8151179286497 L339.78503586205375,683.2180332016801" stroke="black"  stroke-width="4"  fill="red"/>
<path d="M104.02013867030541,557.2424838544348 L86.31225050021465,623.9417766638567 M76.69932952131597,618.3679243396939 L86.31225050021465,623.9417766638567 M94.40316014587779,551.6726907526327 L76.69932952131597,618.3679243396939 M104.02013867030541,557.2424838544348 L94.40316014587779,551.6726907526327 M104.02013867030541,557.2424838544348 L257.1723202485814,500.1265816170778 M257.1723202485814,500.1265816170778 L409.85079218409095,381.0448251552625 M427.5869647756329,427.15767297511314 L409.85079218409095,381.0448251552625 M427.5869647756329,427.15767297511314 L468.4818220514936,403.5770867263036 M437.4003025309149,322.6362724770469 L468.4818220514936,403.5770867263036 M436.8687022426345,323.16611054770044 L437.4003025309149,322.6362724770469 M436.87035587335833,315.495538537177 L436.8687022426345,323.16611054770044 M257.1221127159797,455.63349329348245 L436.87035587335833,315.495538537177 M76.73163370663133,522.8260456881087 L257.1221127159797,455.63349329348245 M76.7506765711534,530.5085715531065 L76.73163370663133,522.8260456881087 M76.21525036767696,530.5923888998057 L76.7506765711534,530.5085715531065 M45.146699417410105,647.6784490097175 L76.21525036767696,530.5923888998057 M45.146699417410105,647.6784490097175 L86.31225050021465,623.9417766638567 M76.69932952131597,618.3679243396939 L35.53379894401047,642.1006423315171 M45.146699417410105,647.6784490097175 L35.53379894401047,642.1006423315171 M247.55752445987585,494.5701813657521 L94.40316014587779,551.6726907526327 M400.2337452108543,375.50434928248876 L247.55752445987585,494.5701813657521 M417.97396745517307,421.6165494330661 L400.2337452108543,375.50434928248876 M458.8688267977764,398.03987859991213 L417.97396745517307,421.6165494330661 M427.78019788563904,317.10020731573974 L458.8688267977764,398.03987859991213 M427.2486136658765,317.62998518629973 L427.78019788563904,317.10020731573974 M427.2497159031508,309.95973336205475 L427.2486136658765,317.62998518629973 M427.2497159031508,309.95973336205475 L247.50412107772348,450.0789458262569 M247.50412107772348,450.0789458262569 L67.11107444067414,517.2557302127791 M67.13066868474328,524.9379358823014 L67.11107444067414,517.2557302127791 M66.59522665296544,525.0217112331559 L67.13066868474328,524.9379358823014 M35.53379894401047,642.1006423315171 L66.59522665296544,525.0217112331559 M257.1723202485814,500.1265816170778 L247.55752445987585,494.5701813657521 M400.2337452108543,375.50434928248876 L409.85079218409095,381.0448251552625 M427.5869647756329,427.15767297511314 L417.97396745517307,421.6165494330661 M458.8688267977764,398.03987859991213 L468.4818220514936,403.5770867263036 M437.4003025309149,322.6362724770469 L427.78019788563904,317.10020731573974 M427.2486136658765,317.62998518629973 L436.8687022426345,323.16611054770044 M427.2497159031508,309.95973336205475 L436.87035587335833,315.495538537177 M257.1221127159797,455.63349329348245 L247.50412107772348,450.0789458262569 M76.73163370663133,522.8260456881087 L67.11107444067414,517.2557302127791 M76.7506765711534,530.5085715531065 L67.13066868474328,524.9379358823014 M76.21525036767696,530.5923888998057 L66.59522665296544,525.0217112331559" stroke="black"  stroke-width="4"  fill="red"/>
<path d="M113.6387197922374,562.8132051205771 L95.92677297017303,629.5165575793064 M86.31225050021465,623.9417766638567 L95.92677297017303,629.5165575793064 M104.02013867030541,557.2424838544348 L86.31225050021465,623.9417766638567 M113.6387197922374,562.8132051205771 L104.02013867030541,557.2424838544348 M113.6387197922374,562.8132051205771 L266.7887157846246,505.683906364015 M266.7887157846246,505.683906364015 L419.46943754239146,386.58622187347936 M437.2015588904727,432.69971694131465 L419.46943754239146,386.58622187347936 M437.2015588904727,432.69971694131465 L478.0964135349219,409.1152143014094 M447.0220061972323,328.17325782425695 L478.0964135349219,409.1152143014094 M446.49038984243526,328.7031561076991 L447.0220061972323,328.17325782425695 M446.49259504990835,321.0322639104122 L446.49038984243526,328.7031561076991 M266.7417051660102,461.18896525568795 L446.49259504990835,321.0322639104122 M86.35379714309107,528.3972899801034 L266.7417051660102,461.18896525568795 M86.37228844391291,536.0801360405696 L86.35379714309107,528.3972899801034 M85.83687808145919,536.1639953959534 L86.37228844391291,536.0801360405696 M54.76120194650912,653.2571852676012 L85.83687808145919,536.1639953959534 M54.76120194650912,653.2571852676012 L95.92677297017303,629.5165575793064 M86.31225050021465,623.9417766638567 L45.146699417410105,647.6784490097175 M54.76120194650912,653.2571852676012 L45.146699417410105,647.6784490097175 M257.1723202485817,500.12658161707776 L104.02013867030541,557.2424838544348 M409.85079218409095,381.0448251552625 L257.1723202485817,500.12658161707776 M427.5869647756329,427.15767297511314 L409.85079218409095,381.0448251552625 M468.4818220514936,403.5770867263036 L427.5869647756329,427.15767297511314 M437.4003025309149,322.6362724770469 L468.4818220514936,403.5770867263036 M436.8687022426345,323.16611054770044 L437.4003025309149,322.6362724770469 M436.87035587335833,315.495538537177 L436.8687022426345,323.16611054770044 M436.87035587335833,315.495538537177 L257.12211271598,455.6334932934823 M257.12211271598,455.6334932934823 L76.73163370663133,522.8260456881087 M76.7506765711534,530.5085715531065 L76.73163370663133,522.8260456881087 M76.21525036767696,530.5923888998057 L76.7506765711534,530.5085715531065 M45.146699417410105,647.6784490097175 L76.21525036767696,530.5923888998057 M266.7887157846246,505.683906364015 L257.1723202485817,500.12658161707776 M409.85079218409095,381.0448251552625 L419.46943754239146,386.58622187347936 M437.2015588904727,432.69971694131465 L427.5869647756329,427.15767297511314 M468.4818220514936,403.5770867263036 L478.0964135349219,409.1152143014094 M447.0220061972323,328.17325782425695 L437.4003025309149,322.6362724770469 M436.8687022426345,323.16611054770044 L446.49038984243526,328.7031561076991 M436.87035587335833,315.495538537177 L446.49259504990835,321.0322639104122 M266.7417051660102,461.18896525568795 L257.12211271598,455.6334932934823 M86.35379714309107,528.3972899801034 L76.73163370663133,522.8260456881087 M86.37228844391291,536.0801360405696 L76.7506765711534,530.5085715531065 M85.83687808145919,536.1639953959534 L76.21525036767696,530.5923888998057" stroke="black"  stroke-width="4"  fill="red"/>
<path d="M94.40316014587779,551.6726907526327 L76.69932952131597,618.3679243396939 M67.08800963336967,612.7950003748247 L76.69932952131597,618.3679243396939 M84.78778381846308,546.1038255832209 L67.08800963336967,612.7950003748247 M94.40316014587779,551.6726907526327 L84.78778381846308,546.1038255832209 M94.40316014587779,551.6726907526327 L247.55752445987568,494.57018136575215 M247.55752445987568,494.57018136575215 L400.2337452108543,375.50434928248876 M417.97396745517307,421.6165494330661 L400.2337452108543,375.50434928248876 M417.97396745517307,421.6165494330661 L458.8688267977764,398.03987859991213 M427.78019788563904,317.10020731573974 L458.8688267977764,398.03987859991213 M427.2486136658765,317.62998518629973 L427.78019788563904,317.10020731573974 M427.2497159031508,309.95973336205475 L427.2486136658765,317.62998518629973 M247.50412107772325,450.07894582625704 L427.2497159031508,309.95973336205475 M67.11107444067414,517.2557302127791 L247.50412107772325,450.07894582625704 M67.13066868474328,524.9379358823014 L67.11107444067414,517.2557302127791 M66.59522665296544,525.0217112331559 L67.13066868474328,524.9379358823014 M35.53379894401047,642.1006423315171 L66.59522665296544,525.0217112331559 M35.53379894401047,642.1006423315171 L76.69932952131597,618.3679243396939 M67.08800963336967,612.7950003748247 L25.922500125919612,636.5237650006766 M35.53379894401047,642.1006423315171 L25.922500125919612,636.5237650006766 M237.94432801934965,489.0147053793632 L84.78778381846308,546.1038255832209 M390.6182962242954,369.964794025644 L237.94432801934965,489.0147053793632 M408.3625665313321,416.0763460858961 L390.6182962242954,369.964794025644 M449.2574273762903,392.50358969328147 L408.3625665313321,416.0763460858961 M418.16169186282815,311.56506211096746 L449.2574273762903,392.50358969328147 M417.6301237135834,312.0947797941252 L418.16169186282815,311.56506211096746 M417.63067474063917,304.42484815566047 L417.6301237135834,312.0947797941252 M417.63067474063917,304.42484815566047 L237.8877298516846,444.5253226232604 M237.8877298516846,444.5253226232604 L57.492118944091146,511.68634332186116 M57.51226438362323,519.3682287959134 L57.492118944091146,511.68634332186116 M56.97680653625952,519.4519621637594 L57.51226438362323,519.3682287959134 M25.922500125919612,636.5237650006766 L56.97680653625952,519.4519621637594 M247.55752445987568,494.57018136575215 L237.94432801934965,489.0147053793632 M390.6182962242954,369.964794025644 L400.2337452108543,375.50434928248876 M417.97396745517307,421.6165494330661 L408.3625665313321,416.0763460858961 M449.2574273762903,392.50358969328147 L458.8688267977764,398.03987859991213 M427.78019788563904,317.10020731573974 L418.16169186282815,311.56506211096746 M417.6301237135834,312.0947797941252 L427.2486136658765,317.62998518629973 M417.63067474063917,304.42484815566047 L427.2497159031508,309.95973336205475 M247.50412107772325,450.07894582625704 L237.8877298516846,444.5253226232604 M67.11107444067414,517.2557302127791 L57.492118944091146,511.68634332186116 M67.13066868474328,524.9379358823014 L57.51226438362323,519.3682287959134 M66.59522665296544,525.0217112331559 L56.97680653625952,519.4519621637594" stroke="black"  stroke-width="4"  fill="red"/></svg>