<svg viewBox="0 0 800 800" xmlns="http://www.w3.org/2000/svg"><path d="M756.4508782616954,206.35440365864963 L417.76388134604696,401.6004988204331 M417.76388134604696,401.6004988204331 L427.6414068871115,407.2929725140362 M766.328311310706,212.0142042151254 L427.6414068871115,407.2929725140362 M756.4508782616954,206.35440365864963 L766.328311310706,212.0142042151254 M756.4508782616954,206.35440365864963 L780.6144258856376,524.0487748175235 M392.5339735712221,748.8645874263204 L417.76388134604696,401.6004988204331 M547.5613883001463,690.5655208183848 L392.5339735712221,748.8645874263204 M547.5613883001463,690.5655208183848 L626.1140263206233,645.0387893190857 M780.6144258856376,524.0487748175235 L626.1140263206233,645.0387893190857 M559.894824779688,367.5861063050828 L557.3686738273915,369.69190035473866 M557.3686738273915,369.69190035473866 L555.0386437574155,372.339757467684 M555.0386437574155,372.339757467684 L553.0299859209932,375.3873735762456 M553.0299859209932,375.3873735762456 L551.4506887721573,378.67086037908587 M551.4506887721573,378.67086037908587 L550.3856400316434,382.01377077821996 M550.3856400316434,382.01377077821996 L549.892076043224,385.2363718400411 M549.892076043224,385.2363718400411 L549.9964947951291,388.165465747579 M549.9964947951291,388.165465747579 L550.6932467698201,390.64364664070416 M550.6932467698201,390.64364664070416 L551.9448339425937,392.5377117670446 M551.9448339425937,392.5377117670446 L553.6839553759106,393.74599957019086 M553.6839553759106,393.74599957019086 L555.8171128689772,394.20360307361244 M555.8171128689772,394.20360307361244 L558.229657153395,393.8860206832647 M584.5015343381024,360.5090727932263 L559.894824779688,367.5861063050828 M590.0490759328176,357.3084349943912 L588.208168878158,358.73068904247094 M588.208168878158,358.73068904247094 L586.3415665257829,359.8076254895358 M586.3415665257829,359.8076254895358 L584.5015343381024,360.5090727932263 M614.6627546808827,335.9912230076622 L590.0490759328176,357.3084349943912 M616.256666061073,360.39852709178086 L618.6696878362031,357.93184026741176 M618.6696878362031,357.93184026741176 L620.8051324034965,355.01182049514557 M620.8051324034965,355.01182049514557 L622.5482995212346,351.79530595045503 M622.5482995212346,351.79530595045503 L623.8055503070643,348.455116796565 M623.8055503070643,348.455116796565 L624.5093451940629,345.17059116936684 M624.5093451940629,345.17059116936684 L624.621847844383,342.11822850505774 M624.621847844383,342.11822850505774 L624.1369808870398,339.4620104252574 M624.1369808870398,339.4620104252574 L623.080746374344,337.3446612067894 M623.080746374344,337.3446612067894 L621.5098491873845,335.88002556894713 M621.5098491873845,335.88002556894713 L619.5086512615302,335.1468067030204 M619.5086512615302,335.1468067030204 L617.1846644072576,335.1845291038578 M617.1846644072576,335.1845291038578 L614.6627546808827,335.9912230076622 M590.0130573414075,383.1317107438215 L616.256666061073,360.39852709178086 M584.466565439247,386.33295906395773 L586.3062495430062,385.6311726041886 M586.3062495430062,385.6311726041886 L588.1724987022807,384.55403073541754 M588.1724987022807,384.55403073541754 L590.0130573414075,383.1317107438215 M558.229657153395,393.8860206832647 L584.466565439247,386.33295906395773 M427.6414068871115,407.2929725140362 L402.38737039466776,754.573403089049 M392.5339735712221,748.8645874263204 L402.38737039466776,754.573403089049 M635.9650972570063,650.7263077760124 L790.4677172872085,529.7200607837128 M790.4677172872085,529.7200607837128 L766.328311310706,212.0142042151254 M402.38737039466776,754.573403089049 L557.4124805995901,696.2606375123028 M557.4124805995901,696.2606375123028 L635.9650972570063,650.7263077760124 M568.1018437060217,399.5680011666349 L565.6893780230716,399.885771507611 M565.6893780230716,399.885771507611 L563.5563436425434,399.42830328801057 M563.5563436425434,399.42830328801057 L561.8173832245809,398.22009082109736 M561.8173832245809,398.22009082109736 L560.565986320852,396.3260370255934 M560.565986320852,396.3260370255934 L559.8694436556844,393.8478028370374 M559.8694436556844,393.8478028370374 L559.7652420057836,390.9185938676877 M559.7652420057836,390.9185938676877 L560.2590192237674,387.6958221595866 M560.2590192237674,387.6958221595866 L561.3242658620304,384.3526947028008 M561.3242658620304,384.3526947028008 L562.9037349353508,381.0689561046475 M562.9037349353508,381.0689561046475 L564.9125294827077,378.02106700134703 M564.9125294827077,378.02106700134703 L567.2426536932774,375.3729303777806 M567.2426536932774,375.3729303777806 L569.7688511530777,373.2668653286656 M569.7688511530777,373.2668653286656 L594.3750374540648,366.1877548565478 M599.9225775331063,362.98658166976145 L598.081644824681,364.4090284538927 M598.081644824681,364.4090284538927 L596.215042982288,365.48614504545003 M596.215042982288,365.48614504545003 L594.3750374540648,366.1877548565478 M599.9225775331063,362.98658166976145 L624.5367660897555,341.66669670804424 M624.5367660897555,341.66669670804424 L627.0586279295794,340.85978661805666 M627.0586279295794,340.85978661805666 L629.3825193720882,340.82189453458716 M629.3825193720882,340.82189453458716 L631.3835794920501,341.5549993304216 M631.3835794920501,341.5549993304216 L632.9543038946239,343.019582627555 M632.9543038946239,343.019582627555 L634.0103399309054,345.13694403863525 M634.0103399309054,345.13694403863525 L634.4949933922989,347.7932381796205 M634.4949933922989,347.7932381796205 L634.3822737001203,350.8457366827354 M634.3822737001203,350.8457366827354 L633.6782698869821,354.13045062862574 M633.6782698869821,354.13045062862574 L632.4208295180784,357.4708704647719 M632.4208295180784,357.4708704647719 L630.6775023366625,360.68764567280607 M630.6775023366625,360.68764567280607 L628.5419358230768,363.60794209148366 M628.5419358230768,363.60794209148366 L626.1288367646567,366.074906690617 M626.1288367646567,366.074906690617 L599.88468459985,388.81094048575847 M599.88468459985,388.81094048575847 L598.0441003166004,390.2334531964618 M598.0441003166004,390.2334531964618 L596.177851667018,391.31077520993585 M596.177851667018,391.31077520993585 L594.3381942125015,392.0127241944727 M594.3381942125015,392.0127241944727 L568.1018437060217,399.5680011666349 M790.4677172872085,529.7200607837128 L780.6144258856376,524.0487748175235 M626.1140263206233,645.0387893190857 L635.9650972570063,650.7263077760124 M547.5613883001463,690.5655208183848 L557.4124805995901,696.2606375123028 M559.894824779688,367.5861063050828 L569.7688511530777,373.2668653286656 M558.229657153395,393.8860206832647 L568.1018437060217,399.5680011666349 M584.466565439247,386.33295906395773 L594.3381942125015,392.0127241944727 M590.0130573414075,383.1317107438215 L599.88468459985,388.81094048575847 M616.256666061073,360.39852709178086 L626.1288367646567,366.074906690617 M614.6627546808827,335.9912230076622 L624.5367660897555,341.66669670804424 M590.0490759328176,357.3084349943912 L599.9225775331063,362.98658166976145 M584.5015343381024,360.5090727932263 L594.3750374540648,366.1877548565478" stroke="black"  stroke-width="4"  fill="red"/>
<path d="M372.514071911191,-13.642607655108407 L33.82716584306695,180.33560368825508 M33.82716584306695,180.33560368825508 L43.640454447241495,185.99105727273428 M382.32745234015863,-8.01950945366417 L43.640454447241495,185.99105727273428 M372.514071911191,-13.642607655108407 L382.32745234015863,-8.01950945366417 M372.514071911191,-13.642607655108407 L397.6126297789105,303.60338020156576 M9.53228271279147,526.9628320416739 L33.82716584306695,180.33560368825508 M164.64729976885235,469.19510303699144 L9.53228271279147,526.9628320416739 M164.64729976885235,469.19510303699144 L243.19991782137578,423.9632257005394 M397.6126297789105,303.60338020156576 L243.19991782137578,423.9632257005394 M176.09212350771796,146.7754080065674 L173.5678016666891,148.8706806206579 M173.5678016666891,148.8706806206579 L171.24144390098084,151.50768069447858 M171.24144390098084,151.50768069447858 L169.23810407053477,154.54468785542548 M169.23810407053477,154.54468785542548 L167.66548445383722,157.81838442420937 M167.66548445383722,157.81838442420937 L166.60811387986084,161.1528496917829 M166.60811387986084,161.1528496917829 L166.12281581939982,164.3688049170504 M166.12281581939982,164.3688049170504 L166.23564403453685,167.29340953029043 M166.23564403453685,167.29340953029043 L166.94049716738718,169.7694988680398 M166.94049716738718,169.7694988680398 L168.1994418497633,171.6639824156887 M168.1994418497633,171.6639824156887 L169.94478221139207,172.87517566675442 M169.94478221139207,172.87517566675442 L172.08268599551525,173.33801514776215 M172.08268599551525,173.33801514776215 L174.49824917057248,173.02771747033884 M200.71883743335727,139.77891334224648 L176.09212350771796,146.7754080065674 M206.26637761570862,136.59905135989197 L204.42648435042443,138.0138233267997 M204.42648435042443,138.0138233267997 L202.5598824732644,139.08376923745152 M202.5598824732644,139.08376923745152 L200.71883743335727,139.77891334224648 M230.86003944493507,115.38562248146928 L206.26637761570862,136.59905135989197 M232.52524328612418,139.75756725896582 L234.93524493595208,137.30166827402263 M234.93524493595208,137.30166827402263 L237.06594211896518,134.39239753826217 M237.06594211896518,134.39239753826217 L238.80288941566334,131.18601604974754 M238.80288941566334,131.18601604974754 L240.0527820480427,127.85479981020075 M240.0527820480427,127.85479981020075 L240.74847541691454,124.57760531051639 M240.74847541691454,124.57760531051639 L240.85256854755147,121.5305381646487 M240.85256854755147,121.5305381646487 L240.3594359124449,118.87729550099499 M240.3594359124449,118.87729550099499 L239.29552377648787,116.76044156554946 M239.29552377648787,116.76044156554946 L237.71794986425508,115.29379409207701 M237.71794986425508,115.29379409207701 L235.71143495912915,114.55616404515979 M235.71143495912915,114.55616404515979 L233.38377699157746,114.58731246052037 M233.38377699157746,114.58731246052037 L230.86003944493507,115.38562248146928 M206.30297215895865,162.38008884828588 L232.52524328612418,139.75756725896582 M200.75648166837848,165.5605613079336 L202.59717824124726,164.86507872836725 M202.59717824124726,164.86507872836725 L204.46342692557033,163.79492741079554 M204.46342692557033,163.79492741079554 L206.30297215895865,162.38008884828588 M174.49824917057248,173.02771747033884 L200.75648166837848,165.5605613079336 M43.640454447241495,185.99105727273428 L19.321741665012496,532.6346036750967 M9.53228271279147,526.9628320416739 L19.321741665012496,532.6346036750967 M252.987206777629,429.61391961406883 L407.402193478858,309.2379862396837 M407.402193478858,309.2379862396837 L382.32745234015863,-8.01950945366417 M19.321741665012496,532.6346036750967 L174.43456756640668,474.8533214890553 M174.43456756640668,474.8533214890553 L252.987206777629,429.61391961406883 M184.30634403098836,178.67280969776425 L181.89085713563586,178.98329306298666 M181.89085713563586,178.98329306298666 L179.75307371661424,178.5205868661857 M179.75307371661424,178.5205868661857 L178.0078913447673,177.30946732249353 M178.0078913447673,177.30946732249353 L176.7491337902967,175.41499393521866 M176.7491337902967,175.41499393521866 L176.04448687895945,172.93885065297397 M176.04448687895945,172.93885065297397 L175.9318728969555,170.01413088522435 M175.9318728969555,170.01413088522435 L176.41738169145697,166.7980054823692 M176.41738169145697,166.7980054823692 L177.47494817517264,163.46332416203626 M177.47494817517264,163.46332416203626 L179.0477383428058,160.18937728497292 M179.0477383428058,160.18937728497292 L181.05121419892814,157.15209901846376 M181.05121419892814,157.15209901846376 L183.37766614518546,154.51482162370522 M183.37766614518546,154.51482162370522 L185.9020352567424,152.4192803825827 M185.9020352567424,152.4192803825827 L210.52824600017595,145.42073183624473 M216.0757876834646,142.24033967061104 L214.23586810215872,143.65530264582804 M214.23586810215872,143.65530264582804 L212.36926571997543,144.72542694973654 M212.36926571997543,144.72542694973654 L210.52824600017595,145.42073183624473 M216.0757876834646,142.24033967061104 L240.6699660139453,121.0242609172185 M240.6699660139453,121.0242609172185 L243.1936576559948,120.2257370737234 M243.1936576559948,120.2257370737234 L245.52122270213107,120.194421152426 M245.52122270213107,120.194421152426 L247.52760266621206,120.93193900210878 M247.52760266621206,120.93193900210878 L249.1050068793295,122.39853560334825 M249.1050068793295,122.39853560334825 L250.16872367879105,124.51540271670711 M250.16872367879105,124.51540271670711 L250.66164584375315,127.16872189082994 M250.66164584375315,127.16872189082994 L250.55733842040482,130.21592476470363 M250.55733842040482,130.21592476470363 L249.86143845023082,133.49330691817437 M249.86143845023082,133.49330691817437 L248.6113580104157,136.82475265667262 M248.6113580104157,136.82475265667262 L246.8742517812184,140.03139317033265 M246.8742517812184,140.03139317033265 L244.74343307787478,142.94093854734132 M244.74343307787478,142.94093854734132 L242.3333538426647,145.3971130425559 M242.3333538426647,145.3971130425559 L216.1105321370325,168.02246014787818 M216.1105321370325,168.02246014787818 L214.27096059764148,169.43748970218786 M214.27096059764148,169.43748970218786 L212.40471140858136,170.50781941355467 M212.40471140858136,170.50781941355467 L210.5640401463656,171.20346279240601 M210.5640401463656,171.20346279240601 L184.30634403098836,178.67280969776425 M407.402193478858,309.2379862396837 L397.6126297789105,303.60338020156576 M243.19991782137578,423.9632257005394 L252.987206777629,429.61391961406883 M164.64729976885235,469.19510303699144 L174.43456756640668,474.8533214890553 M176.09212350771796,146.7754080065674 L185.9020352567424,152.4192803825827 M174.49824917057248,173.02771747033884 L184.30634403098836,178.67280969776425 M200.75648166837848,165.5605613079336 L210.5640401463656,171.20346279240601 M206.30297215895865,162.38008884828588 L216.1105321370325,168.02246014787818 M232.52524328612418,139.75756725896582 L242.3333538426647,145.3971130425559 M230.86003944493507,115.38562248146928 L240.6699660139453,121.0242609172185 M206.26637761570862,136.59905135989197 L216.0757876834646,142.24033967061104 M200.71883743335727,139.77891334224648 L210.52824600017595,145.42073183624473" stroke="black"  stroke-width="4"  fill="red"/>
<path d="M378.422870108827,715.5973714461995 L360.26819127383817,783.6425798928756 M350.4307869271447,777.9385655561398 L360.26819127383817,783.6425798928756 M368.58130051345796,709.8975036234776 L350.4307869271447,777.9385655561398 M378.422870108827,715.5973714461995 L368.58130051345796,709.8975036234776 M378.422870108827,715.5973714461995 L534.3201200608992,657.0311988626618 M534.3201200608992,657.0311988626618 L689.8680898440068,535.2859904376021 M707.8081691755605,582.2645330888283 L689.8680898440068,535.2859904376021 M707.8081691755605,582.2645330888283 L749.4534554571545,558.1336504760823 M718.014981317641,475.67311808811866 L749.4534554571545,558.1336504760823 M717.4731428292005,476.21448698116455 L718.014981317641,475.67311808811866 M717.491381290527,468.39353389671453 L717.4731428292005,476.21448698116455 M534.3649406685076,611.6659604202252 L717.491381290527,468.39353389671453 M350.74108149094934,680.5650174212271 L534.3649406685076,611.6659604202252 M350.7439194972608,688.398143859245 L350.74108149094934,680.5650174212271 M350.1991425480406,688.4847602551795 L350.7439194972608,688.398143859245 M318.3465675088941,807.9335830851064 L350.1991425480406,688.4847602551795 M318.3465675088941,807.9335830851064 L360.26819127383817,783.6425798928756 M350.4307869271447,777.9385655561398 L308.50916705694954,802.2255121351548 M318.3465675088941,807.9335830851064 L308.50916705694954,802.2255121351548 M524.4808589783034,651.345079890024 L368.58130051345796,709.8975036234776 M680.0265772719714,529.6161977134213 L524.4808589783034,651.345079890024 M697.9708283821765,576.5940934908328 L680.0265772719714,529.6161977134213 M739.6161337557298,552.4672274487754 L697.9708283821765,576.5940934908328 M708.1703358621334,470.0078368109114 L739.6161337557298,552.4672274487754 M707.628513676704,470.54914401785817 L708.1703358621334,470.0078368109114 M707.6461851174715,462.7285170066045 L707.628513676704,470.54914401785817 M707.6461851174715,462.7285170066045 L524.5223931008758,605.9817282313161 M524.5223931008758,605.9817282313161 L340.89581815955466,674.8645980196629 M340.899223198007,682.6973983899675 L340.89581815955466,674.8645980196629 M340.3544297474773,682.7839716335454 L340.899223198007,682.6973983899675 M308.50916705694954,802.2255121351548 L340.3544297474773,682.7839716335454 M534.3201200608992,657.0311988626618 L524.4808589783034,651.345079890024 M680.0265772719714,529.6161977134213 L689.8680898440068,535.2859904376021 M707.8081691755605,582.2645330888283 L697.9708283821765,576.5940934908328 M739.6161337557298,552.4672274487754 L749.4534554571545,558.1336504760823 M718.014981317641,475.67311808811866 L708.1703358621334,470.0078368109114 M707.628513676704,470.54914401785817 L717.4731428292005,476.21448698116455 M707.6461851174715,462.7285170066045 L717.491381290527,468.39353389671453 M534.3649406685076,611.6659604202252 L524.5223931008758,605.9817282313161 M350.74108149094934,680.5650174212271 L340.89581815955466,674.8645980196629 M350.7439194972608,688.398143859245 L340.899223198007,682.6973983899675 M350.1991425480406,688.4847602551795 L340.3544297474773,682.7839716335454" stroke="black"  stroke-width="4"  fill="red"/>
<path d="M388.2660837463088,721.2981914364234 L370.107238524343,789.3475468332213 M360.26819127383817,783.6425798928756 L370.107238524343,789.3475468332213 M378.422870108827,715.5973714461995 L360.26819127383817,783.6425798928756 M388.2660837463088,721.2981914364234 L378.422870108827,715.5973714461995 M388.2660837463088,721.2981914364234 L544.1610222430173,662.7182662283801 M544.1610222430173,662.7182662283801 L699.7112421050175,540.9567278028178 M717.6471480192354,587.9359168917089 L699.7112421050175,540.9567278028178 M717.6471480192354,587.9359168917089 L759.2924146253727,563.8010167051902 M727.8612671154967,481.3393433303306 L759.2924146253727,563.8010167051902 M727.3194123261335,481.880773922519 L727.8612671154967,481.3393433303306 M727.3382179967446,474.0594947647718 L727.3194123261335,481.880773922519 M544.2091304316243,617.3511410038843 L727.3382179967446,474.0594947647718 M360.58799048549906,686.266389663753 L544.2091304316243,617.3511410038843 M360.59026127005774,694.0998421690738 L360.58799048549906,686.266389663753 M360.0455008352733,694.1865017305811 L360.59026127005774,694.0998421690738 M328.18561144817363,813.6426076551083 L360.0455008352733,694.1865017305811 M328.18561144817363,813.6426076551083 L370.107238524343,789.3475468332213 M360.26819127383817,783.6425798928756 L318.3465675088941,807.9335830851064 M328.18561144817363,813.6426076551083 L318.3465675088941,807.9335830851064 M534.3201200608995,657.0311988626615 L378.422870108827,715.5973714461995 M689.8680898440068,535.2859904376021 L534.3201200608995,657.0311988626615 M707.8081691755605,582.2645330888283 L689.8680898440068,535.2859904376021 M749.4534554571545,558.1336504760823 L707.8081691755605,582.2645330888283 M718.014981317641,475.67311808811866 L749.4534554571545,558.1336504760823 M717.4731428292005,476.21448698116455 L718.014981317641,475.67311808811866 M717.491381290527,468.39353389671453 L717.4731428292005,476.21448698116455 M717.491381290527,468.39353389671453 L534.364940668508,611.6659604202252 M534.364940668508,611.6659604202252 L350.74108149094934,680.5650174212271 M350.7439194972608,688.398143859245 L350.74108149094934,680.5650174212271 M350.1991425480406,688.4847602551795 L350.7439194972608,688.398143859245 M318.3465675088941,807.9335830851064 L350.1991425480406,688.4847602551795 M544.1610222430173,662.7182662283801 L534.3201200608995,657.0311988626615 M689.8680898440068,535.2859904376021 L699.7112421050175,540.9567278028178 M717.6471480192354,587.9359168917089 L707.8081691755605,582.2645330888283 M749.4534554571545,558.1336504760823 L759.2924146253727,563.8010167051902 M727.8612671154967,481.3393433303306 L718.014981317641,475.67311808811866 M717.4731428292005,476.21448698116455 L727.3194123261335,481.880773922519 M717.491381290527,468.39353389671453 L727.3382179967446,474.0594947647718 M544.2091304316243,617.3511410038843 L534.364940668508,611.6659604202252 M360.58799048549906,686.266389663753 L350.74108149094934,680.5650174212271 M360.59026127005774,694.0998421690738 L350.7439194972608,688.398143859245 M360.0455008352733,694.1865017305811 L350.1991425480406,688.4847602551795" stroke="black"  stroke-width="4"  fill="red"/>
<path d="M368.58130051345796,709.8975036234776 L350.4307869271447,777.9385655561398 M340.59502507280405,772.2355035844387 L350.4307869271447,777.9385655561398 M358.74137454834704,704.198587729727 L340.59502507280405,772.2355035844387 M368.58130051345796,709.8975036234776 L358.74137454834704,704.198587729727 M368.58130051345796,709.8975036234776 L524.4808589783032,651.3450798900242 M524.4808589783032,651.3450798900242 L680.0265772719714,529.6161977134213 M697.9708283821765,576.5940934908328 L680.0265772719714,529.6161977134213 M697.9708283821765,576.5940934908328 L739.6161337557298,552.4672274487754 M708.1703358621334,470.0078368109114 L739.6161337557298,552.4672274487754 M707.628513676704,470.54914401785817 L708.1703358621334,470.0078368109114 M707.6461851174715,462.7285170066045 L707.628513676704,470.54914401785817 M524.5223931008754,605.9817282313161 L707.6461851174715,462.7285170066045 M340.89581815955466,674.8645980196629 L524.5223931008754,605.9817282313161 M340.899223198007,682.6973983899675 L340.89581815955466,674.8645980196629 M340.3544297474773,682.7839716335454 L340.899223198007,682.6973983899675 M308.50916705694954,802.2255121351548 L340.3544297474773,682.7839716335454 M308.50916705694954,802.2255121351548 L350.4307869271447,777.9385655561398 M340.59502507280405,772.2355035844387 L298.6734096805887,796.518394566338 M308.50916705694954,802.2255121351548 L298.6734096805887,796.518394566338 M514.6432385847522,645.6599090732514 L358.74137454834704,704.198587729727 M670.1867039792323,523.9473493942555 L514.6432385847522,645.6599090732514 M688.1351252300493,570.9245978619471 L670.1867039792323,523.9473493942555 M729.7804491123554,546.8017473878281 L688.1351252300493,570.9245978619471 M698.3273303390987,464.3434992628385 L729.7804491123554,546.8017473878281 M697.785524458767,464.8847447967255 L698.3273303390987,464.3434992628385 M697.8026290676306,457.0644438585537 L697.785524458767,464.8847447967255 M697.8026290676306,457.0644438585537 L514.6814873178397,600.298444199861 M514.6814873178397,600.298444199861 L331.05220007880285,669.1651312202148 M331.0561719598553,676.9976055224097 L331.05220007880285,669.1651312202148 M330.5113620211367,677.0841356268427 L331.0561719598553,676.9976055224097 M298.6734096805887,796.518394566338 L330.5113620211367,677.0841356268427 M524.4808589783032,651.3450798900242 L514.6432385847522,645.6599090732514 M670.1867039792323,523.9473493942555 L680.0265772719714,529.6161977134213 M697.9708283821765,576.5940934908328 L688.1351252300493,570.9245978619471 M729.7804491123554,546.8017473878281 L739.6161337557298,552.4672274487754 M708.1703358621334,470.0078368109114 L698.3273303390987,464.3434992628385 M697.785524458767,464.8847447967255 L707.628513676704,470.54914401785817 M697.8026290676306,457.0644438585537 L707.6461851174715,462.7285170066045 M524.5223931008754,605.9817282313161 L514.6814873178397,600.298444199861 M340.89581815955466,674.8645980196629 L331.05220007880285,669.1651312202148 M340.899223198007,682.6973983899675 L331.0561719598553,676.9976055224097 M340.3544297474773,682.7839716335454 L330.5113620211367,677.0841356268427" stroke="black"  stroke-width="4"  fill="red"/>
<path d="M90.41829291770148,548.7959271825962 L72.38532334191387,616.7196855893385 M62.59592836257781,611.0435084858864 L72.38532334191387,616.7196855893385 M80.62476590441685,543.1238838207073 L62.59592836257781,611.0435084858864 M90.41829291770148,548.7959271825962 L80.62476590441685,543.1238838207073 M90.41829291770148,548.7959271825962 L246.3820421992965,490.6314912291561 M246.3820421992965,490.6314912291561 L401.8633854766458,369.36363191805543 M419.9251587192851,416.323019384304 L401.8633854766458,369.36363191805543 M419.9251587192851,416.323019384304 L461.5707637727078,392.30954074023595 M429.91864972612507,309.88281504735255 L461.5707637727078,392.30954074023595 M429.3772903199124,310.42237988514773 L429.91864972612507,309.88281504735255 M429.3789743079885,302.61099151596375 L429.3772903199124,310.42237988514773 M246.33091295682644,445.3215988035074 L429.3789743079885,302.61099151596375 M62.62882558811748,513.7476720547709 L246.33091295682644,445.3215988035074 M62.6482180415407,521.5712337272862 L62.62882558811748,513.7476720547709 M62.10296248398191,521.6565897928107 L62.6482180415407,521.5712337272862 M30.46405508472094,640.8921157589805 L62.10296248398191,521.6565897928107 M30.46405508472094,640.8921157589805 L72.38532334191387,616.7196855893385 M62.59592836257781,611.0435084858864 L20.67468098732388,635.2119117074603 M30.46405508472094,640.8921157589805 L20.67468098732388,635.2119117074603 M236.5907379923957,484.9730865836888 L80.62476590441685,543.1238838207073 M392.06978875796887,363.72144399087676 L236.5907379923957,484.9730865836888 M410.1356859969096,410.68017189793983 L392.06978875796887,363.72144399087676 M451.78129315501604,386.67068054872675 L410.1356859969096,410.68017189793983 M420.1219392026666,304.2451188034803 L451.78129315501604,386.67068054872675 M419.5805961599577,304.78462233602875 L420.1219392026666,304.2451188034803 M419.5817186321035,296.9735600311027 L419.5805961599577,304.78462233602875 M419.5817186321035,296.9735600311027 L236.5363542309699,439.6650809555503 M236.5363542309699,439.6650809555503 L52.831652098051336,508.07509672962186 M52.851606053247224,515.8983323285131 L52.831652098051336,508.07509672962186 M52.30633437681115,515.9836456272333 L52.851606053247224,515.8983323285131 M20.67468098732388,635.2119117074603 L52.30633437681115,515.9836456272333 M246.3820421992965,490.6314912291561 L236.5907379923957,484.9730865836888 M392.06978875796887,363.72144399087676 L401.8633854766458,369.36363191805543 M419.9251587192851,416.323019384304 L410.1356859969096,410.68017189793983 M451.78129315501604,386.67068054872675 L461.5707637727078,392.30954074023595 M429.91864972612507,309.88281504735255 L420.1219392026666,304.2451188034803 M419.5805961599577,304.78462233602875 L429.3772903199124,310.42237988514773 M419.5817186321035,296.9735600311027 L429.3789743079885,302.61099151596375 M246.33091295682644,445.3215988035074 L236.5363542309699,439.6650809555503 M62.62882558811748,513.7476720547709 L52.831652098051336,508.07509672962186 M62.6482180415407,521.5712337272862 L52.851606053247224,515.8983323285131 M62.10296248398191,521.6565897928107 L52.30633437681115,515.9836456272333" stroke="black"  stroke-width="4"  fill="red"/>
<path d="M100.21345194897492,554.4689157480655 L82.17634921248202,622.3968083311561 M72.38532334191387,616.7196855893385 L82.17634921248202,622.3968083311561 M90.41829291770148,548.7959271825962 L72.38532334191387,616.7196855893385 M100.21345194897492,554.4689157480655 L90.41829291770148,548.7959271825962 M100.21345194897492,554.4689157480655 L256.1749755216961,496.29083734212486 M256.1749755216961,496.29083734212486 L411.658609923539,375.0067575955574 M429.71625754999144,421.966804191969 L411.658609923539,375.0067575955574 M429.71625754999144,421.966804191969 L471.3618599236951,397.9493372596987 M439.71698862545276,315.5214483699002 L471.3618599236951,397.9493372596987 M439.1756128577744,316.06107452587037 L439.71698862545276,315.5214483699002 M439.1778585484456,308.2493600919345 L439.1756128577744,316.06107452587037 M256.12710188215937,450.97905811832305 L439.1778585484456,308.2493600919345 M72.42763269804766,519.4211932478013 L256.12710188215937,450.97905811832305 M72.44646346216444,527.2450809939332 L72.42763269804766,519.4211932478013 M71.90122403643795,527.3304798393378 L72.44646346216444,527.2450809939332 M40.255060648355425,646.5732664554075 L71.90122403643795,527.3304798393378 M40.255060648355425,646.5732664554075 L82.17634921248202,622.3968083311561 M72.38532334191387,616.7196855893385 L30.46405508472094,640.8921157589805 M40.255060648355425,646.5732664554075 L30.46405508472094,640.8921157589805 M246.38204219929682,490.6314912291559 L90.41829291770148,548.7959271825962 M401.8633854766458,369.36363191805543 L246.38204219929682,490.6314912291559 M419.9251587192851,416.323019384304 L401.8633854766458,369.36363191805543 M461.5707637727078,392.30954074023595 L419.9251587192851,416.323019384304 M429.91864972612507,309.88281504735255 L461.5707637727078,392.30954074023595 M429.3772903199124,310.42237988514773 L429.91864972612507,309.88281504735255 M429.3789743079885,302.61099151596375 L429.3772903199124,310.42237988514773 M429.3789743079885,302.61099151596375 L246.3309129568267,445.32159880350724 M246.3309129568267,445.32159880350724 L62.62882558811748,513.7476720547709 M62.6482180415407,521.5712337272862 L62.62882558811748,513.7476720547709 M62.10296248398191,521.6565897928107 L62.6482180415407,521.5712337272862 M30.46405508472094,640.8921157589805 L62.10296248398191,521.6565897928107 M256.1749755216961,496.29083734212486 L246.38204219929682,490.6314912291559 M401.8633854766458,369.36363191805543 L411.658609923539,375.0067575955574 M429.71625754999144,421.966804191969 L419.9251587192851,416.323019384304 M461.5707637727078,392.30954074023595 L471.3618599236951,397.9493372596987 M439.71698862545276,315.5214483699002 L429.91864972612507,309.88281504735255 M429.3772903199124,310.42237988514773 L439.1756128577744,316.06107452587037 M429.3789743079885,302.61099151596375 L439.1778585484456,308.2493600919345 M256.12710188215937,450.97905811832305 L246.3309129568267,445.32159880350724 M72.42763269804766,519.4211932478013 L62.62882558811748,513.7476720547709 M72.44646346216444,527.2450809939332 L62.6482180415407,521.5712337272862 M71.90122403643795,527.3304798393378 L62.10296248398191,521.6565897928107" stroke="black"  stroke-width="4"  fill="red"/>
<path d="M80.62476590441685,543.1238838207073 L62.59592836257781,611.0435084858864 M52.80816386702128,605.3682767845472 L62.59592836257781,611.0435084858864 M70.83287050127745,537.4527854261917 L52.80816386702128,605.3682767845472 M80.62476590441685,543.1238838207073 L70.83287050127745,537.4527854261917 M80.62476590441685,543.1238838207073 L236.59073799239553,484.973086583689 M236.59073799239553,484.973086583689 L392.06978875796887,363.72144399087676 M410.1356859969096,410.68017189793983 L392.06978875796887,363.72144399087676 M410.1356859969096,410.68017189793983 L451.78129315501604,386.67068054872675 M420.1219392026666,304.2451188034803 L451.78129315501604,386.67068054872675 M419.5805961599577,304.78462233602875 L420.1219392026666,304.2451188034803 M419.5817186321035,296.9735600311027 L419.5805961599577,304.78462233602875 M236.53635423096966,439.66508095555054 L419.5817186321035,296.9735600311027 M52.831652098051336,508.07509672962186 L236.53635423096966,439.66508095555054 M52.851606053247224,515.8983323285131 L52.831652098051336,508.07509672962186 M52.30633437681115,515.9836456272333 L52.851606053247224,515.8983323285131 M20.67468098732388,635.2119117074603 L52.30633437681115,515.9836456272333 M20.67468098732388,635.2119117074603 L62.59592836257781,611.0435084858864 M52.80816386702128,605.3682767845472 L10.88693794842328,629.5326540642588 M20.67468098732388,635.2119117074603 L10.88693794842328,629.5326540642588 M226.80106249450765,479.3156231708139 L70.83287050127745,537.4527854261917 M382.2778193618088,358.0801935802941 L226.80106249450765,479.3156231708139 M400.3478389778015,405.03826149939 L382.2778193618088,358.0801935802941 M441.99344766584306,381.0327564520145 L400.3478389778015,405.03826149939 M410.3268566491839,298.60835940470486 L441.99344766584306,381.0327564520145 M409.7855299720152,299.14780164493044 L410.3268566491839,298.60835940470486 M409.7860911148255,291.3370654037554 L409.7855299720152,299.14780164493044 M409.7860911148255,291.3370654037554 L226.74342529769768,434.00950433946474 M226.74342529769768,434.00950433946474 L43.03611181935713,502.4034670358366 M43.05662708886206,510.2263765611096 L43.03611181935713,502.4034670358366 M42.51133930649769,510.3116471060971 L43.05662708886206,510.2263765611096 M10.88693794842328,629.5326540642588 L42.51133930649769,510.3116471060971 M236.59073799239553,484.973086583689 L226.80106249450765,479.3156231708139 M382.2778193618088,358.0801935802941 L392.06978875796887,363.72144399087676 M410.1356859969096,410.68017189793983 L400.3478389778015,405.03826149939 M441.99344766584306,381.0327564520145 L451.78129315501604,386.67068054872675 M420.1219392026666,304.2451188034803 L410.3268566491839,298.60835940470486 M409.7855299720152,299.14780164493044 L419.5805961599577,304.78462233602875 M409.7860911148255,291.3370654037554 L419.5817186321035,296.9735600311027 M236.53635423096966,439.66508095555054 L226.74342529769768,434.00950433946474 M52.831652098051336,508.07509672962186 L43.03611181935713,502.4034670358366 M52.851606053247224,515.8983323285131 L43.05662708886206,510.2263765611096 M52.30633437681115,515.9836456272333 L42.51133930649769,510.3116471060971" stroke="black"  stroke-width="4"  fill="red"/>
<path d="M29.098218138554557,494.3890547128855 L213.2522033650753,425.85297389271017 M213.2522033650753,425.85297389271017 L213.68363782236307,422.754129334675 M213.68363782236307,422.754129334675 L212.40208174115696,415.1748660433855 M213.67191610726528,414.1853610013016 L212.40208174115696,415.1748660433855 M30.779101663618576,482.23110321653076 L213.67191610726528,414.1853610013016 M29.098218138554557,494.3890547128855 L30.779101663618576,482.23110321653076 M213.2522033650753,425.85297389271017 L586.452136576581,641.3808808490146 M586.452136576581,641.3808808490146 L402.39986255210664,710.5313360682981 M402.39986255210664,710.5313360682981 L29.098218138554557,494.3890547128855 M586.452136576581,641.3808808490146 L586.8913883033061,638.2759332820467 M213.68363782236307,422.754129334675 L586.8913883033061,638.2759332820467 M586.8913883033061,638.2759332820467 L585.6326409017838,630.688150864464 M212.40208174115696,415.1748660433855 L585.6326409017838,630.688150864464 M586.9031844852278,629.6935916374348 L213.67191610726528,414.1853610013016 M585.6326409017838,630.688150864464 L586.9031844852278,629.6935916374348 M404.1114055363117,698.3494145360651 L30.779101663618576,482.23110321653076 M586.9031844852278,629.6935916374348 L404.1114055363117,698.3494145360651 M402.39986255210664,710.5313360682981 L404.1114055363117,698.3494145360651" stroke="black"  stroke-width="4"  fill="red"/>
<path d="M397.5994258685791,282.3647890507862 L395.89850426742834,272.18718163651334 M214.12286158885294,425.351747942296 L212.40208174115696,415.1748660433855 M397.5994258685791,282.3647890507862 L214.12286158885294,425.351747942296 M395.89850426742834,272.18718163651334 L212.40208174115696,415.1748660433855 M587.3227947865407,640.8764708303981 L585.6326409017838,630.688150864464 M214.12286158885294,425.351747942296 L587.3227947865407,640.8764708303981 M212.40208174115696,415.1748660433855 L585.6326409017838,630.688150864464 M770.9010701325611,497.15979857106373 L769.2308078877003,486.9706950316767 M587.3227947865407,640.8764708303981 L770.9010701325611,497.15979857106373 M585.6326409017838,630.688150864464 L769.2308078877003,486.9706950316767 M770.9010701325611,497.15979857106373 L397.5994258685791,282.3647890507862 M769.2308078877003,486.9706950316767 L395.89850426742834,272.18718163651334" stroke="black"  stroke-width="4"  fill="red"/>
<path d="M156.1296822948875,142.7448246652014 L146.42157887834082,146.32842366391753 M113.36490605261554,451.09597335130763 L103.66929215840435,454.70321221684384 M156.1296822948875,142.7448246652014 L113.36490605261554,451.09597335130763 M146.42157887834082,146.32842366391753 L103.66929215840435,454.70321221684384 M486.652968964748,666.9380524191274 L476.96270284178024,670.5776362147476 M113.36490605261554,451.09597335130763 L486.652968964748,666.9380524191274 M103.66929215840435,454.70321221684384 L476.96270284178024,670.5776362147476 M530.1957058868275,357.97748971153146 L520.4929952066085,361.59335503106286 M486.652968964748,666.9380524191274 L530.1957058868275,357.97748971153146 M476.96270284178024,670.5776362147476 L520.4929952066085,361.59335503106286 M530.1957058868275,357.97748971153146 L156.1296822948875,142.7448246652014 M520.4929952066085,361.59335503106286 L146.42157887834082,146.32842366391753" stroke="black"  stroke-width="4"  fill="red"/>
<path d="M265.73057069505205,77.75116353132722 L265.71937943718297,66.37002028976775 M55.53914875943468,198.1892306811853 L55.51038602311462,186.79787008315265 M265.73057069505205,77.75116353132722 L55.53914875943468,198.1892306811853 M265.71937943718297,66.37002028976775 L55.51038602311462,186.79787008315265 M429.61060397187623,413.78572035457125 L429.6130850691835,402.37615894568347 M55.53914875943468,198.1892306811853 L429.61060397187623,413.78572035457125 M55.51038602311462,186.79787008315265 L429.6130850691835,402.37615894568347 M639.802618130656,292.58042591947964 L639.8226708546947,281.1810826460787 M429.61060397187623,413.78572035457125 L639.802618130656,292.58042591947964 M429.6130850691835,402.37615894568347 L639.8226708546947,281.1810826460787 M639.802618130656,292.58042591947964 L265.73057069505205,77.75116353132722 M639.8226708546947,281.1810826460787 L265.71937943718297,66.37002028976775" stroke="black"  stroke-width="4"  fill="red"/>
<path d="M370.5462286940907,17.692598152234268 L370.54377643892127,6.316563338279082 M265.73057069505205,77.75116353132722 L265.71937943718297,66.37002028976775 M370.5462286940907,17.692598152234268 L265.73057069505205,77.75116353132722 M370.54377643892127,6.316563338279082 L265.71937943718297,66.37002028976775 M639.802618130656,292.58042591947964 L639.8226708546947,281.1810826460787 M265.73057069505205,77.75116353132722 L639.802618130656,292.58042591947964 M265.71937943718297,66.37002028976775 L639.8226708546947,281.1810826460787 M744.6176824421793,232.13978176867698 L744.6464740201478,220.74554743878048 M639.802618130656,292.58042591947964 L744.6176824421793,232.13978176867698 M639.8226708546947,281.1810826460787 L744.6464740201478,220.74554743878048 M744.6176824421793,232.13978176867698 L370.5462286940907,17.692598152234268 M744.6464740201478,220.74554743878048 L370.54377643892127,6.316563338279082" stroke="black"  stroke-width="4"  fill="red"/></svg>